<svg xmlns="http://www.w3.org/2000/svg" viewBox="0 0 22 28" style="margin-right:12px;height:1.6875em"><path fill="#212337" d="M19.995 23.908c-1.12 1.646-2.278 3.282-4.106 3.316-1.8.034-2.377-1.072-4.43-1.072-2.056 0-2.7 1.038-4.399 1.106-1.765.067-3.108-1.777-4.237-3.416-2.306-3.35-4.066-9.473-1.699-13.605 1.173-2.051 3.273-3.35 5.55-3.384 1.733-.032 3.371 1.175 4.43 1.175 1.06 0 3.049-1.45 5.138-1.237.875.037 3.33.355 4.907 2.674-.124.082-2.93 1.723-2.896 5.142.034 4.084 3.56 5.441 3.6 5.46-.031.096-.563 1.938-1.858 3.84ZM12.317 2.305C13.285 1.165 14.92.317 16.27.26c.173 1.584-.461 3.17-1.397 4.312-.938 1.14-2.474 2.03-3.98 1.91-.205-1.549.554-3.164 1.424-4.177Z"/></svg>