<svg xmlns="http://www.w3.org/2000/svg" viewBox="0 0 250 250" width="250" height="250" preserveAspectRatio="xMidYMid meet" style="width: 100%; height: 100%; transform: translate3d(0px, 0px, 0px); content-visibility: visible;"><defs><clipPath id="__lottie_element_289"><rect width="250" height="250" x="0" y="0"/></clipPath></defs><g clip-path="url(#__lottie_element_289)"><g transform="matrix(1,0,0,1,-125,-125)" opacity="1" style="display: block;"><g opacity="1" transform="matrix(1,0,0,1,250,250)"><path fill="rgb(34,173,128)" fill-opacity="1" d=" M-25.851999282836914,-79.35600280761719 C-24.0310001373291,-79.93199920654297 -22.045000076293945,-80.01799774169922 -20.113000869750977,-79.54499816894531 C-16.80299949645996,-78.70899963378906 -13.600000381469727,-77.70899963378906 -10.484000205993652,-76.5510025024414 C-7.925000190734863,-75.5999984741211 -5.426000118255615,-74.54100036621094 -2.990999937057495,-73.38099670410156 C0.4699999988079071,-71.73200225830078 3.802000045776367,-69.87699890136719 6.986000061035156,-67.83499908447266 C11.689000129699707,-64.81900024414062 16.072999954223633,-61.393001556396484 20.09000015258789,-57.612998962402344 C24.41699981689453,-53.540000915527344 28.31800079345703,-49.05699920654297 31.729999542236328,-44.23099899291992 C34.665000915527344,-40.07899856567383 37.23899841308594,-35.67399978637695 39.4119987487793,-31.059999465942383 C43.19499969482422,-23.027999877929688 45.76599884033203,-14.362000465393066 46.917999267578125,-5.293000221252441 C48.93000030517578,-6.348999977111816 50.869998931884766,-7.5289998054504395 52.729000091552734,-8.822999954223633 C55.52899932861328,-10.748000144958496 59.112998962402344,-11.187000274658203 62.28799819946289,-9.996999740600586 C65.64199829101562,-8.746000289916992 68.08899688720703,-5.919000148773193 68.83300018310547,-2.5209999084472656 C69.84500122070312,2.0950000286102295 70.35399627685547,6.802000045776367 70.3499984741211,11.517999649047852 C70.3499984741211,15.425000190734863 70.01200103759766,19.256999969482422 69.36299896240234,22.985000610351562 C68.55500030517578,27.628000259399414 67.26499938964844,32.11199951171875 65.54399871826172,36.387001037597656 C63.513999938964844,41.43199920654297 60.88399887084961,46.1870002746582 57.73899841308594,50.56700134277344 C54.74700164794922,54.73400115966797 51.28799819946289,58.5620002746582 47.43600082397461,61.97999954223633 C43.803001403808594,65.2040023803711 39.81999969482422,68.06300354003906 35.54800033569336,70.49700164794922 C30.996999740600586,73.08999633789062 26.118000030517578,75.20099639892578 20.98699951171875,76.75700378417969 C14.359999656677246,78.76599884033203 7.310999870300293,79.8499984741211 0,79.8499984741211 C-6.035999774932861,79.8499984741211 -11.892999649047852,79.11100006103516 -17.48200035095215,77.7229995727539 C-22.216999053955078,76.5469970703125 -26.759000778198242,74.90399932861328 -31.054000854492188,72.8489990234375 C-37.32400131225586,69.8489990234375 -43.066001892089844,65.96900177001953 -48.10900115966797,61.375999450683594 C-52.71200180053711,57.183998107910156 -56.73400115966797,52.39799880981445 -60.04399871826172,47.14500045776367 C-63.88600158691406,41.04800033569336 -66.7699966430664,34.321998596191406 -68.49700164794922,27.163999557495117 C-69.70899963378906,22.141000747680664 -70.35099792480469,16.905000686645508 -70.3499984741211,11.52400016784668 C-70.37300109863281,4.177999973297119 -69.15499877929688,-3.0450000762939453 -66.81300354003906,-9.883000373840332 C-64.83200073242188,-15.664999961853027 -62.04600143432617,-21.17300033569336 -58.52299880981445,-26.246000289916992 C-55.88199996948242,-30.048999786376953 -52.82500076293945,-33.60900115966797 -49.38999938964844,-36.85100173950195 C-46.90800094604492,-39.20399856567383 -43.380001068115234,-40.2130012512207 -39.97999954223633,-39.51499938964844 C-36.47800064086914,-38.766998291015625 -33.64699935913086,-36.362998962402344 -32.37900161743164,-33.152000427246094 C-31.55699920654297,-31.094999313354492 -30.60300064086914,-29.090999603271484 -29.52199935913086,-27.152000427246094 C-29.170000076293945,-28.261999130249023 -28.856000900268555,-29.3799991607666 -28.579999923706055,-30.503999710083008 C-28.173999786376953,-32.15700149536133 -27.849000930786133,-33.823001861572266 -27.60700035095215,-35.49700164794922 C-27.166000366210938,-38.54499816894531 -26.996000289916992,-41.61899948120117 -27.094999313354492,-44.68199920654297 C-27.194000244140625,-47.73400115966797 -27.56100082397461,-50.7760009765625 -28.19300079345703,-53.7760009765625 C-29.031999588012695,-57.755001068115234 -30.33799934387207,-61.65800094604492 -32.106998443603516,-65.40699768066406 C-32.95800018310547,-67.19300079345703 -33.23899841308594,-69.13800048828125 -32.98500061035156,-71.01300048828125 C-32.73099899291992,-72.88600158691406 -31.94300079345703,-74.69300079345703 -30.64900016784668,-76.19400024414062 C-29.363000869750977,-77.69400024414062 -27.691999435424805,-78.7750015258789 -25.851999282836914,-79.35600280761719z"/><path stroke-linecap="butt" stroke-linejoin="round" fill-opacity="0" stroke="rgb(255,255,255)" stroke-opacity="1" stroke-width="7.7" d=" M-25.851999282836914,-79.35600280761719 C-24.0310001373291,-79.93199920654297 -22.045000076293945,-80.01799774169922 -20.113000869750977,-79.54499816894531 C-16.80299949645996,-78.70899963378906 -13.600000381469727,-77.70899963378906 -10.484000205993652,-76.5510025024414 C-7.925000190734863,-75.5999984741211 -5.426000118255615,-74.54100036621094 -2.990999937057495,-73.38099670410156 C0.4699999988079071,-71.73200225830078 3.802000045776367,-69.87699890136719 6.986000061035156,-67.83499908447266 C11.689000129699707,-64.81900024414062 16.072999954223633,-61.393001556396484 20.09000015258789,-57.612998962402344 C24.41699981689453,-53.540000915527344 28.31800079345703,-49.05699920654297 31.729999542236328,-44.23099899291992 C34.665000915527344,-40.07899856567383 37.23899841308594,-35.67399978637695 39.4119987487793,-31.059999465942383 C43.19499969482422,-23.027999877929688 45.76599884033203,-14.362000465393066 46.917999267578125,-5.293000221252441 C48.93000030517578,-6.348999977111816 50.869998931884766,-7.5289998054504395 52.729000091552734,-8.822999954223633 C55.52899932861328,-10.748000144958496 59.112998962402344,-11.187000274658203 62.28799819946289,-9.996999740600586 C65.64199829101562,-8.746000289916992 68.08899688720703,-5.919000148773193 68.83300018310547,-2.5209999084472656 C69.84500122070312,2.0950000286102295 70.35399627685547,6.802000045776367 70.3499984741211,11.517999649047852 C70.3499984741211,15.425000190734863 70.01200103759766,19.256999969482422 69.36299896240234,22.985000610351562 C68.55500030517578,27.628000259399414 67.26499938964844,32.11199951171875 65.54399871826172,36.387001037597656 C63.513999938964844,41.43199920654297 60.88399887084961,46.1870002746582 57.73899841308594,50.56700134277344 C54.74700164794922,54.73400115966797 51.28799819946289,58.5620002746582 47.43600082397461,61.97999954223633 C43.803001403808594,65.2040023803711 39.81999969482422,68.06300354003906 35.54800033569336,70.49700164794922 C30.996999740600586,73.08999633789062 26.118000030517578,75.20099639892578 20.98699951171875,76.75700378417969 C14.359999656677246,78.76599884033203 7.310999870300293,79.8499984741211 0,79.8499984741211 C-6.035999774932861,79.8499984741211 -11.892999649047852,79.11100006103516 -17.48200035095215,77.7229995727539 C-22.216999053955078,76.5469970703125 -26.759000778198242,74.90399932861328 -31.054000854492188,72.8489990234375 C-37.32400131225586,69.8489990234375 -43.066001892089844,65.96900177001953 -48.10900115966797,61.375999450683594 C-52.71200180053711,57.183998107910156 -56.73400115966797,52.39799880981445 -60.04399871826172,47.14500045776367 C-63.88600158691406,41.04800033569336 -66.7699966430664,34.321998596191406 -68.49700164794922,27.163999557495117 C-69.70899963378906,22.141000747680664 -70.35099792480469,16.905000686645508 -70.3499984741211,11.52400016784668 C-70.37300109863281,4.177999973297119 -69.15499877929688,-3.0450000762939453 -66.81300354003906,-9.883000373840332 C-64.83200073242188,-15.664999961853027 -62.04600143432617,-21.17300033569336 -58.52299880981445,-26.246000289916992 C-55.88199996948242,-30.048999786376953 -52.82500076293945,-33.60900115966797 -49.38999938964844,-36.85100173950195 C-46.90800094604492,-39.20399856567383 -43.380001068115234,-40.2130012512207 -39.97999954223633,-39.51499938964844 C-36.47800064086914,-38.766998291015625 -33.64699935913086,-36.362998962402344 -32.37900161743164,-33.152000427246094 C-31.55699920654297,-31.094999313354492 -30.60300064086914,-29.090999603271484 -29.52199935913086,-27.152000427246094 C-29.170000076293945,-28.261999130249023 -28.856000900268555,-29.3799991607666 -28.579999923706055,-30.503999710083008 C-28.173999786376953,-32.15700149536133 -27.849000930786133,-33.823001861572266 -27.60700035095215,-35.49700164794922 C-27.166000366210938,-38.54499816894531 -26.996000289916992,-41.61899948120117 -27.094999313354492,-44.68199920654297 C-27.194000244140625,-47.73400115966797 -27.56100082397461,-50.7760009765625 -28.19300079345703,-53.7760009765625 C-29.031999588012695,-57.755001068115234 -30.33799934387207,-61.65800094604492 -32.106998443603516,-65.40699768066406 C-32.95800018310547,-67.19300079345703 -33.23899841308594,-69.13800048828125 -32.98500061035156,-71.01300048828125 C-32.73099899291992,-72.88600158691406 -31.94300079345703,-74.69300079345703 -30.64900016784668,-76.19400024414062 C-29.363000869750977,-77.69400024414062 -27.691999435424805,-78.7750015258789 -25.851999282836914,-79.35600280761719z"/></g></g><g transform="matrix(0.9350000023841858,0,0,0.9350000023841858,-108.96372985839844,-101.56332397460938)" opacity="1" style="display: block;"><g opacity="1" transform="matrix(1,0,0,1,250.55799865722656,267.9490051269531)"><path fill="rgb(255,255,255)" fill-opacity="1" d=" M-2.1470000743865967,29.500999450683594 C-10.614999771118164,23.18000030517578 -34.96500015258789,3.693000078201294 -34.96500015258789,-11.470000267028809 C-34.96500015258789,-29.81399917602539 -13.020999908447266,-37.20399856567383 -2.944000005722046,-22.08099937438965 C-2.3010001182556152,-21.115999221801758 -1.1920000314712524,-20.533000946044922 0,-20.533000946044922 C1.1920000314712524,-20.533000946044922 2.3010001182556152,-21.115999221801758 2.944000005722046,-22.08099937438965 C13.020999908447266,-37.20399856567383 34.96500015258789,-29.81399917602539 34.96500015258789,-11.470000267028809 C34.96500015258789,3.693000078201294 10.607999801635742,23.18000030517578 2.140000104904175,29.500999450683594 C0.8790000081062317,30.441999435424805 -0.8859999775886536,30.441999435424805 -2.1470000743865967,29.500999450683594z"/></g></g></g></svg>