<svg xmlns="http://www.w3.org/2000/svg" viewBox="0 0 27 30" style="margin-right:11px;height:1.6875em"><g fill="#212337" stroke="#E8E9EB" stroke-linecap="round" stroke-linejoin="round" stroke-width="1.686"><path d="M1.42 1.85c-.315.314-.42.839-.42 1.469v23.202c0 .63.21 1.155.525 1.47l.104.105 13.009-13.018v-.21L1.42 1.849zm17.519 17.637-4.301-4.304v-.315l4.3-4.305.106.105 5.14 2.94c1.469.84 1.469 2.205 0 3.044l-5.245 2.835h0z"/><path d="m18.939 19.382-4.406-4.41L1.42 28.097c.524.525 1.258.525 2.203.105l15.316-8.819m0-8.819L3.623 1.85c-.945-.525-1.679-.42-2.203.105l13.113 13.019 4.406-4.41h0z"/></g></svg>