<svg xmlns="http://www.w3.org/2000/svg" viewBox="0 0 32 30"><path fill="#A6A7B0" d="M15.592 0c-4.234 0-4.765.017-6.428.09-1.66.073-2.793.327-3.785.698a7.68 7.68 0 0 0-2.762 1.73A7.33 7.33 0 0 0 .819 5.174C.433 6.13.169 7.22.094 8.816.018 10.416 0 10.926 0 15s.018 4.585.094 6.184c.076 1.597.34 2.687.725 3.642a7.33 7.33 0 0 0 1.798 2.656 7.681 7.681 0 0 0 2.762 1.73c.992.371 2.125.625 3.785.698 1.663.073 2.194.09 6.428.09 4.235 0 4.766-.017 6.43-.09 1.659-.073 2.792-.327 3.784-.697a7.681 7.681 0 0 0 2.762-1.73 7.331 7.331 0 0 0 1.798-2.657c.386-.955.65-2.045.725-3.642.076-1.6.094-2.11.094-6.184s-.018-4.585-.094-6.184c-.076-1.597-.34-2.687-.725-3.642a7.331 7.331 0 0 0-1.798-2.656 7.68 7.68 0 0 0-2.762-1.73C24.814.417 23.68.163 22.02.09 20.358.017 19.827 0 15.592 0Zm0 2.703c4.164 0 4.657.015 6.301.087 1.52.067 2.346.311 2.895.517a4.853 4.853 0 0 1 1.793 1.122 4.634 4.634 0 0 1 1.166 1.724c.214.529.468 1.323.537 2.786.075 1.581.091 2.056.091 6.061s-.016 4.48-.09 6.061c-.07 1.463-.324 2.257-.538 2.786-.282.7-.62 1.2-1.166 1.724a4.853 4.853 0 0 1-1.793 1.122c-.55.206-1.375.45-2.895.517-1.644.072-2.137.087-6.3.087-4.164 0-4.657-.015-6.301-.087-1.52-.067-2.346-.311-2.896-.517a4.853 4.853 0 0 1-1.792-1.122 4.634 4.634 0 0 1-1.167-1.724c-.213-.529-.467-1.323-.537-2.786-.075-1.581-.09-2.056-.09-6.061s.015-4.48.09-6.061c.07-1.463.324-2.257.537-2.786.283-.7.621-1.2 1.167-1.724a4.853 4.853 0 0 1 1.792-1.122c.55-.206 1.375-.45 2.896-.517 1.644-.072 2.137-.087 6.3-.087Zm0 4.594c-4.422 0-8.007 3.449-8.007 7.703 0 4.254 3.585 7.703 8.007 7.703S23.6 19.254 23.6 15c0-4.254-3.585-7.703-8.007-7.703Zm0 12.703c-2.87 0-5.197-2.239-5.197-5s2.327-5 5.197-5 5.198 2.239 5.198 5-2.327 5-5.198 5ZM25.787 6.993c0 .994-.838 1.8-1.871 1.8-1.034 0-1.871-.806-1.871-1.8s.837-1.8 1.87-1.8c1.034 0 1.872.806 1.872 1.8Z"/></svg>