<?xml version="1.0" standalone="no"?>
<!DOCTYPE svg PUBLIC "-//W3C//DTD SVG 20010904//EN"
 "http://www.w3.org/TR/2001/REC-SVG-20010904/DTD/svg10.dtd">
<svg version="1.0" xmlns="http://www.w3.org/2000/svg"
 width="250.000000pt" height="332.000000pt" viewBox="0 0 250.000000 332.000000"
 preserveAspectRatio="xMidYMid meet">

<g transform="translate(0.000000,332.000000) scale(0.100000,-0.100000)"
fill="#000000" stroke="none">
<path d="M0 1660 l0 -1660 1250 0 1250 0 0 1660 0 1660 -1250 0 -1250 0 0
-1660z m940 1615 c85 -9 193 -20 240 -25 47 -5 175 -19 285 -30 228 -24 522
-56 640 -69 124 -15 208 -46 264 -100 27 -25 59 -66 72 -91 22 -42 24 -56 23
-190 0 -80 -10 -233 -22 -340 -12 -107 -29 -260 -37 -340 -9 -80 -17 -160 -20
-178 -2 -21 0 -30 7 -26 7 5 9 -4 5 -27 -3 -19 -14 -114 -23 -213 -10 -98 -23
-183 -29 -190 -6 -6 -16 -69 -23 -141 -7 -71 -19 -193 -27 -270 -9 -77 -22
-201 -30 -275 -7 -74 -21 -205 -30 -290 -19 -183 -37 -291 -29 -170 3 41 14
158 25 260 10 102 26 253 34 335 9 83 22 211 30 285 21 195 38 354 106 1015
69 663 69 682 8 776 -76 119 -135 138 -589 184 -85 9 -236 25 -335 35 -99 11
-243 26 -320 35 -77 8 -203 21 -279 30 -251 27 -330 15 -417 -63 -88 -79 -100
-119 -138 -473 -17 -156 -38 -347 -46 -424 -15 -135 -36 -339 -90 -855 -14
-135 -32 -303 -40 -375 -8 -71 -21 -200 -30 -285 -26 -258 -55 -514 -60 -530
-6 -22 4 141 15 235 11 98 33 307 60 565 11 107 27 257 36 332 9 76 14 152 11
170 -7 45 11 238 25 263 6 11 12 67 13 125 3 124 14 241 25 255 8 9 30 146 30
181 0 8 -5 12 -11 8 -12 -7 -1 108 11 116 4 3 10 19 14 35 6 30 33 272 41 370
7 81 26 157 50 205 27 54 101 125 153 147 40 18 155 32 212 27 19 -2 105 -11
190 -19z m-76 -95 c99 -11 182 -22 184 -25 3 -3 7 -26 8 -52 3 -36 10 -53 32
-76 32 -32 25 -30 402 -71 214 -24 245 -22 280 12 16 16 32 45 35 65 4 19 13
38 19 40 17 7 351 -29 396 -42 80 -23 160 -129 160 -211 0 -20 -13 -164 -30
-320 -16 -157 -39 -373 -50 -480 -11 -107 -25 -235 -30 -285 -6 -49 -26 -241
-45 -425 -19 -184 -41 -398 -50 -475 -8 -77 -26 -246 -40 -375 -14 -129 -28
-249 -31 -267 l-6 -31 -888 1 c-696 2 -892 5 -902 15 -17 17 -45 15 -52 -3 -4
-11 -20 -15 -57 -15 l-52 0 7 92 c4 51 22 242 41 423 19 182 44 418 55 525 11
107 25 233 30 280 5 47 26 240 45 430 20 190 44 426 55 525 11 99 29 268 40
376 11 108 25 212 32 230 30 87 120 155 208 158 14 0 106 -8 204 -19z"/>
<path d="M241 2064 c0 -11 3 -14 6 -6 3 7 2 16 -1 19 -3 4 -6 -2 -5 -13z"/>
<path d="M211 1774 c0 -11 3 -14 6 -6 3 7 2 16 -1 19 -3 4 -6 -2 -5 -13z"/>
<path d="M628 3095 c-10 -10 4 -46 16 -42 6 2 12 14 14 28 2 17 0 20 -6 10 -7
-9 -11 -10 -13 -2 -3 7 -7 9 -11 6z"/>
<path d="M700 3085 c-10 -11 -9 -18 4 -30 15 -15 16 -14 16 14 0 35 -3 37 -20
16z"/>
<path d="M748 3065 c2 -14 6 -25 8 -25 2 0 4 11 4 25 0 14 -4 25 -9 25 -4 0
-6 -11 -3 -25z"/>
<path d="M2038 2952 c-11 -2 -18 -12 -18 -25 0 -16 3 -18 9 -8 7 11 9 11 13 0
7 -20 20 -5 16 18 -2 11 -10 17 -20 15z"/>
<path d="M2095 2950 c-3 -5 -1 -10 5 -10 6 0 8 -4 5 -10 -3 -6 1 -7 10 -4 11
5 14 2 8 -12 -6 -15 -3 -14 17 4 21 19 22 24 10 32 -20 13 -47 13 -55 0z"/>
<path d="M1970 2929 c0 -4 9 -9 20 -12 12 -3 20 0 20 7 0 6 -9 12 -20 12 -11
0 -20 -3 -20 -7z"/>
<path d="M2200 2921 c0 -17 6 -21 29 -21 16 0 36 -3 44 -6 14 -5 33 23 23 34
-3 2 -25 7 -51 9 -41 5 -45 4 -45 -16z"/>
<path d="M561 2839 c-22 -18 -23 -20 -6 -45 9 -14 19 -23 22 -20 3 3 0 12 -7
21 -11 13 -10 19 5 35 25 27 16 33 -14 9z"/>
<path d="M930 2802 c-68 -10 -116 -79 -106 -151 4 -25 7 -54 7 -63 0 -11 8
-18 18 -18 10 0 28 -11 40 -24 15 -16 29 -22 43 -18 15 4 19 1 16 -9 -6 -17 9
-49 23 -49 5 0 15 11 21 25 6 14 20 25 30 25 31 0 17 -33 -22 -53 -34 -17 -55
-17 -159 -1 -31 5 -33 4 -17 -11 24 -24 20 -32 -20 -37 -34 -4 -35 -4 -14 12
16 12 18 18 8 28 -18 18 -27 15 -38 -13 -5 -14 -15 -25 -22 -25 -9 0 -9 3 0
12 20 20 14 28 -23 28 -24 0 -35 5 -35 15 0 8 5 15 10 15 17 0 11 52 -7 66
-28 21 -46 17 -23 -6 21 -21 27 -55 10 -65 -10 -6 -113 55 -125 74 -3 6 1 25
9 42 14 28 14 30 -1 27 -9 -2 -16 -7 -16 -13 0 -5 -7 -16 -16 -23 -12 -10 -13
-14 -3 -19 10 -4 10 -8 1 -19 -14 -17 -25 -144 -12 -144 5 0 18 -7 29 -16 18
-15 17 -15 -12 -10 -31 5 -32 4 -38 -41 -3 -25 -6 -61 -6 -81 0 -29 2 -32 14
-23 8 7 30 11 48 9 27 -2 36 2 50 25 22 34 33 34 195 2 71 -13 151 -26 179
-27 l52 -3 -30 -61 -30 -62 -42 5 c-28 3 -48 13 -63 31 -72 88 -78 89 -118 26
-16 -26 -41 -54 -55 -62 -14 -9 -28 -21 -32 -27 -5 -6 -8 -2 -8 8 0 10 -4 15
-10 12 -5 -3 -10 0 -10 8 0 24 -31 30 -37 7 -7 -25 -11 -25 -43 0 -26 20 -41
25 -38 13 1 -8 -10 -75 -19 -106 -2 -9 -9 -14 -15 -11 -8 5 -9 1 -5 -10 4 -10
7 -20 7 -22 0 -3 11 -9 25 -14 37 -14 33 -53 -9 -85 -38 -29 -44 -40 -55 -102
-9 -44 2 -82 14 -50 6 15 9 15 37 1 17 -9 39 -13 50 -11 11 3 34 -3 51 -13 27
-16 56 -19 171 -21 120 -2 140 0 148 14 6 11 22 17 43 17 31 0 36 -4 54 -46
70 -158 209 -280 397 -349 87 -33 256 -44 357 -25 62 11 70 11 112 -9 25 -11
48 -21 53 -21 4 0 23 -11 42 -25 45 -33 74 -32 100 5 12 17 25 28 30 25 11 -7
20 20 20 58 l0 32 -20 -32 -19 -33 -51 32 c-27 17 -50 34 -50 37 0 4 24 25 52
46 79 60 105 92 112 139 6 42 50 454 62 582 6 65 4 74 -15 93 -28 28 -27 44 2
35 22 -7 22 -6 3 15 -11 11 -26 21 -34 21 -8 0 -45 26 -81 57 -36 31 -87 70
-112 86 l-47 29 15 30 c20 38 19 98 -2 138 -25 49 -78 66 -265 84 -91 9 -230
23 -310 32 -292 30 -396 39 -420 36z m72 -101 c21 -8 23 -14 20 -50 -4 -39
-25 -57 -35 -28 -3 9 -7 9 -20 -2 -14 -11 -18 -11 -23 3 -10 25 5 86 21 86 7
0 24 -4 37 -9z m158 -46 c0 -8 7 -11 21 -8 12 4 25 0 30 -8 6 -10 9 -10 9 -1
0 17 59 15 66 -3 3 -8 2 -20 -2 -26 -5 -9 -10 -7 -15 7 -7 17 -8 17 -8 2 -1
-10 -5 -18 -11 -18 -5 0 -11 8 -11 18 -1 16 -2 16 -6 -1 -4 -14 -8 -15 -18 -7
-8 6 -16 7 -19 2 -9 -15 -56 -1 -57 17 0 12 -2 11 -9 -4 -7 -17 -9 -16 -9 10
-1 24 4 31 19 32 11 1 20 -4 20 -12z m200 -17 c0 -9 15 -13 42 -12 24 1 49 -3
56 -9 8 -7 12 -5 12 7 0 20 7 20 26 1 9 -8 12 -19 9 -25 -3 -5 -1 -10 4 -10 6
0 11 7 11 15 0 19 40 16 64 -4 12 -10 16 -10 16 -1 0 8 10 9 30 5 19 -4 36 -2
45 5 12 10 15 9 15 -3 0 -11 5 -14 17 -10 12 5 14 3 8 -8 -8 -12 -6 -12 9 0
12 10 20 11 28 3 11 -11 39 -5 50 12 4 6 8 -6 8 -26 0 -31 -4 -38 -20 -38 -11
0 -20 3 -20 8 0 4 -22 7 -50 7 -43 -1 -50 2 -50 19 0 20 0 20 -15 0 -11 -14
-14 -15 -15 -4 0 12 -2 12 -9 2 -11 -18 -61 -5 -62 17 -1 14 -2 13 -6 -1 -2
-10 -9 -18 -14 -18 -5 0 -10 8 -10 18 -1 15 -2 15 -6 -1 -4 -15 -10 -17 -31
-11 -15 4 -39 6 -54 5 -16 -1 -28 4 -28 10 0 8 -4 8 -15 -1 -8 -6 -20 -8 -27
-4 -7 5 -25 7 -40 5 -29 -3 -35 10 -22 43 7 19 44 22 44 4z m-86 -146 c5 -9
-74 -56 -81 -48 -3 2 3 16 12 30 17 25 58 36 69 18z m346 -57 c19 -17 47 -26
110 -35 76 -11 90 -11 117 4 46 23 53 19 18 -10 l-30 -26 53 6 c33 4 52 3 52
-4 0 -5 -8 -10 -18 -10 -10 0 -22 -3 -26 -7 -8 -9 64 -73 83 -73 8 0 12 -3 8
-6 -3 -4 -19 -2 -35 4 -26 9 -31 7 -40 -13 -6 -13 -23 -25 -42 -29 -48 -9 -90
-7 -90 4 0 19 -15 10 -36 -23 -11 -17 -22 -36 -23 -42 -7 -26 -23 -35 -38 -20
-17 17 -29 19 -38 5 -3 -5 3 -10 14 -10 12 0 21 -5 21 -11 0 -6 -9 -8 -22 -3
-25 7 -38 22 -38 42 0 15 -33 8 -65 -14 -11 -8 -33 -14 -50 -14 -25 0 -33 -6
-42 -30 -11 -28 -33 -42 -33 -20 0 20 -19 9 -39 -24 -27 -43 -26 -56 1 -48 14
3 19 2 14 -6 -4 -7 -2 -12 3 -12 6 0 11 12 11 27 0 14 3 23 7 20 3 -4 12 -2
19 4 10 9 15 7 20 -5 8 -22 37 -20 51 4 10 16 10 21 -2 27 -9 5 -12 17 -9 31
4 12 10 19 16 16 5 -3 15 -1 22 6 11 9 14 3 12 -30 -1 -23 -9 -45 -17 -50 -8
-5 -15 -20 -16 -32 0 -13 -4 -35 -7 -50 -5 -21 -3 -28 9 -28 8 0 15 -5 15 -11
0 -5 -4 -7 -10 -4 -15 9 -12 -7 5 -29 24 -32 17 -58 -25 -106 l-40 -45 -22 25
c-11 14 -25 37 -30 53 -6 15 -14 27 -18 27 -14 0 -23 -22 -13 -29 11 -7 10
-132 -1 -149 -3 -6 -2 -13 4 -17 5 -3 10 -1 10 6 0 7 3 10 6 7 3 -4 -2 -18
-11 -32 -17 -26 -17 -26 9 -26 26 0 56 34 61 68 5 37 18 63 30 58 17 -6 65 41
65 65 0 12 24 45 55 76 30 30 57 63 60 74 4 10 13 19 21 19 22 0 -16 -69 -58
-106 -37 -32 -73 -99 -69 -128 1 -10 -2 -15 -7 -12 -6 3 -20 -10 -32 -29 -12
-19 -27 -35 -34 -35 -15 0 -49 -57 -41 -70 3 -6 1 -10 -4 -10 -14 0 -14 -65
-2 -89 9 -15 5 -18 -22 -19 -28 -1 -32 2 -34 25 -1 28 -47 72 -74 73 -31 0
-69 40 -69 71 0 18 -5 29 -14 29 -8 0 -16 16 -20 41 -4 23 -16 64 -27 90 -21
47 -22 48 -44 33 -27 -18 -24 -34 12 -77 28 -35 29 -48 3 -65 -17 -10 -20 -10
-20 3 0 9 -6 18 -14 21 -9 4 -17 27 -21 62 -4 32 -9 66 -12 76 -4 15 -1 18 17
13 34 -9 52 1 40 24 -6 10 -17 16 -25 13 -17 -7 -21 11 -5 21 23 14 7 22 -35
17 -25 -2 -45 -2 -45 1 0 4 17 15 39 26 59 30 64 100 7 102 -15 0 -16 2 -6 6
8 4 23 15 33 27 17 20 17 20 -5 30 l-23 9 25 5 c26 4 154 128 146 141 -3 4
-19 6 -36 3 -35 -5 -39 4 -7 19 24 11 38 19 111 67 48 31 89 41 100 24 7 -11
-4 -24 -46 -52 -38 -25 -55 -65 -32 -74 8 -3 14 -20 14 -38 0 -25 -3 -29 -12
-20 -16 16 -28 15 -28 -3 0 -8 -9 -15 -20 -15 -15 0 -20 -7 -20 -28 0 -15 5
-33 12 -40 8 -8 8 -12 1 -12 -6 0 -13 -18 -17 -39 -6 -39 -26 -67 -26 -37 0 9
-4 16 -9 16 -8 0 -6 -22 5 -59 6 -19 54 26 54 50 0 10 14 27 30 39 17 12 30
27 30 35 0 12 23 28 45 30 20 1 35 17 35 36 0 13 -6 19 -17 17 -12 -2 -17 3
-15 15 2 9 -4 20 -11 23 -20 7 -10 41 14 47 20 5 53 68 54 101 0 11 6 21 14
24 10 3 12 0 8 -11 -3 -9 -2 -19 4 -22 5 -4 12 1 15 9 3 9 12 16 20 16 8 0 14
5 14 10 0 6 -11 10 -25 10 -14 0 -25 4 -25 9 0 5 -8 12 -17 15 -10 3 14 3 52
0 54 -5 76 -11 95 -29z m-720 -92 c8 -7 -208 -1 -242 7 -18 4 28 6 102 3 74
-3 137 -7 140 -10z m1150 -41 c-7 -3 -16 2 -21 9 -16 25 -9 32 12 13 13 -12
16 -20 9 -22z m-860 -46 c0 -3 -4 -8 -10 -11 -5 -3 -10 -1 -10 4 0 6 5 11 10
11 6 0 10 -2 10 -4z m790 -36 c0 -5 -7 -7 -15 -4 -8 4 -15 8 -15 10 0 2 7 4
15 4 8 0 15 -4 15 -10z m-100 -10 c0 -6 10 -24 22 -40 34 -46 33 -144 -1 -153
-13 -4 -11 -6 7 -12 12 -4 22 -13 22 -20 0 -16 -55 -14 -72 3 -6 6 -22 12 -35
12 -18 0 -23 6 -24 28 -2 65 -17 112 -37 113 -14 1 -15 2 -1 6 11 3 15 12 11
28 -3 20 1 25 29 34 46 13 79 13 79 1z m129 -91 c5 -30 8 -55 6 -57 -4 -5 -65
104 -65 116 0 16 24 21 38 8 7 -7 17 -37 21 -67z m-1209 35 c13 -34 14 -31
-16 -59 l-26 -24 41 -17 c50 -20 61 -50 38 -100 -9 -19 -20 -34 -24 -34 -5 0
-19 -16 -32 -35 -23 -35 -61 -48 -61 -22 0 8 -9 22 -21 33 -36 33 -42 53 -24
81 9 13 14 27 12 30 -3 2 -10 -5 -17 -16 -6 -12 -16 -19 -21 -15 -6 4 -4 15 6
31 10 14 17 41 18 59 1 25 3 30 10 19 4 -8 5 -20 2 -25 -3 -6 -1 -10 4 -10 6
0 11 12 11 27 0 26 62 103 82 103 5 0 13 -12 18 -26z m790 -3 c0 -17 -18 -21
-24 -6 -3 9 0 15 9 15 8 0 15 -4 15 -9z m478 -16 c-3 -3 -9 2 -12 12 -6 14 -5
15 5 6 7 -7 10 -15 7 -18z m-298 -67 c0 -5 -4 -8 -10 -8 -5 0 -10 10 -10 23 0
18 2 19 10 7 5 -8 10 -18 10 -22z m-1140 -9 c0 -10 -6 -22 -13 -26 -8 -4 -18
-16 -23 -25 -7 -12 -14 -14 -24 -8 -13 8 -13 10 -1 10 11 0 10 4 -4 14 -16 12
-17 18 -8 38 9 20 17 24 42 20 22 -3 31 -10 31 -23z m405 -29 c3 -5 2 -10 -4
-10 -5 0 -13 5 -16 10 -3 6 -2 10 4 10 5 0 13 -4 16 -10z m952 -83 c25 -45 26
-74 1 -49 -8 8 -17 5 -35 -14 -27 -30 -40 -26 -23 5 6 12 7 21 1 21 -10 0 -25
-30 -22 -47 1 -6 -3 -14 -9 -18 -5 -3 -10 1 -10 9 0 19 -16 21 -23 4 -3 -7 -6
5 -6 27 -1 30 -4 36 -13 27 -8 -8 -15 -9 -25 -1 -40 34 18 57 67 28 50 -31 64
-26 56 22 -9 53 7 48 41 -14z m-367 1 c0 -18 -17 -7 -29 19 -13 28 -13 28 8 9
12 -11 21 -23 21 -28z m120 38 c0 -3 -4 -8 -10 -11 -5 -3 -10 -1 -10 4 0 6 5
11 10 11 6 0 10 -2 10 -4z m-1083 -69 c7 -7 15 -27 19 -45 6 -31 5 -32 -25
-32 -17 0 -32 1 -34 3 -2 1 -20 -11 -40 -26 -21 -15 -41 -26 -46 -22 -16 9
-22 60 -11 89 18 48 101 68 137 33z m1153 -50 c0 -7 -4 -7 -12 1 -7 7 -19 12
-28 12 -9 0 -25 9 -35 20 -18 20 -17 20 8 20 14 0 29 5 33 11 7 11 34 -41 34
-64z m-220 38 c0 -8 -4 -15 -10 -15 -5 0 -10 7 -10 15 0 8 5 15 10 15 6 0 10
-7 10 -15z m179 -40 c44 -27 85 -77 96 -115 4 -14 14 -33 23 -42 12 -14 12
-21 3 -32 -7 -8 -10 -24 -7 -34 4 -13 1 -19 -9 -19 -10 0 -15 10 -15 29 0 28
-13 37 -26 17 -4 -8 -9 -7 -15 2 -13 21 -12 -28 1 -52 8 -13 7 -25 -1 -40
l-11 -21 -14 21 c-9 12 -21 18 -30 14 -12 -4 -13 -1 -4 19 8 17 8 32 0 52
l-11 29 -24 -23 c-14 -13 -25 -19 -25 -13 0 5 11 20 24 32 15 14 22 30 19 42
-4 14 0 19 13 18 12 0 14 -3 6 -6 -9 -3 -5 -12 14 -30 21 -19 29 -22 35 -11
13 20 11 32 -11 56 -25 26 -80 32 -72 7 2 -5 0 -7 -3 -3 -4 4 -17 1 -29 -7
-11 -8 -37 -15 -58 -15 -32 0 -38 3 -38 20 0 19 4 20 53 15 48 -6 51 -5 33 9
-11 9 -30 16 -42 16 -13 0 -26 5 -29 10 -3 6 1 10 9 10 23 0 59 39 52 56 -9
23 50 17 93 -11z m332 -68 c-10 -9 -11 -8 -5 6 3 10 9 15 12 12 3 -3 0 -11 -7
-18z m-31 -31 c0 -3 -4 -8 -10 -11 -5 -3 -10 -1 -10 4 0 6 5 11 10 11 6 0 10
-2 10 -4z m-370 -43 c-1 -21 -60 -65 -60 -44 0 5 9 13 20 16 11 3 20 13 20 21
0 8 5 14 10 14 6 0 10 -3 10 -7z m-55 -19 c-42 -32 -52 -35 -58 -13 -4 13 -1
19 6 16 7 -2 21 -1 32 4 32 13 41 9 20 -7z m286 -109 c2 -24 4 -29 12 -42 13
-20 0 -31 -43 -38 -36 -6 -39 -9 -29 -26 15 -29 1 -44 -22 -23 -24 21 -24 24
1 78 25 52 78 86 81 51z m-361 -77 c16 -29 27 -54 25 -57 -6 -5 -79 69 -81 83
-1 6 -5 19 -10 30 -16 40 36 -4 66 -56z m166 31 c2 -5 16 -4 30 1 41 16 60 -1
56 -50 -4 -43 -24 -62 -45 -41 -15 15 -27 14 -27 -3 0 -8 -7 -17 -16 -20 -22
-9 -23 -8 -17 14 4 15 0 20 -16 20 -15 0 -21 6 -21 23 0 13 -5 28 -11 34 -6 6
-8 16 -5 21 7 12 64 13 72 1z m-219 -78 c18 -23 30 -48 27 -56 -7 -17 -22 0
-64 69 -31 52 -6 43 37 -13z"/>
<path d="M1380 2610 c0 -5 5 -10 10 -10 6 0 10 5 10 10 0 6 -4 10 -10 10 -5 0
-10 -4 -10 -10z"/>
<path d="M1430 2600 c0 -5 5 -10 10 -10 6 0 10 5 10 10 0 6 -4 10 -10 10 -5 0
-10 -4 -10 -10z"/>
<path d="M1614 2404 c4 -14 1 -28 -9 -37 -9 -10 -11 -18 -5 -22 5 -3 10 -1 10
4 0 6 7 11 16 11 11 0 14 6 9 23 -4 12 -12 27 -17 32 -7 7 -8 3 -4 -11z"/>
<path d="M1727 2369 c-3 -12 -11 -20 -19 -17 -7 3 -22 2 -32 -2 -16 -5 -14 -9
18 -28 41 -24 56 -28 38 -10 -19 19 -14 38 9 38 14 0 19 5 17 17 -5 25 -25 27
-31 2z"/>
<path d="M1796 2361 c-3 -5 -4 -24 -2 -42 2 -19 -1 -37 -7 -41 -16 -10 -3 -20
17 -12 9 3 13 11 9 18 -4 6 0 5 9 -2 20 -16 70 -12 76 6 3 10 -4 13 -24 12
-16 -1 -37 -2 -48 -1 -17 1 -16 3 4 19 l22 18 -25 17 c-14 9 -28 13 -31 8z"/>
<path d="M1550 2336 c0 -7 -14 -30 -30 -51 -17 -21 -33 -50 -36 -64 -4 -14
-13 -32 -22 -38 -23 -19 0 -16 27 3 23 16 23 16 17 -7 -7 -24 -7 -24 11 -4 10
12 26 24 36 28 9 3 17 11 17 17 0 6 4 8 10 5 5 -3 23 1 40 10 23 12 28 19 22
32 -5 9 -7 25 -4 36 4 17 1 19 -16 15 -13 -4 -25 -1 -30 6 -11 19 -42 28 -42
12z"/>
<path d="M1660 2295 c0 -29 16 -41 35 -25 17 14 10 36 -16 43 -15 4 -19 0 -19
-18z"/>
<path d="M1600 2210 c-11 -8 -7 -9 15 -4 37 8 45 14 19 14 -10 0 -26 -5 -34
-10z"/>
<path d="M1210 2129 c0 -5 5 -7 10 -4 6 3 10 8 10 11 0 2 -4 4 -10 4 -5 0 -10
-5 -10 -11z"/>
<path d="M1210 2098 c0 -15 18 -17 30 -3 9 11 8 14 -9 12 -12 -1 -21 -5 -21
-9z"/>
<path d="M1317 2021 c-21 -36 -22 -52 -2 -45 8 4 12 10 9 15 -3 5 -2 9 3 9 4
0 9 11 9 25 1 14 1 25 0 25 -1 0 -9 -13 -19 -29z"/>
<path d="M1474 2009 c-3 -6 -2 -15 4 -21 6 -6 11 -2 15 11 5 22 -7 29 -19 10z"/>
<path d="M1420 1989 c0 -5 5 -7 10 -4 6 3 10 8 10 11 0 2 -4 4 -10 4 -5 0 -10
-5 -10 -11z"/>
<path d="M1256 1975 c4 -8 7 -15 9 -15 2 0 5 7 9 15 3 9 0 15 -9 15 -9 0 -12
-6 -9 -15z"/>
<path d="M1364 1925 c21 -16 58 -14 64 3 2 8 -11 12 -40 12 -40 -1 -41 -2 -24
-15z"/>
<path d="M1231 1905 c0 -11 7 -36 14 -55 l14 -35 -6 45 c-6 46 -24 81 -22 45z"/>
<path d="M1290 1896 c0 -24 17 -28 23 -6 3 13 0 20 -9 20 -8 0 -14 -6 -14 -14z"/>
<path d="M1520 1860 c0 -5 5 -10 11 -10 5 0 7 5 4 10 -3 6 -8 10 -11 10 -2 0
-4 -4 -4 -10z"/>
<path d="M1280 1824 c0 -17 21 -89 36 -121 15 -33 31 -49 41 -40 7 8 -19 77
-30 77 -5 0 -6 18 -2 40 4 26 3 40 -4 40 -6 0 -11 -6 -11 -12 0 -8 -7 -5 -15
6 -8 11 -15 16 -15 10z"/>
<path d="M1267 1775 c6 -40 10 -52 17 -44 2 2 -3 22 -10 44 l-13 40 6 -40z"/>
<path d="M1288 1658 c18 -27 40 -48 49 -48 12 0 13 3 4 13 -6 8 -8 17 -4 20 3
4 1 7 -5 7 -6 0 -25 12 -43 28 l-33 27 32 -47z"/>
<path d="M1840 2180 c-13 -8 -13 -10 2 -10 9 0 20 5 23 10 8 13 -5 13 -25 0z"/>
<path d="M1860 2106 c0 -7 8 -20 17 -27 15 -12 16 -12 10 4 -4 10 -7 23 -7 28
0 5 -4 9 -10 9 -5 0 -10 -6 -10 -14z"/>
<path d="M1690 1850 c0 -6 12 -15 26 -20 33 -13 34 -13 27 6 -3 8 -12 13 -19
10 -8 -3 -14 -1 -14 4 0 6 -4 10 -10 10 -5 0 -10 -5 -10 -10z"/>
<path d="M1770 1823 c0 -13 8 -23 22 -26 31 -9 32 -4 3 23 -24 23 -25 23 -25
3z"/>
<path d="M1990 2676 c0 -13 -3 -32 -7 -41 -5 -14 -2 -16 16 -10 12 4 28 2 36
-5 11 -9 15 -5 20 24 9 44 1 56 -36 56 -24 0 -29 -4 -29 -24z"/>
<path d="M2207 2661 c4 -16 8 -17 18 -8 15 14 10 27 -10 27 -8 0 -11 -7 -8
-19z"/>
<path d="M2176 2634 c-8 -32 -7 -33 38 -41 36 -6 36 -5 35 28 -2 30 -2 31 -6
6 -4 -24 -8 -26 -31 -21 -35 9 -35 9 -22 33 6 12 7 21 1 21 -5 0 -12 -12 -15
-26z"/>
<path d="M616 2631 c5 -4 21 -11 37 -15 20 -5 27 -3 27 9 0 11 -11 15 -37 15
-22 0 -33 -4 -27 -9z"/>
<path d="M772 2598 c5 -32 28 -35 28 -4 0 17 -5 26 -16 26 -10 0 -14 -7 -12
-22z"/>
<path d="M828 2543 c-18 -5 -31 -30 -22 -44 9 -15 24 -10 24 9 0 10 5 23 12
30 7 7 10 11 8 11 -3 -1 -12 -3 -22 -6z"/>
<path d="M860 2510 c0 -5 7 -10 15 -10 8 0 15 5 15 10 0 6 -7 10 -15 10 -8 0
-15 -4 -15 -10z"/>
<path d="M897 2494 c-13 -13 -7 -24 14 -24 11 0 19 5 17 12 -5 14 -22 21 -31
12z"/>
<path d="M2090 2405 c-7 -8 -8 -15 -2 -15 5 0 15 7 22 15 7 8 8 15 2 15 -5 0
-15 -7 -22 -15z"/>
<path d="M617 2219 c8 -8 16 -8 30 0 16 9 14 10 -11 11 -22 0 -27 -3 -19 -11z"/>
<path d="M406 1514 c-3 -8 -6 -26 -6 -39 0 -19 4 -22 22 -17 12 3 17 7 10 10
-6 2 -12 11 -11 20 0 11 2 12 6 4 6 -16 23 -5 23 15 0 9 -3 13 -7 10 -3 -4
-12 -2 -18 3 -9 8 -14 6 -19 -6z"/>
<path d="M382 1208 c-13 -16 -5 -32 21 -41 20 -7 23 -27 4 -27 -7 0 -19 6 -26
13 -11 10 -13 9 -9 -3 3 -8 17 -16 31 -18 22 -3 27 1 27 18 0 13 -8 24 -20 27
-20 5 -25 15 -13 26 3 4 13 1 21 -6 13 -10 14 -9 10 3 -6 20 -32 24 -46 8z"/>
<path d="M451 1163 c1 -30 4 -37 6 -20 2 15 11 27 19 27 8 0 14 -11 15 -27 l1
-28 8 25 c5 19 2 30 -16 48 -13 12 -26 22 -29 22 -3 0 -4 -21 -4 -47z"/>
<path d="M690 1175 c0 -9 -6 -15 -12 -14 -32 4 -39 -2 -36 -28 2 -22 9 -29 31
-31 26 -3 27 -2 27 42 0 25 -2 46 -5 46 -3 0 -5 -7 -5 -15z m-5 -45 c0 -22
-29 -18 -33 3 -3 14 1 18 15 15 10 -2 18 -10 18 -18z"/>
<path d="M525 1163 c-8 -23 -6 -43 5 -43 6 0 10 9 10 20 0 27 18 25 22 -2 2
-16 10 -24 28 -25 14 -1 18 0 8 3 -10 3 -18 10 -18 15 0 6 9 7 21 4 17 -6 20
-3 17 12 -2 12 -12 18 -31 18 -15 -1 -27 2 -27 5 0 13 -29 6 -35 -7z m82 -9
c-3 -3 -12 -4 -19 -1 -8 3 -5 6 6 6 11 1 17 -2 13 -5z"/>
<path d="M771 1169 c0 -9 -10 -15 -22 -15 -29 1 -47 -27 -30 -48 32 -39 69 -3
58 55 -2 13 -5 17 -6 8z m-8 -36 c9 -9 -13 -34 -24 -27 -14 8 -11 34 4 34 8 0
17 -3 20 -7z"/>
<path d="M920 1151 c0 -5 -10 -11 -22 -13 -17 -2 -24 -11 -26 -30 -2 -16 0
-28 5 -29 4 0 18 -2 31 -3 20 -2 22 2 22 41 0 24 -2 43 -5 43 -3 0 -5 -4 -5
-9z m-7 -27 c9 -10 -4 -34 -19 -34 -8 0 -14 6 -14 13 0 22 19 35 33 21z"/>
<path d="M802 1138 c-27 -27 3 -69 35 -48 16 10 16 11 1 6 -10 -3 -20 -1 -23
4 -4 6 5 10 20 10 23 0 24 2 15 20 -12 23 -30 26 -48 8z m33 -8 c3 -5 -1 -10
-10 -10 -9 0 -13 5 -10 10 3 6 8 10 10 10 2 0 7 -4 10 -10z"/>
<path d="M372 1034 c-24 -17 -28 -44 -10 -62 14 -14 54 -16 63 -2 4 6 -6 7
-25 4 -27 -6 -30 -4 -30 20 0 29 25 45 43 27 14 -14 30 -15 22 -1 -14 23 -42
29 -63 14z"/>
<path d="M451 993 c1 -35 3 -42 8 -24 10 36 31 39 31 4 1 -24 2 -26 11 -10 13
22 5 47 -16 47 -8 0 -15 7 -15 15 0 8 -4 15 -10 15 -5 0 -10 -21 -9 -47z"/>
<path d="M630 973 c0 -37 3 -44 11 -33 8 11 12 12 16 3 9 -23 18 -14 18 17 0
18 -3 26 -9 20 -18 -18 -28 -10 -24 15 3 14 1 25 -3 25 -5 0 -9 -21 -9 -47z"/>
<path d="M520 969 c0 -17 4 -28 10 -24 6 3 10 17 10 31 0 13 -4 24 -10 24 -5
0 -10 -14 -10 -31z"/>
<path d="M560 985 c-18 -21 -5 -45 25 -45 14 0 25 4 25 9 0 5 -9 7 -20 4 -15
-4 -20 0 -20 17 0 17 4 20 21 15 15 -5 19 -4 15 4 -10 15 -31 14 -46 -4z"/>
<path d="M700 975 c-24 -29 18 -72 43 -45 9 10 7 11 -10 5 -14 -4 -23 -2 -23
4 0 6 9 11 20 11 24 0 27 25 4 34 -21 8 -20 8 -34 -9z m35 -5 c3 -5 -1 -10
-10 -10 -9 0 -13 5 -10 10 3 6 8 10 10 10 2 0 7 -4 10 -10z"/>
<path d="M878 950 c-2 -23 0 -44 4 -46 4 -3 8 4 8 15 0 16 6 21 26 21 21 0 25
4 22 23 -2 15 -11 23 -29 25 -25 3 -27 0 -31 -38z m50 12 c2 -7 -6 -12 -17
-12 -21 0 -27 11 -14 24 9 9 26 2 31 -12z"/>
<path d="M771 948 c1 -28 2 -30 7 -10 10 33 26 32 32 -3 6 -29 6 -30 12 -6 8
29 -6 51 -33 51 -15 0 -19 -7 -18 -32z"/>
<path d="M954 949 c-4 -8 0 -9 15 -4 12 4 21 2 21 -4 0 -6 -9 -11 -20 -11 -11
0 -20 -7 -20 -15 0 -8 5 -15 11 -15 5 0 7 5 4 10 -3 6 1 10 10 10 9 0 14 -4
10 -9 -3 -5 -1 -12 4 -15 10 -6 20 33 13 52 -5 15 -38 16 -48 1z"/>
<path d="M1089 955 c-7 -6 2 -75 10 -75 3 0 6 15 6 34 0 34 -7 51 -16 41z"/>
<path d="M1025 939 c-4 -6 1 -17 11 -25 17 -14 17 -15 2 -10 -10 3 -18 1 -18
-4 0 -6 11 -10 25 -10 30 0 31 7 8 33 -17 19 -17 20 0 14 11 -4 16 -3 12 3 -8
13 -32 13 -40 -1z"/>
<path d="M1235 914 c-3 -20 -4 -38 -2 -41 9 -8 57 -11 57 -2 0 4 3 16 7 26 6
17 6 17 -14 1 -22 -20 -43 -23 -43 -7 0 6 6 9 13 6 15 -6 41 29 32 43 -4 6
-14 10 -24 10 -14 0 -21 -10 -26 -36z m35 16 c0 -5 -4 -10 -10 -10 -5 0 -10 5
-10 10 0 6 5 10 10 10 6 0 10 -4 10 -10z"/>
<path d="M1130 931 c0 -6 6 -8 13 -5 7 2 13 -4 14 -16 1 -13 -4 -20 -15 -20
-15 0 -15 2 -2 10 13 8 12 10 -3 10 -29 0 -14 -25 17 -28 25 -3 27 -1 24 25
-2 20 -9 29 -25 31 -13 2 -23 -1 -23 -7z"/>
<path d="M340 851 c0 -11 9 -23 20 -26 29 -9 25 -28 -5 -21 -29 8 -33 1 -6
-13 13 -7 24 -6 37 4 18 14 18 15 -11 40 l-30 26 28 -6 c19 -4 26 -2 22 5 -3
5 -17 10 -31 10 -17 0 -24 -6 -24 -19z"/>
<path d="M434 831 c19 -7 19 -8 -2 -13 -31 -8 -29 -38 2 -38 16 0 27 7 31 20
8 26 -1 40 -28 39 -21 0 -21 -1 -3 -8z m16 -31 c0 -5 -7 -10 -16 -10 -8 0 -12
5 -9 10 3 6 10 10 16 10 5 0 9 -4 9 -10z"/>
<path d="M486 828 c-14 -29 -3 -53 27 -56 25 -3 27 -1 26 30 l-1 33 -10 -27
c-13 -37 -26 -35 -30 5 -3 24 -6 28 -12 15z"/>
<path d="M750 826 c0 -8 -10 -16 -22 -18 -35 -5 -32 -52 3 -56 25 -3 27 0 31
38 2 23 0 44 -4 46 -4 3 -8 -2 -8 -10z m-4 -37 c10 -17 -13 -36 -27 -22 -12
12 -4 33 11 33 5 0 12 -5 16 -11z"/>
<path d="M560 816 c-24 -30 18 -74 43 -46 10 10 8 12 -5 7 -20 -7 -32 8 -24
30 5 13 9 13 23 2 14 -12 16 -12 11 1 -7 21 -32 24 -48 6z"/>
<path d="M814 801 c3 -18 6 -40 6 -47 0 -23 18 -16 34 14 l15 27 7 -32 c3 -18
10 -33 13 -33 7 0 41 64 41 75 0 16 -18 1 -27 -22 l-11 -28 -7 33 c-9 39 -18
40 -35 5 l-14 -28 -4 25 c-2 14 -8 30 -14 35 -7 7 -9 0 -4 -24z"/>
<path d="M631 806 c-22 -26 11 -64 40 -45 10 6 8 9 -11 10 -23 1 -21 2 19 15
11 3 11 7 1 19 -16 19 -34 19 -49 1z m39 -6 c0 -5 -4 -10 -9 -10 -6 0 -13 5
-16 10 -3 6 1 10 9 10 9 0 16 -4 16 -10z"/>
<path d="M941 758 c0 -28 2 -30 9 -13 12 28 12 45 0 45 -5 0 -10 -15 -9 -32z"/>
<path d="M971 748 l1 -33 11 28 c13 31 33 30 30 -2 -2 -11 2 -21 7 -21 6 0 10
14 10 30 0 27 -3 30 -30 30 -27 0 -30 -3 -29 -32z"/>
<path d="M1055 763 c-8 -8 -15 -18 -15 -22 0 -14 29 -33 40 -26 5 3 10 1 10
-6 0 -6 -8 -9 -20 -6 -22 6 -28 -8 -7 -16 22 -8 35 5 42 44 6 31 4 37 -14 42
-12 3 -28 -1 -36 -10z m35 -19 c0 -8 -7 -14 -15 -14 -15 0 -21 21 -9 33 10 9
24 -2 24 -19z"/>
<path d="M1130 756 c0 -8 -3 -21 -6 -29 -7 -18 25 -32 40 -17 8 8 6 15 -6 24
-22 16 -23 30 -2 22 8 -3 12 -2 9 4 -9 15 -35 12 -35 -4z m30 -30 c0 -11 -19
-15 -25 -6 -3 5 1 10 9 10 9 0 16 -2 16 -4z"/>
<path d="M1150 568 c-34 -19 -70 -75 -70 -112 0 -43 34 -95 73 -110 17 -7 127
-23 242 -35 116 -12 272 -29 349 -37 161 -18 196 -14 230 26 49 58 42 140 -15
181 -31 22 -35 22 -524 74 -252 26 -258 27 -285 13z m205 -120 c4 -14 8 -18
12 -10 2 6 13 12 23 12 10 0 21 6 23 13 3 6 6 1 6 -12 1 -17 4 -21 14 -14 6 6
20 13 30 16 14 5 17 0 17 -28 0 -31 -3 -35 -25 -35 -14 0 -25 3 -25 8 0 4 -21
8 -48 9 -26 2 -55 3 -64 3 -21 1 -21 2 -6 35 14 31 33 32 43 3z m213 -18 c19
0 23 -5 20 -22 -4 -32 -36 -35 -47 -6 l-10 23 0 -23 c-1 -30 -21 -18 -21 12 0
28 10 40 24 26 5 -5 21 -10 34 -10z m102 -22 c0 -6 -7 -8 -15 -4 -8 3 -15 1
-15 -4 0 -6 9 -10 20 -10 12 0 20 7 20 16 0 24 35 12 38 -14 3 -21 -8 -28 -33
-22 -5 1 -21 3 -35 4 -27 1 -41 33 -19 46 15 10 39 2 39 -12z m115 -23 c0 -14
-4 -24 -10 -22 -5 2 -9 12 -9 21 2 24 -15 20 -26 -6 -8 -22 -9 -22 -9 4 -1 20
4 27 22 30 28 5 30 3 32 -27z"/>
<path d="M1385 431 c-3 -5 -1 -12 5 -16 5 -3 10 1 10 9 0 18 -6 21 -15 7z"/>
<path d="M1440 420 c0 -5 5 -10 10 -10 6 0 10 5 10 10 0 6 -4 10 -10 10 -5 0
-10 -4 -10 -10z"/>
<path d="M1556 411 c-4 -5 -2 -12 3 -15 5 -4 12 -2 15 3 4 5 2 12 -3 15 -5 4
-12 2 -15 -3z"/>
<path d="M590 546 c-9 -12 -7 -13 9 -9 27 7 27 -9 1 -32 -27 -25 -25 -35 8
-34 23 0 24 2 8 8 -14 5 -16 10 -8 15 7 4 16 16 22 26 14 25 -21 48 -40 26z"/>
<path d="M350 540 c0 -5 18 -10 41 -10 24 0 38 4 34 10 -3 6 -22 10 -41 10
-19 0 -34 -4 -34 -10z"/>
<path d="M821 528 c-1 -11 -9 -18 -21 -18 -11 0 -20 -4 -20 -10 0 -5 7 -10 15
-10 8 0 15 -7 15 -15 0 -8 5 -15 10 -15 6 0 10 5 10 10 0 6 7 10 15 10 8 0 15
5 15 10 0 6 -5 10 -10 10 -6 0 -15 10 -20 23 -7 17 -9 18 -9 5z"/>
</g>
</svg>
