<svg xmlns="http://www.w3.org/2000/svg" viewBox="0 0 250 250" width="250" height="250" preserveAspectRatio="xMidYMid meet" style="width: 100%; height: 100%; transform: translate3d(0px, 0px, 0px); content-visibility: visible;"><defs><clipPath id="__lottie_element_320"><rect width="250" height="250" x="0" y="0"/></clipPath><linearGradient id="__lottie_element_327" spreadMethod="pad" gradientUnits="userSpaceOnUse" x1="-26711.5703125" y1="-14989.7001953125" x2="-54" y2="66.5"><stop offset="0%" stop-color="rgb(223,42,68)"/><stop offset="50%" stop-color="rgb(170,53,157)"/><stop offset="100%" stop-color="rgb(117,63,246)"/></linearGradient><linearGradient id="__lottie_element_331" spreadMethod="pad" gradientUnits="userSpaceOnUse" x1="36.42300033569336" y1="-19.333999633789062" x2="-5.13700008392334" y2="7.505000114440918"><stop offset="0%" stop-color="rgb(223,42,68)"/><stop offset="50%" stop-color="rgb(170,53,157)"/><stop offset="100%" stop-color="rgb(117,63,246)"/></linearGradient></defs><g clip-path="url(#__lottie_element_320)"><g transform="matrix(1,0,0,1,-125.00000762939453,-125.00001525878906)" opacity="1" style="display: block;"><g opacity="1" transform="matrix(1,0,0,1,232.75100708007812,288.5840148925781)"><path fill="rgb(223,42,68)" fill-opacity="1" d=" M43.68199920654297,-50.76599884033203 C50.54999923706055,-50.742000579833984 55.428001403808594,-50.696998596191406 58.31399917602539,-50.63199996948242 C59.534000396728516,-50.60499954223633 60.41600036621094,-50.571998596191406 60.96200180053711,-50.53799819946289 C61.433998107910156,-50.507999420166016 61.75899887084961,-50.46699905395508 61.93899917602539,-50.433998107910156 C61.93899917602539,-50.433998107910156 61.93899917602539,-50.433998107910156 61.93899917602539,-50.433998107910156 C61.93899917602539,-50.433998107910156 64.06500244140625,-50.04899978637695 64.06500244140625,-50.04899978637695 C64.06500244140625,-50.04899978637695 64.06500244140625,-19.448999404907227 64.06500244140625,-19.448999404907227 C66.6259994506836,-18.506999969482422 68.77400207519531,-16.825000762939453 70.29900360107422,-14.696999549865723 C72.16100311279297,-12.097999572753906 73.09400177001953,-8.831999778747559 72.71399688720703,-5.440000057220459 C72.71399688720703,-5.440000057220459 72.71399688720703,-5.440000057220459 72.71399688720703,-5.440000057220459 C72.71399688720703,-5.440000057220459 67.78500366210938,38.89400100708008 67.78500366210938,38.89400100708008 C67.40899658203125,42.27399826049805 65.79199981689453,45.242000579833984 63.417999267578125,47.3650016784668 C61.04499816894531,49.487998962402344 57.91400146484375,50.76599884033203 54.51300048828125,50.76599884033203 C54.51300048828125,50.76599884033203 54.51300048828125,50.76599884033203 54.51300048828125,50.76599884033203 C54.51300048828125,50.76599884033203 -54.479000091552734,50.76599884033203 -54.479000091552734,50.76599884033203 C-57.891998291015625,50.775001525878906 -61.034000396728516,49.49599838256836 -63.415000915527344,47.367000579833984 C-65.7959976196289,45.237998962402344 -67.41699981689453,42.25899887084961 -67.78700256347656,38.874000549316406 C-67.78700256347656,38.874000549316406 -67.78700256347656,38.874000549316406 -67.78700256347656,38.874000549316406 C-67.78700256347656,38.874000549316406 -72.71499633789062,-5.460999965667725 -72.71499633789062,-5.460999965667725 C-73.09300231933594,-8.868000030517578 -72.1500015258789,-12.140999794006348 -70.27400207519531,-14.741000175476074 C-68.73999786376953,-16.867000579833984 -66.58300018310547,-18.542999267578125 -64.01499938964844,-19.47599983215332 C-64.01499938964844,-19.47599983215332 -64.01499938964844,-19.47599983215332 -64.01499938964844,-19.47599983215332 C-64.01499938964844,-19.47599983215332 -64.01499938964844,-49.505001068115234 -64.01499938964844,-49.505001068115234 C-63.01100158691406,-50.104000091552734 -62.40599822998047,-50.50400161743164 -60.891998291015625,-50.590999603271484 C-60.34700012207031,-50.62200164794922 -59.46699905395508,-50.650001525878906 -58.25,-50.672000885009766 C-55.893001556396484,-50.7140007019043 -52.20399856567383,-50.73899841308594 -47.1870002746582,-50.74399948120117 C-47.1870002746582,-50.74399948120117 -46.04999923706055,-50.74399948120117 -46.04999923706055,-50.74399948120117 C-45.277000427246094,-50.74399948120117 -44.47600173950195,-50.74399948120117 -43.64500045776367,-50.74399948120117 C-43.64500045776367,-50.74399948120117 -43.64500045776367,-50.74399948120117 -43.64500045776367,-50.74399948120117 C-43.64500045776367,-50.74399948120117 -43.64500045776367,-20.267000198364258 -43.64500045776367,-20.267000198364258 C-43.64500045776367,-20.267000198364258 43.68199920654297,-20.267000198364258 43.68199920654297,-20.267000198364258 C43.68199920654297,-20.267000198364258 43.68199920654297,-50.76599884033203 43.68199920654297,-50.76599884033203z"/><path stroke-linecap="butt" stroke-linejoin="miter" fill-opacity="0" stroke-miterlimit="4" stroke="rgb(255,255,255)" stroke-opacity="1" stroke-width="7.7" d=" M43.68199920654297,-50.76599884033203 C50.54999923706055,-50.742000579833984 55.428001403808594,-50.696998596191406 58.31399917602539,-50.63199996948242 C59.534000396728516,-50.60499954223633 60.41600036621094,-50.571998596191406 60.96200180053711,-50.53799819946289 C61.433998107910156,-50.507999420166016 61.75899887084961,-50.46699905395508 61.93899917602539,-50.433998107910156 C61.93899917602539,-50.433998107910156 61.93899917602539,-50.433998107910156 61.93899917602539,-50.433998107910156 C61.93899917602539,-50.433998107910156 64.06500244140625,-50.04899978637695 64.06500244140625,-50.04899978637695 C64.06500244140625,-50.04899978637695 64.06500244140625,-19.448999404907227 64.06500244140625,-19.448999404907227 C66.6259994506836,-18.506999969482422 68.77400207519531,-16.825000762939453 70.29900360107422,-14.696999549865723 C72.16100311279297,-12.097999572753906 73.09400177001953,-8.831999778747559 72.71399688720703,-5.440000057220459 C72.71399688720703,-5.440000057220459 72.71399688720703,-5.440000057220459 72.71399688720703,-5.440000057220459 C72.71399688720703,-5.440000057220459 67.78500366210938,38.89400100708008 67.78500366210938,38.89400100708008 C67.40899658203125,42.27399826049805 65.79199981689453,45.242000579833984 63.417999267578125,47.3650016784668 C61.04499816894531,49.487998962402344 57.91400146484375,50.76599884033203 54.51300048828125,50.76599884033203 C54.51300048828125,50.76599884033203 54.51300048828125,50.76599884033203 54.51300048828125,50.76599884033203 C54.51300048828125,50.76599884033203 -54.479000091552734,50.76599884033203 -54.479000091552734,50.76599884033203 C-57.891998291015625,50.775001525878906 -61.034000396728516,49.49599838256836 -63.415000915527344,47.367000579833984 C-65.7959976196289,45.237998962402344 -67.41699981689453,42.25899887084961 -67.78700256347656,38.874000549316406 C-67.78700256347656,38.874000549316406 -67.78700256347656,38.874000549316406 -67.78700256347656,38.874000549316406 C-67.78700256347656,38.874000549316406 -72.71499633789062,-5.460999965667725 -72.71499633789062,-5.460999965667725 C-73.09300231933594,-8.868000030517578 -72.1500015258789,-12.140999794006348 -70.27400207519531,-14.741000175476074 C-68.73999786376953,-16.867000579833984 -66.58300018310547,-18.542999267578125 -64.01499938964844,-19.47599983215332 C-64.01499938964844,-19.47599983215332 -64.01499938964844,-19.47599983215332 -64.01499938964844,-19.47599983215332 C-64.01499938964844,-19.47599983215332 -64.01499938964844,-49.505001068115234 -64.01499938964844,-49.505001068115234 C-63.01100158691406,-50.104000091552734 -62.40599822998047,-50.50400161743164 -60.891998291015625,-50.590999603271484 C-60.34700012207031,-50.62200164794922 -59.46699905395508,-50.650001525878906 -58.25,-50.672000885009766 C-55.893001556396484,-50.7140007019043 -52.20399856567383,-50.73899841308594 -47.1870002746582,-50.74399948120117 C-47.1870002746582,-50.74399948120117 -46.04999923706055,-50.74399948120117 -46.04999923706055,-50.74399948120117 C-45.277000427246094,-50.74399948120117 -44.47600173950195,-50.74399948120117 -43.64500045776367,-50.74399948120117 C-43.64500045776367,-50.74399948120117 -43.64500045776367,-50.74399948120117 -43.64500045776367,-50.74399948120117 C-43.64500045776367,-50.74399948120117 -43.64500045776367,-20.267000198364258 -43.64500045776367,-20.267000198364258 C-43.64500045776367,-20.267000198364258 43.68199920654297,-20.267000198364258 43.68199920654297,-20.267000198364258 C43.68199920654297,-20.267000198364258 43.68199920654297,-50.76599884033203 43.68199920654297,-50.76599884033203z"/></g></g><g transform="matrix(1,0,0,1,-125.00000762939453,-125)" opacity="1" style="display: block;"><g opacity="1" transform="matrix(1,0,0,1,233.31100463867188,304)"><path fill="rgb(255,255,255)" fill-opacity="1" d=" M13.585000038146973,-5.90500020980835 C13.585000038146973,-5.90500020980835 7.827000141143799,-5.90500020980835 7.827000141143799,-5.90500020980835 C7.423999786376953,-5.90500020980835 7.064000129699707,-6.15500020980835 6.921999931335449,-6.5329999923706055 C6.921999931335449,-6.5329999923706055 3.6419999599456787,-15.232000350952148 3.6419999599456787,-15.232000350952148 C3.617000102996826,-15.29800033569336 3.5869998931884766,-15.362000465393066 3.552999973297119,-15.42300033569336 C2.806999921798706,-16.739999771118164 1.3990000486373901,-17.538000106811523 -0.10899999737739563,-17.499000549316406 C-1.6169999837875366,-17.459999084472656 -2.9809999465942383,-16.59000015258789 -3.6579999923706055,-15.236000061035156 C-3.6579999923706055,-15.236000061035156 -6.941999912261963,-6.5329999923706055 -6.941999912261963,-6.5329999923706055 C-7.085999965667725,-6.1539998054504395 -7.447000026702881,-5.9039998054504395 -7.85099983215332,-5.90500020980835 C-7.85099983215332,-5.90500020980835 -13.61299991607666,-5.90500020980835 -13.61299991607666,-5.90500020980835 C-15.196000099182129,-5.940000057220459 -16.636999130249023,-4.992000102996826 -17.238000869750977,-3.5199999809265137 C-17.8439998626709,-1.9210000038146973 -17.375999450683594,-0.11299999803304672 -16.07200050354004,0.9869999885559082 C-16.07200050354004,0.9869999885559082 -11.281999588012695,4.340000152587891 -11.281999588012695,4.340000152587891 C-10.911999702453613,4.604000091552734 -10.772000312805176,5.090000152587891 -10.946999549865723,5.511000156402588 C-10.946999549865723,5.511000156402588 -13.729000091552734,11.934000015258789 -13.729000091552734,11.934000015258789 C-14.420999526977539,13.491000175476074 -14.026000022888184,15.321000099182129 -12.753999710083008,16.450000762939453 C-11.479000091552734,17.625999450683594 -9.592000007629395,17.836000442504883 -8.092000007629395,16.9689998626709 C-8.092000007629395,16.9689998626709 -0.4880000054836273,12.675999641418457 -0.4880000054836273,12.675999641418457 C-0.19300000369548798,12.508000373840332 0.16899999976158142,12.508000373840332 0.46399998664855957,12.675999641418457 C0.46399998664855957,12.675999641418457 8.064000129699707,16.9689998626709 8.064000129699707,16.9689998626709 C8.668999671936035,17.315000534057617 9.352999687194824,17.49799919128418 10.048999786376953,17.5 C11.038000106811523,17.496999740600586 11.991000175476074,17.12299919128418 12.718999862670898,16.450000762939453 C13.991999626159668,15.321000099182129 14.38599967956543,13.491000175476074 13.694000244140625,11.934000015258789 C13.694000244140625,11.934000015258789 10.907999992370605,5.502999782562256 10.907999992370605,5.502999782562256 C10.732000350952148,5.081999778747559 10.871000289916992,4.59499979019165 11.241999626159668,4.331999778747559 C11.241999626159668,4.331999778747559 16.292999267578125,0.7770000100135803 16.292999267578125,0.7770000100135803 C17.444000244140625,-0.33000001311302185 17.812000274658203,-2.0290000438690186 17.222000122070312,-3.5160000324249268 C16.618999481201172,-4.992000102996826 15.17300033569336,-5.941999912261963 13.585000038146973,-5.90500020980835 C13.585000038146973,-5.90500020980835 13.585000038146973,-5.90500020980835 13.585000038146973,-5.90500020980835z"/></g></g><g transform="matrix(1,0,0,1,-125,-124.99999237060547)" opacity="1" style="display: block;"><path fill="rgb(223,42,68)" fill-opacity="1" d=" M289.01800537109375,179.64999389648438 C291.6090087890625,179.6490020751953 294.0740051269531,180.42599487304688 296.1409912109375,181.80099487304688 C298.2070007324219,183.1750030517578 299.875,185.14599609375 300.8760070800781,187.53399658203125 C300.8760070800781,187.53399658203125 300.8760070800781,187.53399658203125 300.8760070800781,187.53399658203125 C300.8760070800781,187.53399658203125 312.47900390625,215.22799682617188 312.47900390625,215.22799682617188 C312.7340087890625,219.31300354003906 312.7149963378906,222.66099548339844 312.447998046875,225.2729949951172 C312.02801513671875,229.3780059814453 309.0889892578125,239.26300048828125 299.3529968261719,244.38800048828125 C293.2590026855469,247.5959930419922 286.2640075683594,247.9459991455078 278.3389892578125,245.1280059814453 C277.2720031738281,244.75 276.38299560546875,244.05799865722656 275.7590026855469,243.177001953125 C275.135986328125,242.29600524902344 274.77801513671875,241.2270050048828 274.7760009765625,240.08900451660156 C274.7760009765625,240.08900451660156 274.7760009765625,240.08900451660156 274.7760009765625,240.08900451660156 C274.7760009765625,240.08900451660156 274.7760009765625,217.39700317382812 274.7760009765625,217.39700317382812 C274.7760009765625,217.39700317382812 266.4119873046875,186.39300537109375 266.4119873046875,186.39300537109375 C266.0270080566406,184.9669952392578 266.2560119628906,183.52000427246094 266.9389953613281,182.33299255371094 C267.7200012207031,180.97500610351562 269.0950012207031,179.95799255371094 270.8190002441406,179.7030029296875 C270.8190002441406,179.7030029296875 270.8190002441406,179.7030029296875 270.8190002441406,179.7030029296875 C270.8190002441406,179.7030029296875 289.01800537109375,179.64999389648438 289.01800537109375,179.64999389648438z"/><path stroke-linecap="butt" stroke-linejoin="miter" fill-opacity="0" stroke-miterlimit="4" stroke="rgb(255,255,255)" stroke-opacity="1" stroke-width="7.7" d=" M289.01800537109375,179.64999389648438 C291.6090087890625,179.6490020751953 294.0740051269531,180.42599487304688 296.1409912109375,181.80099487304688 C298.2070007324219,183.1750030517578 299.875,185.14599609375 300.8760070800781,187.53399658203125 C300.8760070800781,187.53399658203125 300.8760070800781,187.53399658203125 300.8760070800781,187.53399658203125 C300.8760070800781,187.53399658203125 312.47900390625,215.22799682617188 312.47900390625,215.22799682617188 C312.7340087890625,219.31300354003906 312.7149963378906,222.66099548339844 312.447998046875,225.2729949951172 C312.02801513671875,229.3780059814453 309.0889892578125,239.26300048828125 299.3529968261719,244.38800048828125 C293.2590026855469,247.5959930419922 286.2640075683594,247.9459991455078 278.3389892578125,245.1280059814453 C277.2720031738281,244.75 276.38299560546875,244.05799865722656 275.7590026855469,243.177001953125 C275.135986328125,242.29600524902344 274.77801513671875,241.2270050048828 274.7760009765625,240.08900451660156 C274.7760009765625,240.08900451660156 274.7760009765625,240.08900451660156 274.7760009765625,240.08900451660156 C274.7760009765625,240.08900451660156 274.7760009765625,217.39700317382812 274.7760009765625,217.39700317382812 C274.7760009765625,217.39700317382812 266.4119873046875,186.39300537109375 266.4119873046875,186.39300537109375 C266.0270080566406,184.9669952392578 266.2560119628906,183.52000427246094 266.9389953613281,182.33299255371094 C267.7200012207031,180.97500610351562 269.0950012207031,179.95799255371094 270.8190002441406,179.7030029296875 C270.8190002441406,179.7030029296875 270.8190002441406,179.7030029296875 270.8190002441406,179.7030029296875 C270.8190002441406,179.7030029296875 289.01800537109375,179.64999389648438 289.01800537109375,179.64999389648438z"/><g opacity="1" transform="matrix(1,0,0,1,0,0)"/></g><g transform="matrix(1,0,0,1,-125,-124.99999237060547)" opacity="1" style="display: block;"><path fill="rgb(223,42,68)" fill-opacity="1" d=" M258.3110046386719,179.64999389648438 C259.5429992675781,179.64999389648438 260.6969909667969,180.06500244140625 261.6210021972656,180.77699279785156 C262.5429992675781,181.48699951171875 263.23699951171875,182.49400329589844 263.552001953125,183.67999267578125 C263.8689880371094,184.83999633789062 264.5260009765625,187.2270050048828 265.8909912109375,192.1840057373047 C267.302001953125,197.3090057373047 269.468994140625,205.17799377441406 272.7969970703125,217.27099609375 C272.7969970703125,217.27099609375 272.7969970703125,217.27099609375 272.7969970703125,217.27099609375 C272.7969970703125,217.27099609375 272.8590087890625,245.1999969482422 272.8590087890625,245.1999969482422 C267.406005859375,249.5189971923828 260.93798828125,252.01199340820312 254.18299865722656,252.5399932861328 C248.11000061035156,253.0540008544922 242.01100158691406,251.91700744628906 236.531005859375,249.25 C235.5970001220703,248.7949981689453 234.8350067138672,248.093994140625 234.30499267578125,247.2469940185547 C233.7760009765625,246.39999389648438 233.47900390625,245.40699768066406 233.47900390625,244.3679962158203 C233.47900390625,244.3679962158203 233.47900390625,244.3679962158203 233.47900390625,244.3679962158203 C233.47900390625,244.3679962158203 233.48500061035156,218.5030059814453 233.48500061035156,218.5030059814453 C233.48500061035156,218.5030059814453 233.49200439453125,185.08299255371094 233.49200439453125,185.08299255371094 C233.49200439453125,183.58200073242188 234.10000610351562,182.2239990234375 235.08399963378906,181.24099731445312 C236.06700134277344,180.25799560546875 237.42599487304688,179.64999389648438 238.92599487304688,179.64999389648438 C238.92599487304688,179.64999389648438 238.92599487304688,179.64999389648438 238.92599487304688,179.64999389648438 C238.92599487304688,179.64999389648438 258.3110046386719,179.64999389648438 258.3110046386719,179.64999389648438z"/><path stroke-linecap="butt" stroke-linejoin="miter" fill-opacity="0" stroke-miterlimit="4" stroke="rgb(255,255,255)" stroke-opacity="1" stroke-width="7.7" d=" M258.3110046386719,179.64999389648438 C259.5429992675781,179.64999389648438 260.6969909667969,180.06500244140625 261.6210021972656,180.77699279785156 C262.5429992675781,181.48699951171875 263.23699951171875,182.49400329589844 263.552001953125,183.67999267578125 C263.8689880371094,184.83999633789062 264.5260009765625,187.2270050048828 265.8909912109375,192.1840057373047 C267.302001953125,197.3090057373047 269.468994140625,205.17799377441406 272.7969970703125,217.27099609375 C272.7969970703125,217.27099609375 272.7969970703125,217.27099609375 272.7969970703125,217.27099609375 C272.7969970703125,217.27099609375 272.8590087890625,245.1999969482422 272.8590087890625,245.1999969482422 C267.406005859375,249.5189971923828 260.93798828125,252.01199340820312 254.18299865722656,252.5399932861328 C248.11000061035156,253.0540008544922 242.01100158691406,251.91700744628906 236.531005859375,249.25 C235.5970001220703,248.7949981689453 234.8350067138672,248.093994140625 234.30499267578125,247.2469940185547 C233.7760009765625,246.39999389648438 233.47900390625,245.40699768066406 233.47900390625,244.3679962158203 C233.47900390625,244.3679962158203 233.47900390625,244.3679962158203 233.47900390625,244.3679962158203 C233.47900390625,244.3679962158203 233.48500061035156,218.5030059814453 233.48500061035156,218.5030059814453 C233.48500061035156,218.5030059814453 233.49200439453125,185.08299255371094 233.49200439453125,185.08299255371094 C233.49200439453125,183.58200073242188 234.10000610351562,182.2239990234375 235.08399963378906,181.24099731445312 C236.06700134277344,180.25799560546875 237.42599487304688,179.64999389648438 238.92599487304688,179.64999389648438 C238.92599487304688,179.64999389648438 238.92599487304688,179.64999389648438 238.92599487304688,179.64999389648438 C238.92599487304688,179.64999389648438 258.3110046386719,179.64999389648438 258.3110046386719,179.64999389648438z"/><g opacity="1" transform="matrix(1,0,0,1,0,0)"/></g><g transform="matrix(1,0,0,1,-125,-124.99999237060547)" opacity="1" style="display: block;"><path fill="rgb(223,42,68)" fill-opacity="1" d=" M226.25,179.64999389648438 C227.6909942626953,179.64700317382812 229.0749969482422,180.21600341796875 230.0959930419922,181.23300170898438 C231.1199951171875,182.2530059814453 231.69500732421875,183.63800048828125 231.69500732421875,185.08299255371094 C231.69500732421875,185.08299255371094 231.69500732421875,185.08299255371094 231.69500732421875,185.08299255371094 C231.69500732421875,185.08299255371094 231.69500732421875,244.41400146484375 231.69500732421875,244.41400146484375 C231.69500732421875,245.45199584960938 231.3990020751953,246.44400024414062 230.8699951171875,247.29100036621094 C230.33999633789062,248.13800048828125 229.57699584960938,248.83900451660156 228.6490020751953,249.29100036621094 C224.05599975585938,251.53599548339844 219.00900268554688,252.69700622558594 213.89599609375,252.6840057373047 C212.9429931640625,252.6840057373047 211.9969940185547,252.6479949951172 211.04299926757812,252.56900024414062 C205.2310028076172,252.07699584960938 199.63499450683594,250.14199829101562 194.75999450683594,246.9409942626953 C193.22900390625,245.93899536132812 192.3040008544922,244.23500061035156 192.30099487304688,242.4040069580078 C192.30099487304688,242.4040069580078 192.30099487304688,242.4040069580078 192.30099487304688,242.4040069580078 C192.30099487304688,242.4040069580078 192.30099487304688,217.70599365234375 192.30099487304688,217.70599365234375 C196.5850067138672,201.9239959716797 198.9499969482422,193.3769989013672 200.2689971923828,188.60800170898438 C200.99899291992188,185.97000122070312 201.4080047607422,184.49200439453125 201.63499450683594,183.65899658203125 C201.94900512695312,182.4980010986328 202.62600708007812,181.50999450683594 203.5260009765625,180.80499267578125 C204.4429931640625,180.08599853515625 205.58999633789062,179.66299438476562 206.81900024414062,179.64999389648438 C206.81900024414062,179.64999389648438 206.81900024414062,179.64999389648438 206.81900024414062,179.64999389648438 C206.81900024414062,179.64999389648438 226.25,179.64999389648438 226.25,179.64999389648438z"/><path stroke-linecap="butt" stroke-linejoin="miter" fill-opacity="0" stroke-miterlimit="4" stroke="rgb(255,255,255)" stroke-opacity="1" stroke-width="7.7" d=" M226.25,179.64999389648438 C227.6909942626953,179.64700317382812 229.0749969482422,180.21600341796875 230.0959930419922,181.23300170898438 C231.1199951171875,182.2530059814453 231.69500732421875,183.63800048828125 231.69500732421875,185.08299255371094 C231.69500732421875,185.08299255371094 231.69500732421875,185.08299255371094 231.69500732421875,185.08299255371094 C231.69500732421875,185.08299255371094 231.69500732421875,244.41400146484375 231.69500732421875,244.41400146484375 C231.69500732421875,245.45199584960938 231.3990020751953,246.44400024414062 230.8699951171875,247.29100036621094 C230.33999633789062,248.13800048828125 229.57699584960938,248.83900451660156 228.6490020751953,249.29100036621094 C224.05599975585938,251.53599548339844 219.00900268554688,252.69700622558594 213.89599609375,252.6840057373047 C212.9429931640625,252.6840057373047 211.9969940185547,252.6479949951172 211.04299926757812,252.56900024414062 C205.2310028076172,252.07699584960938 199.63499450683594,250.14199829101562 194.75999450683594,246.9409942626953 C193.22900390625,245.93899536132812 192.3040008544922,244.23500061035156 192.30099487304688,242.4040069580078 C192.30099487304688,242.4040069580078 192.30099487304688,242.4040069580078 192.30099487304688,242.4040069580078 C192.30099487304688,242.4040069580078 192.30099487304688,217.70599365234375 192.30099487304688,217.70599365234375 C196.5850067138672,201.9239959716797 198.9499969482422,193.3769989013672 200.2689971923828,188.60800170898438 C200.99899291992188,185.97000122070312 201.4080047607422,184.49200439453125 201.63499450683594,183.65899658203125 C201.94900512695312,182.4980010986328 202.62600708007812,181.50999450683594 203.5260009765625,180.80499267578125 C204.4429931640625,180.08599853515625 205.58999633789062,179.66299438476562 206.81900024414062,179.64999389648438 C206.81900024414062,179.64999389648438 206.81900024414062,179.64999389648438 206.81900024414062,179.64999389648438 C206.81900024414062,179.64999389648438 226.25,179.64999389648438 226.25,179.64999389648438z"/><g opacity="1" transform="matrix(1,0,0,1,0,0)"/></g><g transform="matrix(1,0,0,1,-125,-124.99999237060547)" opacity="1" style="display: block;"><path fill="rgb(223,42,68)" fill-opacity="1" d=" M194.0800018310547,179.64999389648438 C196.96600341796875,180.1269989013672 197.75999450683594,181.27099609375 198.37100219726562,182.33299255371094 C199.0540008544922,183.52000427246094 199.28399658203125,184.96800231933594 198.8990020751953,186.3939971923828 C198.8990020751953,186.3939971923828 198.8990020751953,186.3939971923828 198.8990020751953,186.3939971923828 C198.8990020751953,186.3939971923828 190.53500366210938,217.3979949951172 190.53500366210938,217.3979949951172 C190.53500366210938,217.3979949951172 190.53500366210938,240.0959930419922 190.53500366210938,240.0959930419922 C190.5330047607422,241.2270050048828 190.1750030517578,242.29600524902344 189.552001953125,243.177001953125 C188.92799377441406,244.05799865722656 188.03900146484375,244.75100708007812 186.9770050048828,245.1269989013672 C179.0469970703125,247.94700622558594 172.052001953125,247.5959930419922 165.95799255371094,244.38800048828125 C156.2220001220703,239.26300048828125 153.28199768066406,229.3780059814453 152.86199951171875,225.2729949951172 C152.59500122070312,222.66099548339844 152.57699584960938,219.31300354003906 152.83200073242188,215.22799682617188 C152.83200073242188,215.22799682617188 152.83200073242188,215.22799682617188 152.83200073242188,215.22799682617188 C152.83200073242188,215.22799682617188 164.43499755859375,187.53399658203125 164.43499755859375,187.53399658203125 C165.43600463867188,185.14599609375 167.10299682617188,183.1750030517578 169.16900634765625,181.80099487304688 C171.23500061035156,180.427001953125 173.697998046875,179.64999389648438 176.28700256347656,179.64999389648438 C176.28700256347656,179.64999389648438 176.28700256347656,179.64999389648438 176.28700256347656,179.64999389648438 C176.28700256347656,179.64999389648438 194.0800018310547,179.64999389648438 194.0800018310547,179.64999389648438z"/><path stroke-linecap="butt" stroke-linejoin="miter" fill-opacity="0" stroke-miterlimit="4" stroke="rgb(255,255,255)" stroke-opacity="1" stroke-width="7.7" d=" M194.0800018310547,179.64999389648438 C196.96600341796875,180.1269989013672 197.75999450683594,181.27099609375 198.37100219726562,182.33299255371094 C199.0540008544922,183.52000427246094 199.28399658203125,184.96800231933594 198.8990020751953,186.3939971923828 C198.8990020751953,186.3939971923828 198.8990020751953,186.3939971923828 198.8990020751953,186.3939971923828 C198.8990020751953,186.3939971923828 190.53500366210938,217.3979949951172 190.53500366210938,217.3979949951172 C190.53500366210938,217.3979949951172 190.53500366210938,240.0959930419922 190.53500366210938,240.0959930419922 C190.5330047607422,241.2270050048828 190.1750030517578,242.29600524902344 189.552001953125,243.177001953125 C188.92799377441406,244.05799865722656 188.03900146484375,244.75100708007812 186.9770050048828,245.1269989013672 C179.0469970703125,247.94700622558594 172.052001953125,247.5959930419922 165.95799255371094,244.38800048828125 C156.2220001220703,239.26300048828125 153.28199768066406,229.3780059814453 152.86199951171875,225.2729949951172 C152.59500122070312,222.66099548339844 152.57699584960938,219.31300354003906 152.83200073242188,215.22799682617188 C152.83200073242188,215.22799682617188 152.83200073242188,215.22799682617188 152.83200073242188,215.22799682617188 C152.83200073242188,215.22799682617188 164.43499755859375,187.53399658203125 164.43499755859375,187.53399658203125 C165.43600463867188,185.14599609375 167.10299682617188,183.1750030517578 169.16900634765625,181.80099487304688 C171.23500061035156,180.427001953125 173.697998046875,179.64999389648438 176.28700256347656,179.64999389648438 C176.28700256347656,179.64999389648438 176.28700256347656,179.64999389648438 176.28700256347656,179.64999389648438 C176.28700256347656,179.64999389648438 194.0800018310547,179.64999389648438 194.0800018310547,179.64999389648438z"/><g opacity="1" transform="matrix(1,0,0,1,0,0)"/></g><g transform="matrix(1,0,0,1,-125,-125)" opacity="1" style="display: block;"><g opacity="1" transform="matrix(1,0,0,1,0,0)"><g opacity="1" transform="matrix(1,0,0,1,304,183.5)"><path fill="url(#__lottie_element_331)" fill-opacity="1" d=" M-28.44499969482422,-23.94499969482422 C-28.44499969482422,-23.94499969482422 28.44499969482422,-23.94499969482422 28.44499969482422,-23.94499969482422 C37.28200149536133,-23.94499969482422 44.44499969482422,-16.781999588012695 44.44499969482422,-7.945000171661377 C44.44499969482422,-7.945000171661377 44.44499969482422,7.945000171661377 44.44499969482422,7.945000171661377 C44.44499969482422,16.781999588012695 37.28200149536133,23.94499969482422 28.44499969482422,23.94499969482422 C28.44499969482422,23.94499969482422 -28.44499969482422,23.94499969482422 -28.44499969482422,23.94499969482422 C-37.28200149536133,23.94499969482422 -44.44499969482422,16.781999588012695 -44.44499969482422,7.945000171661377 C-44.44499969482422,7.945000171661377 -44.44499969482422,-7.945000171661377 -44.44499969482422,-7.945000171661377 C-44.44499969482422,-16.781999588012695 -37.28200149536133,-23.94499969482422 -28.44499969482422,-23.94499969482422z"/><path stroke-linecap="butt" stroke-linejoin="miter" fill-opacity="0" stroke-miterlimit="4" stroke="rgb(255,255,255)" stroke-opacity="1" stroke-width="5.89" d="M0 0"/></g></g></g><g transform="matrix(1,0,0,1,-125,-125)" opacity="1" style="display: block;"><g opacity="1" transform="matrix(1,0,0,1,0,0)"><g opacity="1" transform="matrix(1,0,0,1,304,183.5)"><path fill="url(#__lottie_element_327)" fill-opacity="1" d="M0 0"/><path stroke-linecap="butt" stroke-linejoin="miter" fill-opacity="0" stroke-miterlimit="4" stroke="rgb(255,255,255)" stroke-opacity="1" stroke-width="5.89" d=" M-28.44499969482422,-23.94499969482422 C-28.44499969482422,-23.94499969482422 28.44499969482422,-23.94499969482422 28.44499969482422,-23.94499969482422 C37.28200149536133,-23.94499969482422 44.44499969482422,-16.781999588012695 44.44499969482422,-7.945000171661377 C44.44499969482422,-7.945000171661377 44.44499969482422,7.945000171661377 44.44499969482422,7.945000171661377 C44.44499969482422,16.781999588012695 37.28200149536133,23.94499969482422 28.44499969482422,23.94499969482422 C28.44499969482422,23.94499969482422 -28.44499969482422,23.94499969482422 -28.44499969482422,23.94499969482422 C-37.28200149536133,23.94499969482422 -44.44499969482422,16.781999588012695 -44.44499969482422,7.945000171661377 C-44.44499969482422,7.945000171661377 -44.44499969482422,-7.945000171661377 -44.44499969482422,-7.945000171661377 C-44.44499969482422,-16.781999588012695 -37.28200149536133,-23.94499969482422 -28.44499969482422,-23.94499969482422z"/></g></g></g><g fill="rgb(255,255,255)" font-size="25.2178993225098" font-family="Arial" font-style="normal" font-weight="700" aria-label="PRO" transform="matrix(1,0,0,1,152.0290069580078,68.052001953125)" opacity="1" style="display: block;"><path stroke-linecap="butt" stroke-linejoin="round" stroke-miterlimit="4" d=" M5.48,0 C5.48,0 5.48,-6.81 5.48,-6.81 C5.48,-6.81 7.86,-6.81 7.86,-6.81 C9.51,-6.81 10.77,-6.9 11.64,-7.07 C12.28,-7.21 12.91,-7.49 13.53,-7.92 C14.15,-8.35 14.66,-8.95 15.06,-9.7 C15.46,-10.46 15.66,-11.39 15.66,-12.5 C15.66,-13.93 15.31,-15.11 14.62,-16.01 C13.92,-16.92 13.05,-17.51 12.02,-17.78 C11.34,-17.96 9.9,-18.05 7.68,-18.05 C7.68,-18.05 1.83,-18.05 1.83,-18.05 C1.83,-18.05 1.83,0 1.83,0 C1.83,0 5.48,0 5.48,0z M7.24,-15 C8.55,-15 9.43,-14.96 9.86,-14.87 C10.45,-14.77 10.94,-14.5 11.33,-14.07 C11.71,-13.65 11.91,-13.11 11.91,-12.45 C11.91,-11.92 11.77,-11.45 11.49,-11.05 C11.22,-10.64 10.84,-10.35 10.36,-10.16 C9.87,-9.97 8.91,-9.88 7.47,-9.88 C7.47,-9.88 5.48,-9.88 5.48,-9.88 C5.48,-9.88 5.48,-15 5.48,-15 C5.48,-15 7.24,-15 7.24,-15z M22.31,0 C22.31,0 22.31,-7.54 22.31,-7.54 C22.31,-7.54 23.05,-7.54 23.05,-7.54 C23.89,-7.54 24.5,-7.47 24.89,-7.33 C25.27,-7.2 25.64,-6.95 25.98,-6.58 C26.33,-6.22 26.97,-5.33 27.9,-3.93 C27.9,-3.93 30.54,0 30.54,0 C30.54,0 34.9,0 34.9,0 C34.9,0 32.69,-3.52 32.69,-3.52 C31.82,-4.93 31.13,-5.9 30.62,-6.45 C30.1,-7 29.45,-7.51 28.67,-7.97 C30.25,-8.2 31.44,-8.75 32.24,-9.64 C33.03,-10.52 33.43,-11.64 33.43,-12.99 C33.43,-14.06 33.17,-15.01 32.64,-15.84 C32.12,-16.66 31.42,-17.24 30.54,-17.57 C29.67,-17.89 28.27,-18.05 26.34,-18.05 C26.34,-18.05 18.67,-18.05 18.67,-18.05 C18.67,-18.05 18.67,0 18.67,0 C18.67,0 22.31,0 22.31,0z M22.31,-15 C22.31,-15 25.16,-15 25.16,-15 C26.63,-15 27.52,-14.98 27.82,-14.94 C28.41,-14.84 28.86,-14.6 29.19,-14.23 C29.51,-13.85 29.68,-13.36 29.68,-12.76 C29.68,-12.22 29.55,-11.76 29.31,-11.4 C29.06,-11.04 28.72,-10.79 28.28,-10.64 C27.85,-10.49 26.76,-10.42 25.01,-10.42 C25.01,-10.42 22.31,-10.42 22.31,-10.42 C22.31,-10.42 22.31,-15 22.31,-15z M38.51,-2.15 C40.09,-0.51 42.22,0.31 44.91,0.31 C47.56,0.31 49.68,-0.51 51.26,-2.16 C52.85,-3.81 53.64,-6.09 53.64,-9 C53.64,-11.94 52.84,-14.23 51.24,-15.88 C49.65,-17.53 47.52,-18.36 44.86,-18.36 C43.39,-18.36 42.09,-18.12 40.97,-17.65 C40.12,-17.29 39.34,-16.75 38.63,-16.02 C37.92,-15.29 37.36,-14.46 36.95,-13.54 C36.4,-12.3 36.13,-10.75 36.13,-8.92 C36.13,-6.04 36.92,-3.79 38.51,-2.15z M41.26,-13.7 C42.18,-14.73 43.39,-15.24 44.9,-15.24 C46.4,-15.24 47.6,-14.74 48.51,-13.72 C49.42,-12.7 49.87,-11.16 49.87,-9.09 C49.87,-6.99 49.4,-5.42 48.47,-4.38 C47.54,-3.33 46.35,-2.81 44.9,-2.81 C43.44,-2.81 42.24,-3.33 41.3,-4.39 C40.36,-5.44 39.88,-6.99 39.88,-9.04 C39.88,-11.11 40.34,-12.67 41.26,-13.7z" style="display: inherit;"/></g></g></svg>