<svg xmlns="http://www.w3.org/2000/svg" viewBox="0 0 250 250" width="250" height="250" preserveAspectRatio="xMidYMid meet" style="width: 100%; height: 100%; transform: translate3d(0px, 0px, 0px); content-visibility: visible;"><defs><clipPath id="__lottie_element_16"><rect width="250" height="250" x="0" y="0"/></clipPath><clipPath id="__lottie_element_18"><path d="M0,0 L250,0 L250,250 L0,250z"/></clipPath><mask id="__lottie_element_22" mask-type="alpha"><g transform="matrix(1,0,0,1,124.99998474121094,113.06472778320312)" opacity="1" style="display: block;"><g opacity="1" transform="matrix(1,0,0,1,0,0)"><path stroke-linecap="round" stroke-linejoin="round" fill-opacity="0" stroke="rgb(246,20,255)" stroke-opacity="1" stroke-width="16.5" d="M0 0"/></g></g></mask><clipPath id="__lottie_element_35"><path d="M0,0 L250,0 L250,250 L0,250z"/></clipPath><mask id="__lottie_element_39" mask-type="alpha"><g transform="matrix(1,0,0,1,124.99998474121094,113.00586700439453)" opacity="1" style="display: block;"><g opacity="1" transform="matrix(1,0,0,1,0,0)"><path stroke-linecap="round" stroke-linejoin="round" fill-opacity="0" stroke="rgb(246,20,255)" stroke-opacity="1" stroke-width="16.5" d="M0 0"/></g></g></mask></defs><g clip-path="url(#__lottie_element_16)"><g clip-path="url(#__lottie_element_35)" style="display: block;" transform="matrix(1,0,0,1,0,0)" opacity="1"><g transform="matrix(1,0,0,1,-125,-129.29812622070312)" opacity="1" style="display: block;"><g opacity="1" transform="matrix(1,0,0,1,250,249.99899291992188)"><path fill="rgb(255,173,13)" fill-opacity="1" d=" M-63.5989990234375,-79.8489990234375 C-63.5989990234375,-79.8489990234375 63.62799835205078,-79.8489990234375 63.62799835205078,-79.8489990234375 C68.08999633789062,-79.83799743652344 72.13099670410156,-78.02899932861328 75.06400299072266,-75.10700225830078 C78,-72.18199920654297 79.82499694824219,-68.14099884033203 79.8499984741211,-63.67100143432617 C79.8499984741211,-63.67100143432617 79.8499984741211,-63.67100143432617 79.8499984741211,-63.67100143432617 C79.8499984741211,-63.67100143432617 79.77400207519531,-17.742000579833984 79.77400207519531,-17.742000579833984 C79.80400085449219,5.504000186920166 71.81099700927734,27.22100067138672 58.1510009765625,44.4379997253418 C44.4900016784668,61.65700149536133 25.160999298095703,74.3740005493164 2.5220000743865967,79.62000274658203 C1.0859999656677246,79.9219970703125 -0.3140000104904175,79.9219970703125 -1.6699999570846558,79.63800048828125 C-24.402000427246094,74.58699798583984 -43.84600067138672,62.04399871826172 -57.66299819946289,44.94900131225586 C-71.48400115966797,27.850000381469727 -79.67500305175781,6.196000099182129 -79.8499984741211,-17.059999465942383 C-79.8499984741211,-17.059999465942383 -79.8499984741211,-17.059999465942383 -79.8499984741211,-17.059999465942383 C-79.8499984741211,-17.059999465942383 -79.77400207519531,-63.597999572753906 -79.77400207519531,-63.597999572753906 C-79.76699829101562,-68.06600189208984 -77.96099853515625,-72.11399841308594 -75.03900146484375,-75.052001953125 C-72.11399841308594,-77.99400329589844 -68.07099914550781,-79.822998046875 -63.5989990234375,-79.8489990234375 C-63.5989990234375,-79.8489990234375 -63.5989990234375,-79.8489990234375 -63.5989990234375,-79.8489990234375z"/><path stroke-linecap="butt" stroke-linejoin="round" fill-opacity="0" stroke="rgb(255,255,255)" stroke-opacity="1" stroke-width="7.7" d=" M-63.5989990234375,-79.8489990234375 C-63.5989990234375,-79.8489990234375 63.62799835205078,-79.8489990234375 63.62799835205078,-79.8489990234375 C68.08999633789062,-79.83799743652344 72.13099670410156,-78.02899932861328 75.06400299072266,-75.10700225830078 C78,-72.18199920654297 79.82499694824219,-68.14099884033203 79.8499984741211,-63.67100143432617 C79.8499984741211,-63.67100143432617 79.8499984741211,-63.67100143432617 79.8499984741211,-63.67100143432617 C79.8499984741211,-63.67100143432617 79.77400207519531,-17.742000579833984 79.77400207519531,-17.742000579833984 C79.80400085449219,5.504000186920166 71.81099700927734,27.22100067138672 58.1510009765625,44.4379997253418 C44.4900016784668,61.65700149536133 25.160999298095703,74.3740005493164 2.5220000743865967,79.62000274658203 C1.0859999656677246,79.9219970703125 -0.3140000104904175,79.9219970703125 -1.6699999570846558,79.63800048828125 C-24.402000427246094,74.58699798583984 -43.84600067138672,62.04399871826172 -57.66299819946289,44.94900131225586 C-71.48400115966797,27.850000381469727 -79.67500305175781,6.196000099182129 -79.8499984741211,-17.059999465942383 C-79.8499984741211,-17.059999465942383 -79.8499984741211,-17.059999465942383 -79.8499984741211,-17.059999465942383 C-79.8499984741211,-17.059999465942383 -79.77400207519531,-63.597999572753906 -79.77400207519531,-63.597999572753906 C-79.76699829101562,-68.06600189208984 -77.96099853515625,-72.11399841308594 -75.03900146484375,-75.052001953125 C-72.11399841308594,-77.99400329589844 -68.07099914550781,-79.822998046875 -63.5989990234375,-79.8489990234375 C-63.5989990234375,-79.8489990234375 -63.5989990234375,-79.8489990234375 -63.5989990234375,-79.8489990234375z"/></g></g><g transform="matrix(0.9985158443450928,0.054462481290102005,-0.054462481290102005,0.9985158443450928,125,113.0068588256836)" opacity="1" style="display: block;"><g opacity="1" transform="matrix(1,0,0,1,0,0)"><path stroke-linecap="round" stroke-linejoin="miter" fill-opacity="0" stroke-miterlimit="4" stroke="rgb(255,255,255)" stroke-opacity="1" stroke-width="13" d=" M19.027999877929688,-34.61600112915039 C31.22800064086914,-27.889999389648438 39.5,-14.902999877929688 39.5,0 C39.5,21.800050735473633 21.800050735473633,39.5 0,39.5 C-21.800050735473633,39.5 -39.5,21.800050735473633 -39.5,0 C-39.5,-21.800050735473633 -21.800050735473633,-39.5 0,-39.5"/></g></g><g mask="url(#__lottie_element_39)" style="display: block;"><g transform="matrix(1,0,0,1,-125.00001525878906,-129.29812622070312)" opacity="1"><g opacity="1" transform="matrix(1,0,0,1,262.3680114746094,231.11099243164062)"><path fill="rgb(255,255,255)" fill-opacity="1" d=" M31.69300079345703,-23.256000518798828 C34.165000915527344,-20.781999588012695 34.165000915527344,-16.770000457763672 31.69300079345703,-14.295999526977539 C31.69300079345703,-14.295999526977539 -4.4070000648498535,21.820999145507812 -4.4070000648498535,21.820999145507812 C-8.821000099182129,26.20800018310547 -15.946999549865723,26.20800018310547 -20.361000061035156,21.820999145507812 C-20.361000061035156,21.820999145507812 -31.69099998474121,10.45300006866455 -31.69099998474121,10.45300006866455 C-34.16600036621094,7.9770002365112305 -34.16600036621094,3.9630000591278076 -31.69099998474121,1.4869999885559082 C-29.215999603271484,-0.9890000224113464 -25.20400047302246,-0.9890000224113464 -22.729000091552734,1.4869999885559082 C-22.729000091552734,1.4869999885559082 -14.609999656677246,9.623000144958496 -14.609999656677246,9.623000144958496 C-14.015999794006348,10.218999862670898 -13.208999633789062,10.553999900817871 -12.368000030517578,10.553999900817871 C-11.527000427246094,10.553999900817871 -10.720000267028809,10.218999862670898 -10.12600040435791,9.623000144958496 C-10.12600040435791,9.623000144958496 22.738000869750977,-23.256000518798828 22.738000869750977,-23.256000518798828 C25.211000442504883,-25.729999542236328 29.219999313354492,-25.729999542236328 31.69300079345703,-23.256000518798828z"/></g></g></g></g><g clip-path="url(#__lottie_element_18)" transform="matrix(1,0,0,1,0,0)" opacity="1" style="display: none;"><g transform="matrix(1,0,0,1,-125,-129.23927307128906)" opacity="1" style="display: block;"><g opacity="1" transform="matrix(1,0,0,1,250,249.99899291992188)"><path fill="rgb(255,173,13)" fill-opacity="1" d=" M-63.5989990234375,-79.8489990234375 C-63.5989990234375,-79.8489990234375 63.62799835205078,-79.8489990234375 63.62799835205078,-79.8489990234375 C68.08999633789062,-79.83799743652344 72.13099670410156,-78.02899932861328 75.06400299072266,-75.10700225830078 C78,-72.18199920654297 79.82499694824219,-68.14099884033203 79.8499984741211,-63.67100143432617 C79.8499984741211,-63.67100143432617 79.8499984741211,-63.67100143432617 79.8499984741211,-63.67100143432617 C79.8499984741211,-63.67100143432617 79.77400207519531,-17.742000579833984 79.77400207519531,-17.742000579833984 C79.80400085449219,5.504000186920166 71.81099700927734,27.22100067138672 58.1510009765625,44.4379997253418 C44.4900016784668,61.65700149536133 25.160999298095703,74.3740005493164 2.5220000743865967,79.62000274658203 C1.0859999656677246,79.9219970703125 -0.3140000104904175,79.9219970703125 -1.6699999570846558,79.63800048828125 C-24.402000427246094,74.58699798583984 -43.84600067138672,62.04399871826172 -57.66299819946289,44.94900131225586 C-71.48400115966797,27.850000381469727 -79.67500305175781,6.196000099182129 -79.8499984741211,-17.059999465942383 C-79.8499984741211,-17.059999465942383 -79.8499984741211,-17.059999465942383 -79.8499984741211,-17.059999465942383 C-79.8499984741211,-17.059999465942383 -79.77400207519531,-63.597999572753906 -79.77400207519531,-63.597999572753906 C-79.76699829101562,-68.06600189208984 -77.96099853515625,-72.11399841308594 -75.03900146484375,-75.052001953125 C-72.11399841308594,-77.99400329589844 -68.07099914550781,-79.822998046875 -63.5989990234375,-79.8489990234375 C-63.5989990234375,-79.8489990234375 -63.5989990234375,-79.8489990234375 -63.5989990234375,-79.8489990234375z"/><path stroke-linecap="butt" stroke-linejoin="round" fill-opacity="0" stroke="rgb(255,255,255)" stroke-opacity="1" stroke-width="7.7" d=" M-63.5989990234375,-79.8489990234375 C-63.5989990234375,-79.8489990234375 63.62799835205078,-79.8489990234375 63.62799835205078,-79.8489990234375 C68.08999633789062,-79.83799743652344 72.13099670410156,-78.02899932861328 75.06400299072266,-75.10700225830078 C78,-72.18199920654297 79.82499694824219,-68.14099884033203 79.8499984741211,-63.67100143432617 C79.8499984741211,-63.67100143432617 79.8499984741211,-63.67100143432617 79.8499984741211,-63.67100143432617 C79.8499984741211,-63.67100143432617 79.77400207519531,-17.742000579833984 79.77400207519531,-17.742000579833984 C79.80400085449219,5.504000186920166 71.81099700927734,27.22100067138672 58.1510009765625,44.4379997253418 C44.4900016784668,61.65700149536133 25.160999298095703,74.3740005493164 2.5220000743865967,79.62000274658203 C1.0859999656677246,79.9219970703125 -0.3140000104904175,79.9219970703125 -1.6699999570846558,79.63800048828125 C-24.402000427246094,74.58699798583984 -43.84600067138672,62.04399871826172 -57.66299819946289,44.94900131225586 C-71.48400115966797,27.850000381469727 -79.67500305175781,6.196000099182129 -79.8499984741211,-17.059999465942383 C-79.8499984741211,-17.059999465942383 -79.8499984741211,-17.059999465942383 -79.8499984741211,-17.059999465942383 C-79.8499984741211,-17.059999465942383 -79.77400207519531,-63.597999572753906 -79.77400207519531,-63.597999572753906 C-79.76699829101562,-68.06600189208984 -77.96099853515625,-72.11399841308594 -75.03900146484375,-75.052001953125 C-72.11399841308594,-77.99400329589844 -68.07099914550781,-79.822998046875 -63.5989990234375,-79.8489990234375 C-63.5989990234375,-79.8489990234375 -63.5989990234375,-79.8489990234375 -63.5989990234375,-79.8489990234375z"/></g></g><g transform="matrix(0.9966586232185364,-0.08167994767427444,0.08167994767427444,0.9966586232185364,125,113.06571960449219)" opacity="1" style="display: block;"><g opacity="1" transform="matrix(1,0,0,1,0,0)"><path stroke-linecap="round" stroke-linejoin="miter" fill-opacity="0" stroke-miterlimit="4" stroke="rgb(255,255,255)" stroke-opacity="1" stroke-width="13" d=" M19.07200050354004,-34.59199905395508 C31.246999740600586,-27.860000610351562 39.5,-14.88599967956543 39.5,0 C39.5,21.800050735473633 21.800050735473633,39.5 0,39.5 C-21.800050735473633,39.5 -39.5,21.800050735473633 -39.5,0 C-39.5,-21.800050735473633 -21.800050735473633,-39.5 0,-39.5"/></g></g><g mask="url(#__lottie_element_22)" style="display: block;"><g transform="matrix(1,0,0,1,-125.00001525878906,-129.23927307128906)" opacity="1"><g opacity="1" transform="matrix(1,0,0,1,262.3680114746094,231.11099243164062)"><path fill="rgb(255,255,255)" fill-opacity="1" d=" M31.69300079345703,-23.256000518798828 C34.165000915527344,-20.781999588012695 34.165000915527344,-16.770000457763672 31.69300079345703,-14.295999526977539 C31.69300079345703,-14.295999526977539 -4.4070000648498535,21.820999145507812 -4.4070000648498535,21.820999145507812 C-8.821000099182129,26.20800018310547 -15.946999549865723,26.20800018310547 -20.361000061035156,21.820999145507812 C-20.361000061035156,21.820999145507812 -31.69099998474121,10.45300006866455 -31.69099998474121,10.45300006866455 C-34.16600036621094,7.9770002365112305 -34.16600036621094,3.9630000591278076 -31.69099998474121,1.4869999885559082 C-29.215999603271484,-0.9890000224113464 -25.20400047302246,-0.9890000224113464 -22.729000091552734,1.4869999885559082 C-22.729000091552734,1.4869999885559082 -14.609999656677246,9.623000144958496 -14.609999656677246,9.623000144958496 C-14.015999794006348,10.218999862670898 -13.208999633789062,10.553999900817871 -12.368000030517578,10.553999900817871 C-11.527000427246094,10.553999900817871 -10.720000267028809,10.218999862670898 -10.12600040435791,9.623000144958496 C-10.12600040435791,9.623000144958496 22.738000869750977,-23.256000518798828 22.738000869750977,-23.256000518798828 C25.211000442504883,-25.729999542236328 29.219999313354492,-25.729999542236328 31.69300079345703,-23.256000518798828z"/></g></g></g></g></g></svg>