<svg xmlns="http://www.w3.org/2000/svg" viewBox="0 0 250 250" width="250" height="250" preserveAspectRatio="xMidYMid meet" style="width: 100%; height: 100%; transform: translate3d(0px, 0px, 0px); content-visibility: visible;"><defs><clipPath id="__lottie_element_186"><rect width="250" height="250" x="0" y="0"/></clipPath><mask id="__lottie_element_187" mask-type="alpha"><g transform="matrix(0.9049999713897705,0,0,0,142.072265625,177.43923950195312)" opacity="1" style="display: block;"><g opacity="1" transform="matrix(1,0,0,1,0,0)"><path fill="rgb(255,0,0)" fill-opacity="1" d="M0 0"/><path stroke-linecap="round" stroke-linejoin="miter" fill-opacity="0" stroke-miterlimit="4" stroke="rgb(255,164,0)" stroke-opacity="1" stroke-width="7" d=" M-2,98 C-2,98 -2,136.89599609375 -2,165.1719970703125"/></g></g></mask><clipPath id="__lottie_element_198"><path d="M0,0 L500,0 L500,500 L0,500z"/></clipPath></defs><g clip-path="url(#__lottie_element_186)"><g clip-path="url(#__lottie_element_198)" transform="matrix(0.5,0,0,0.5,0,0)" opacity="1" style="display: block;"><g transform="matrix(1,0,0,1,250,252.5)" opacity="1" style="display: block;"><g opacity="1" transform="matrix(1,0,0,1,0,0)"><path fill="rgb(255,0,0)" fill-opacity="1" d="M0 0"/><path stroke-linecap="round" stroke-linejoin="miter" fill-opacity="0" stroke-miterlimit="4" stroke="rgb(116,62,245)" stroke-opacity="1" stroke-width="5" d=" M-116,-238 C-116,-238 -116,-232.60800170898438 -116,-222.97799682617188"/></g></g><g transform="matrix(1,0,0,1,177,252.5)" opacity="1" style="display: none;"><g opacity="1" transform="matrix(1,0,0,1,0,0)"><path fill="rgb(255,0,0)" fill-opacity="1" d="M0 0"/><path stroke-linecap="round" stroke-linejoin="miter" fill-opacity="0" stroke-miterlimit="4" stroke="rgb(116,62,245)" stroke-opacity="1" stroke-width="5" d="M0 0"/></g></g><g transform="matrix(1,0,0,1,590,252.5)" opacity="1" style="display: none;"><g opacity="1" transform="matrix(1,0,0,1,0,0)"><path fill="rgb(255,0,0)" fill-opacity="1" d="M0 0"/><path stroke-linecap="round" stroke-linejoin="miter" fill-opacity="0" stroke-miterlimit="4" stroke="rgb(116,62,245)" stroke-opacity="1" stroke-width="5" d="M0 0"/></g></g><g transform="matrix(1,0,0,1,379,252.5)" opacity="1" style="display: none;"><g opacity="1" transform="matrix(1,0,0,1,0,0)"><path fill="rgb(255,0,0)" fill-opacity="1" d="M0 0"/><path stroke-linecap="round" stroke-linejoin="miter" fill-opacity="0" stroke-miterlimit="4" stroke="rgb(116,62,245)" stroke-opacity="1" stroke-width="5" d="M0 0"/></g></g><g transform="matrix(1,0,0,1,487,252.5)" opacity="1" style="display: none;"><g opacity="1" transform="matrix(1,0,0,1,0,0)"><path fill="rgb(255,0,0)" fill-opacity="1" d="M0 0"/><path stroke-linecap="round" stroke-linejoin="miter" fill-opacity="0" stroke-miterlimit="4" stroke="rgb(116,62,245)" stroke-opacity="1" stroke-width="5" d="M0 0"/></g></g><g transform="matrix(1,0,0,1,139,252.5)" opacity="1" style="display: none;"><g opacity="1" transform="matrix(1,0,0,1,0,0)"><path fill="rgb(255,0,0)" fill-opacity="1" d="M0 0"/><path stroke-linecap="round" stroke-linejoin="miter" fill-opacity="0" stroke-miterlimit="4" stroke="rgb(116,62,245)" stroke-opacity="1" stroke-width="5" d="M0 0"/></g></g><g transform="matrix(1,0,0,1,216,252.5)" opacity="1" style="display: none;"><g opacity="1" transform="matrix(1,0,0,1,0,0)"><path fill="rgb(255,0,0)" fill-opacity="1" d="M0 0"/><path stroke-linecap="round" stroke-linejoin="miter" fill-opacity="0" stroke-miterlimit="4" stroke="rgb(116,62,245)" stroke-opacity="1" stroke-width="5" d="M0 0"/></g></g><g transform="matrix(1,0,0,1,308,252.5)" opacity="1" style="display: none;"><g opacity="1" transform="matrix(1,0,0,1,0,0)"><path fill="rgb(255,0,0)" fill-opacity="1" d="M0 0"/><path stroke-linecap="round" stroke-linejoin="miter" fill-opacity="0" stroke-miterlimit="4" stroke="rgb(116,62,245)" stroke-opacity="1" stroke-width="5" d="M0 0"/></g></g><g transform="matrix(1,0,0,1,250,252.5)" opacity="1" style="display: none;"><g opacity="1" transform="matrix(1,0,0,1,0,0)"><path fill="rgb(255,0,0)" fill-opacity="1" d="M0 0"/><path stroke-linecap="round" stroke-linejoin="miter" fill-opacity="0" stroke-miterlimit="4" stroke="rgb(255,164,0)" stroke-opacity="1" stroke-width="5" d="M0 0"/></g></g><g transform="matrix(1,0,0,1,177,252.5)" opacity="1" style="display: none;"><g opacity="1" transform="matrix(1,0,0,1,0,0)"><path fill="rgb(255,0,0)" fill-opacity="1" d="M0 0"/><path stroke-linecap="round" stroke-linejoin="miter" fill-opacity="0" stroke-miterlimit="4" stroke="rgb(255,164,0)" stroke-opacity="1" stroke-width="5" d="M0 0"/></g></g><g transform="matrix(1,0,0,1,590,252.5)" opacity="1" style="display: none;"><g opacity="1" transform="matrix(1,0,0,1,0,0)"><path fill="rgb(255,0,0)" fill-opacity="1" d="M0 0"/><path stroke-linecap="round" stroke-linejoin="miter" fill-opacity="0" stroke-miterlimit="4" stroke="rgb(255,164,0)" stroke-opacity="1" stroke-width="5" d="M0 0"/></g></g><g transform="matrix(1,0,0,1,379,252.5)" opacity="1" style="display: none;"><g opacity="1" transform="matrix(1,0,0,1,0,0)"><path fill="rgb(255,0,0)" fill-opacity="1" d="M0 0"/><path stroke-linecap="round" stroke-linejoin="miter" fill-opacity="0" stroke-miterlimit="4" stroke="rgb(255,164,0)" stroke-opacity="1" stroke-width="5" d="M0 0"/></g></g><g transform="matrix(1,0,0,1,487,252.5)" opacity="1" style="display: none;"><g opacity="1" transform="matrix(1,0,0,1,0,0)"><path fill="rgb(255,0,0)" fill-opacity="1" d="M0 0"/><path stroke-linecap="round" stroke-linejoin="miter" fill-opacity="0" stroke-miterlimit="4" stroke="rgb(255,164,0)" stroke-opacity="1" stroke-width="5" d="M0 0"/></g></g><g transform="matrix(1,0,0,1,139,252.5)" opacity="1" style="display: none;"><g opacity="1" transform="matrix(1,0,0,1,0,0)"><path fill="rgb(255,0,0)" fill-opacity="1" d="M0 0"/><path stroke-linecap="round" stroke-linejoin="miter" fill-opacity="0" stroke-miterlimit="4" stroke="rgb(255,164,0)" stroke-opacity="1" stroke-width="5" d="M0 0"/></g></g><g transform="matrix(1,0,0,1,216,252.5)" opacity="1" style="display: none;"><g opacity="1" transform="matrix(1,0,0,1,0,0)"><path fill="rgb(255,0,0)" fill-opacity="1" d="M0 0"/><path stroke-linecap="round" stroke-linejoin="miter" fill-opacity="0" stroke-miterlimit="4" stroke="rgb(255,164,0)" stroke-opacity="1" stroke-width="5" d="M0 0"/></g></g><g transform="matrix(1,0,0,1,308,252.5)" opacity="1" style="display: none;"><g opacity="1" transform="matrix(1,0,0,1,0,0)"><path fill="rgb(255,0,0)" fill-opacity="1" d="M0 0"/><path stroke-linecap="round" stroke-linejoin="miter" fill-opacity="0" stroke-miterlimit="4" stroke="rgb(255,164,0)" stroke-opacity="1" stroke-width="5" d="M0 0"/></g></g><g transform="matrix(1,0,0,1,250,252.5)" opacity="1" style="display: none;"><g opacity="1" transform="matrix(1,0,0,1,0,0)"><path fill="rgb(255,0,0)" fill-opacity="1" d="M0 0"/><path stroke-linecap="round" stroke-linejoin="miter" fill-opacity="0" stroke-miterlimit="4" stroke="rgb(116,62,245)" stroke-opacity="1" stroke-width="5" d="M0 0"/></g></g><g transform="matrix(1,0,0,1,177,252.5)" opacity="1" style="display: none;"><g opacity="1" transform="matrix(1,0,0,1,0,0)"><path fill="rgb(255,0,0)" fill-opacity="1" d="M0 0"/><path stroke-linecap="round" stroke-linejoin="miter" fill-opacity="0" stroke-miterlimit="4" stroke="rgb(116,62,245)" stroke-opacity="1" stroke-width="5" d="M0 0"/></g></g><g transform="matrix(1,0,0,1,590,252.5)" opacity="1" style="display: none;"><g opacity="1" transform="matrix(1,0,0,1,0,0)"><path fill="rgb(255,0,0)" fill-opacity="1" d="M0 0"/><path stroke-linecap="round" stroke-linejoin="miter" fill-opacity="0" stroke-miterlimit="4" stroke="rgb(116,62,245)" stroke-opacity="1" stroke-width="5" d="M0 0"/></g></g><g transform="matrix(1,0,0,1,379,252.5)" opacity="1" style="display: none;"><g opacity="1" transform="matrix(1,0,0,1,0,0)"><path fill="rgb(255,0,0)" fill-opacity="1" d="M0 0"/><path stroke-linecap="round" stroke-linejoin="miter" fill-opacity="0" stroke-miterlimit="4" stroke="rgb(116,62,245)" stroke-opacity="1" stroke-width="5" d="M0 0"/></g></g><g transform="matrix(1,0,0,1,487,252.5)" opacity="1" style="display: none;"><g opacity="1" transform="matrix(1,0,0,1,0,0)"><path fill="rgb(255,0,0)" fill-opacity="1" d="M0 0"/><path stroke-linecap="round" stroke-linejoin="miter" fill-opacity="0" stroke-miterlimit="4" stroke="rgb(116,62,245)" stroke-opacity="1" stroke-width="5" d="M0 0"/></g></g><g transform="matrix(1,0,0,1,139,252.5)" opacity="1" style="display: none;"><g opacity="1" transform="matrix(1,0,0,1,0,0)"><path fill="rgb(255,0,0)" fill-opacity="1" d="M0 0"/><path stroke-linecap="round" stroke-linejoin="miter" fill-opacity="0" stroke-miterlimit="4" stroke="rgb(116,62,245)" stroke-opacity="1" stroke-width="5" d="M0 0"/></g></g><g transform="matrix(1,0,0,1,216,252.5)" opacity="1" style="display: none;"><g opacity="1" transform="matrix(1,0,0,1,0,0)"><path fill="rgb(255,0,0)" fill-opacity="1" d="M0 0"/><path stroke-linecap="round" stroke-linejoin="miter" fill-opacity="0" stroke-miterlimit="4" stroke="rgb(116,62,245)" stroke-opacity="1" stroke-width="5" d="M0 0"/></g></g><g transform="matrix(1,0,0,1,308,252.5)" opacity="1" style="display: none;"><g opacity="1" transform="matrix(1,0,0,1,0,0)"><path fill="rgb(255,0,0)" fill-opacity="1" d="M0 0"/><path stroke-linecap="round" stroke-linejoin="miter" fill-opacity="0" stroke-miterlimit="4" stroke="rgb(116,62,245)" stroke-opacity="1" stroke-width="5" d="M0 0"/></g></g><g transform="matrix(1,0,0,1,250,252.5)" opacity="1" style="display: none;"><g opacity="1" transform="matrix(1,0,0,1,0,0)"><path fill="rgb(255,0,0)" fill-opacity="1" d="M0 0"/><path stroke-linecap="round" stroke-linejoin="miter" fill-opacity="0" stroke-miterlimit="4" stroke="rgb(255,164,0)" stroke-opacity="1" stroke-width="5" d="M0 0"/></g></g><g transform="matrix(1,0,0,1,177,252.5)" opacity="1" style="display: none;"><g opacity="1" transform="matrix(1,0,0,1,0,0)"><path fill="rgb(255,0,0)" fill-opacity="1" d="M0 0"/><path stroke-linecap="round" stroke-linejoin="miter" fill-opacity="0" stroke-miterlimit="4" stroke="rgb(255,164,0)" stroke-opacity="1" stroke-width="5" d="M0 0"/></g></g><g transform="matrix(1,0,0,1,590,252.5)" opacity="1" style="display: none;"><g opacity="1" transform="matrix(1,0,0,1,0,0)"><path fill="rgb(255,0,0)" fill-opacity="1" d="M0 0"/><path stroke-linecap="round" stroke-linejoin="miter" fill-opacity="0" stroke-miterlimit="4" stroke="rgb(255,164,0)" stroke-opacity="1" stroke-width="5" d="M0 0"/></g></g><g transform="matrix(1,0,0,1,379,252.5)" opacity="1" style="display: none;"><g opacity="1" transform="matrix(1,0,0,1,0,0)"><path fill="rgb(255,0,0)" fill-opacity="1" d="M0 0"/><path stroke-linecap="round" stroke-linejoin="miter" fill-opacity="0" stroke-miterlimit="4" stroke="rgb(255,164,0)" stroke-opacity="1" stroke-width="5" d="M0 0"/></g></g><g transform="matrix(1,0,0,1,487,252.5)" opacity="1" style="display: none;"><g opacity="1" transform="matrix(1,0,0,1,0,0)"><path fill="rgb(255,0,0)" fill-opacity="1" d="M0 0"/><path stroke-linecap="round" stroke-linejoin="miter" fill-opacity="0" stroke-miterlimit="4" stroke="rgb(255,164,0)" stroke-opacity="1" stroke-width="5" d="M0 0"/></g></g><g transform="matrix(1,0,0,1,139,252.5)" opacity="1" style="display: none;"><g opacity="1" transform="matrix(1,0,0,1,0,0)"><path fill="rgb(255,0,0)" fill-opacity="1" d="M0 0"/><path stroke-linecap="round" stroke-linejoin="miter" fill-opacity="0" stroke-miterlimit="4" stroke="rgb(255,164,0)" stroke-opacity="1" stroke-width="5" d="M0 0"/></g></g><g transform="matrix(1,0,0,1,216,252.5)" opacity="1" style="display: none;"><g opacity="1" transform="matrix(1,0,0,1,0,0)"><path fill="rgb(255,0,0)" fill-opacity="1" d="M0 0"/><path stroke-linecap="round" stroke-linejoin="miter" fill-opacity="0" stroke-miterlimit="4" stroke="rgb(255,164,0)" stroke-opacity="1" stroke-width="5" d="M0 0"/></g></g><g transform="matrix(1,0,0,1,308,252.5)" opacity="1" style="display: none;"><g opacity="1" transform="matrix(1,0,0,1,0,0)"><path fill="rgb(255,0,0)" fill-opacity="1" d="M0 0"/><path stroke-linecap="round" stroke-linejoin="miter" fill-opacity="0" stroke-miterlimit="4" stroke="rgb(255,164,0)" stroke-opacity="1" stroke-width="5" d="M0 0"/></g></g></g><g transform="matrix(0.9049999713897705,0,0,0.9049999713897705,139.14910888671875,124.97819519042969)" opacity="1" style="display: block;"><g opacity="1" transform="matrix(1,0,0,1,0,0)"><path fill="rgb(117,63,246)" fill-opacity="1" d=" M-79.58399963378906,64.98899841308594 C-80.20600128173828,61.49399948120117 -79.78399658203125,57.678001403808594 -77.8949966430664,53.89799880981445 C-77.8949966430664,53.89799880981445 -77.8949966430664,53.89799880981445 -77.8949966430664,53.89799880981445 C-77.8949966430664,53.89799880981445 -15.989999771118164,-69.96399688720703 -15.989999771118164,-69.96399688720703 C-14.402999877929688,-73.13999938964844 -12.100000381469727,-75.54399871826172 -9.437999725341797,-77.19000244140625 C-6.574999809265137,-78.95999908447266 -3.2890000343322754,-79.8499984741211 0,-79.8499984741211 C3.2890000343322754,-79.8499984741211 6.574999809265137,-78.95999908447266 9.437999725341797,-77.19000244140625 C12.100000381469727,-75.54399871826172 14.402999877929688,-73.13999938964844 15.989999771118164,-69.96399688720703 C15.989999771118164,-69.96399688720703 15.989999771118164,-69.96399688720703 15.989999771118164,-69.96399688720703 C15.989999771118164,-69.96399688720703 77.89399719238281,53.89799880981445 77.89399719238281,53.89799880981445 C79.78299713134766,57.678001403808594 80.20600128173828,61.49399948120117 79.58399963378906,64.98899841308594 C78.9000015258789,68.83300018310547 76.93299865722656,72.30400085449219 74.15399932861328,74.91999816894531 C71.3740005493164,77.53600311279297 67.79000091552734,79.28800201416016 63.9119987487793,79.73600006103516 C60.38600158691406,80.14399719238281 56.604000091552734,79.48899841308594 52.946998596191406,77.37100219726562 C52.946998596191406,77.37100219726562 52.946998596191406,77.37100219726562 52.946998596191406,77.37100219726562 C52.946998596191406,77.37100219726562 6.671999931335449,50.56800079345703 6.671999931335449,50.56800079345703 C6.671999931335449,50.56800079345703 3.5829999446868896,4.741000175476074 3.5829999446868896,4.741000175476074 C3.555000066757202,4.127999782562256 3.2869999408721924,3.5799999237060547 2.872999906539917,3.187000036239624 C2.4639999866485596,2.7990000247955322 1.9119999408721924,2.562000036239624 1.3070000410079956,2.562000036239624 C0.7020000219345093,2.562000036239624 0.14900000393390656,2.7990000247955322 -0.25999999046325684,3.187000036239624 C-0.6740000247955322,3.5799999237060547 -0.9409999847412109,4.126999855041504 -0.968999981880188,4.741000175476074 C-0.968999981880188,4.741000175476074 -0.968999981880188,4.741000175476074 -0.968999981880188,4.741000175476074 C-0.968999981880188,4.741000175476074 -3.9749999046325684,49.00600051879883 -3.9749999046325684,49.00600051879883 C-3.9749999046325684,49.00600051879883 -52.946998596191406,77.37100219726562 -52.946998596191406,77.37100219726562 C-56.604000091552734,79.48899841308594 -60.38600158691406,80.14399719238281 -63.9119987487793,79.73600006103516 C-67.79000091552734,79.28800201416016 -71.3740005493164,77.53600311279297 -74.15399932861328,74.91999816894531 C-76.93299865722656,72.30400085449219 -78.9000015258789,68.83300018310547 -79.58399963378906,64.98899841308594z"/><path stroke-linecap="butt" stroke-linejoin="round" fill-opacity="0" stroke="rgb(255,255,255)" stroke-opacity="1" stroke-width="7.7" d=" M-79.58399963378906,64.98899841308594 C-80.20600128173828,61.49399948120117 -79.78399658203125,57.678001403808594 -77.8949966430664,53.89799880981445 C-77.8949966430664,53.89799880981445 -77.8949966430664,53.89799880981445 -77.8949966430664,53.89799880981445 C-77.8949966430664,53.89799880981445 -15.989999771118164,-69.96399688720703 -15.989999771118164,-69.96399688720703 C-14.402999877929688,-73.13999938964844 -12.100000381469727,-75.54399871826172 -9.437999725341797,-77.19000244140625 C-6.574999809265137,-78.95999908447266 -3.2890000343322754,-79.8499984741211 0,-79.8499984741211 C3.2890000343322754,-79.8499984741211 6.574999809265137,-78.95999908447266 9.437999725341797,-77.19000244140625 C12.100000381469727,-75.54399871826172 14.402999877929688,-73.13999938964844 15.989999771118164,-69.96399688720703 C15.989999771118164,-69.96399688720703 15.989999771118164,-69.96399688720703 15.989999771118164,-69.96399688720703 C15.989999771118164,-69.96399688720703 77.89399719238281,53.89799880981445 77.89399719238281,53.89799880981445 C79.78299713134766,57.678001403808594 80.20600128173828,61.49399948120117 79.58399963378906,64.98899841308594 C78.9000015258789,68.83300018310547 76.93299865722656,72.30400085449219 74.15399932861328,74.91999816894531 C71.3740005493164,77.53600311279297 67.79000091552734,79.28800201416016 63.9119987487793,79.73600006103516 C60.38600158691406,80.14399719238281 56.604000091552734,79.48899841308594 52.946998596191406,77.37100219726562 C52.946998596191406,77.37100219726562 52.946998596191406,77.37100219726562 52.946998596191406,77.37100219726562 C52.946998596191406,77.37100219726562 6.671999931335449,50.56800079345703 6.671999931335449,50.56800079345703 C6.671999931335449,50.56800079345703 3.5829999446868896,4.741000175476074 3.5829999446868896,4.741000175476074 C3.555000066757202,4.127999782562256 3.2869999408721924,3.5799999237060547 2.872999906539917,3.187000036239624 C2.4639999866485596,2.7990000247955322 1.9119999408721924,2.562000036239624 1.3070000410079956,2.562000036239624 C0.7020000219345093,2.562000036239624 0.14900000393390656,2.7990000247955322 -0.25999999046325684,3.187000036239624 C-0.6740000247955322,3.5799999237060547 -0.9409999847412109,4.126999855041504 -0.968999981880188,4.741000175476074 C-0.968999981880188,4.741000175476074 -0.968999981880188,4.741000175476074 -0.968999981880188,4.741000175476074 C-0.968999981880188,4.741000175476074 -3.9749999046325684,49.00600051879883 -3.9749999046325684,49.00600051879883 C-3.9749999046325684,49.00600051879883 -52.946998596191406,77.37100219726562 -52.946998596191406,77.37100219726562 C-56.604000091552734,79.48899841308594 -60.38600158691406,80.14399719238281 -63.9119987487793,79.73600006103516 C-67.79000091552734,79.28800201416016 -71.3740005493164,77.53600311279297 -74.15399932861328,74.91999816894531 C-76.93299865722656,72.30400085449219 -78.9000015258789,68.83300018310547 -79.58399963378906,64.98899841308594z"/></g></g><g mask="url(#__lottie_element_187)" style="display: block;"><g transform="matrix(0.9049999713897705,0,0,0.9049999713897705,140.3762969970703,219.70272827148438)" opacity="1"><g opacity="1" transform="matrix(1,0,0,1,0,0)"><path fill="rgb(255,163,0)" fill-opacity="1" d=" M3.5,-46.185001373291016 C3.5,-46.185001373291016 -0.04699999839067459,33.50299835205078 -0.04699999839067459,33.50299835205078 C-0.04699999839067459,33.50299835205078 -3.5,-46.185001373291016 -3.5,-46.185001373291016 C-3.569999933242798,-48.11800003051758 -2.059999942779541,-49.74300003051758 -0.12700000405311584,-49.8129997253418 C1.805999994277954,-49.882999420166016 3.430000066757202,-48.37300109863281 3.5,-46.439998626708984 C3.503000020980835,-46.356998443603516 3.503000020980835,-46.266998291015625 3.5,-46.185001373291016z"/></g></g></g></g></svg>