<svg xmlns="http://www.w3.org/2000/svg" viewBox="0 0 250 250" width="250" height="250" preserveAspectRatio="xMidYMid meet" style="width: 100%; height: 100%; transform: translate3d(0px, 0px, 0px); content-visibility: visible;"><defs><clipPath id="__lottie_element_227"><rect width="250" height="250" x="0" y="0"/></clipPath></defs><g clip-path="url(#__lottie_element_227)"><g transform="matrix(0,0,0,0,100.19999694824219,-7.715000152587891)" opacity="1" style="display: block;"><g opacity="1" transform="matrix(1,0,0,1,6,-182)"><path fill="rgb(244,112,24)" fill-opacity="1" d=" M0,-35 C19.316499710083008,-35 35,-19.316499710083008 35,0 C35,19.316499710083008 19.316499710083008,35 0,35 C-19.316499710083008,35 -35,19.316499710083008 -35,0 C-35,-19.316499710083008 -19.316499710083008,-35 0,-35z"/><path stroke-linecap="butt" stroke-linejoin="miter" fill-opacity="0" stroke-miterlimit="4" stroke="rgb(255,255,255)" stroke-opacity="1" stroke-width="7" d=" M0,-35 C19.316499710083008,-35 35,-19.316499710083008 35,0 C35,19.316499710083008 19.316499710083008,35 0,35 C-19.316499710083008,35 -35,19.316499710083008 -35,0 C-35,-19.316499710083008 -19.316499710083008,-35 0,-35z"/></g></g><g transform="matrix(0,0,0,0,155.39999389648438,-7.715000152587891)" opacity="1" style="display: block;"><g opacity="1" transform="matrix(1,0,0,1,6,-182)"><path fill="rgb(244,112,24)" fill-opacity="1" d=" M0,-35 C19.316499710083008,-35 35,-19.316499710083008 35,0 C35,19.316499710083008 19.316499710083008,35 0,35 C-19.316499710083008,35 -35,19.316499710083008 -35,0 C-35,-19.316499710083008 -19.316499710083008,-35 0,-35z"/><path stroke-linecap="butt" stroke-linejoin="miter" fill-opacity="0" stroke-miterlimit="4" stroke="rgb(255,255,255)" stroke-opacity="1" stroke-width="7" d=" M0,-35 C19.316499710083008,-35 35,-19.316499710083008 35,0 C35,19.316499710083008 19.316499710083008,35 0,35 C-19.316499710083008,35 -35,19.316499710083008 -35,0 C-35,-19.316499710083008 -19.316499710083008,-35 0,-35z"/></g></g><g transform="matrix(0.7059999704360962,0,0,0.7059999704360962,-51.499996185302734,-61.027496337890625)" opacity="1" style="display: block;"><g opacity="1" transform="matrix(1,0,0,1,250,250)"><path fill="rgb(245,113,25)" fill-opacity="1" d=" M41.36800003051758,-115.8499984741211 C51.88100051879883,-115.8290023803711 61.823001861572266,-112.51000213623047 70.02400207519531,-106.71800231933594 C78.05400085449219,-101.0469970703125 84.41500091552734,-93.00399780273438 88.00700378417969,-83.36399841308594 C88.00700378417969,-83.36399841308594 88.22799682617188,-82.76000213623047 88.22799682617188,-82.76000213623047 C88.22799682617188,-82.76000213623047 103.22200012207031,-40.82099914550781 103.22200012207031,-40.82099914550781 C109.11100006103516,-40.694000244140625 114.21800231933594,-38.38199996948242 117.96900177001953,-34.6879997253418 C121.6989974975586,-31.014999389648438 124.08799743652344,-25.976999282836914 124.33000183105469,-20.365999221801758 C124.5719985961914,-14.755999565124512 122.625,-9.531000137329102 119.2249984741211,-5.550000190734863 C116.447998046875,-2.2990000247955322 112.7020034790039,0.12200000137090683 108.38700103759766,1.2450000047683716 C108.38700103759766,1.2450000047683716 107.9219970703125,1.3609999418258667 107.9219970703125,1.3609999418258667 C107.9219970703125,1.3609999418258667 95.88600158691406,89.75900268554688 95.88600158691406,89.75900268554688 C94.60299682617188,97.45800018310547 90.58100128173828,104.08999633789062 84.93199920654297,108.74099731445312 C79.4520034790039,113.25299835205078 72.44100189208984,115.9010009765625 64.91400146484375,115.8489990234375 C64.91400146484375,115.8489990234375 64.38800048828125,115.84100341796875 64.38800048828125,115.84100341796875 C64.38800048828125,115.84100341796875 -64.37899780273438,115.84100341796875 -64.37899780273438,115.84100341796875 C-72.1050033569336,116.02300262451172 -79.31500244140625,113.35800170898438 -84.9229965209961,108.74099731445312 C-90.44599914550781,104.19300079345703 -94.41500091552734,97.7509994506836 -95.78800201416016,90.2699966430664 C-95.78800201416016,90.2699966430664 -95.87699890136719,89.75900268554688 -95.87699890136719,89.75900268554688 C-95.87699890136719,89.75900268554688 -107.91400146484375,1.3630000352859497 -107.91400146484375,1.3630000352859497 C-112.43000030517578,0.296999990940094 -116.3499984741211,-2.183000087738037 -119.22799682617188,-5.553999900817871 C-122.62699890136719,-9.53600025177002 -124.5739974975586,-14.76200008392334 -124.33000183105469,-20.37299919128418 C-124.08599853515625,-25.983999252319336 -121.69400024414062,-31.02199935913086 -117.96199798583984,-34.694000244140625 C-114.31400299072266,-38.284000396728516 -109.38500213623047,-40.56800079345703 -103.9280014038086,-40.805999755859375 C-103.9280014038086,-40.805999755859375 -103.45899963378906,-40.82099914550781 -103.45899963378906,-40.82099914550781 C-103.45899963378906,-40.82099914550781 -88.21800231933594,-82.76300048828125 -88.21800231933594,-82.76300048828125 C-84.66999816894531,-92.66799926757812 -78.21299743652344,-100.9280014038086 -70.01599884033203,-106.71800231933594 C-61.986000061035156,-112.38999938964844 -52.2859992980957,-115.69000244140625 -42.01599884033203,-115.84400177001953 C-42.01599884033203,-115.84400177001953 -41.35900115966797,-115.8499984741211 -41.35900115966797,-115.8499984741211 C-41.35900115966797,-115.8499984741211 41.36800003051758,-115.8499984741211 41.36800003051758,-115.8499984741211z M41.35499954223633,-78.30500030517578 C41.35499954223633,-78.30500030517578 -41.34600067138672,-78.30500030517578 -41.34600067138672,-78.30500030517578 C-41.34600067138672,-78.30500030517578 -41.75400161743164,-78.2969970703125 -41.75400161743164,-78.2969970703125 C-44.18899917602539,-78.20999908447266 -46.48400115966797,-77.40599822998047 -48.395999908447266,-76.05599975585938 C-50.417999267578125,-74.62799835205078 -52.0099983215332,-72.59100341796875 -52.88600158691406,-70.14900207519531 C-52.88600158691406,-70.14900207519531 -52.88600158691406,-70.14900207519531 -52.88600158691406,-70.14900207519531 C-52.88600158691406,-70.14900207519531 -62.42100143432617,-43.45100021362305 -62.42100143432617,-43.45100021362305 C-62.42100143432617,-43.45100021362305 62.42900085449219,-43.45100021362305 62.42900085449219,-43.45100021362305 C62.42900085449219,-43.45100021362305 52.891998291015625,-70.15599822998047 52.891998291015625,-70.15599822998047 C52.891998291015625,-70.15599822998047 52.75600051879883,-70.51799774169922 52.75600051879883,-70.51799774169922 C51.85900115966797,-72.79399871826172 50.32600021362305,-74.69999694824219 48.404998779296875,-76.05599975585938 C46.387001037597656,-77.48100280761719 43.941001892089844,-78.2979965209961 41.35499954223633,-78.30500030517578 C41.35499954223633,-78.30500030517578 41.35499954223633,-78.30500030517578 41.35499954223633,-78.30500030517578z"/><path stroke-linecap="butt" stroke-linejoin="miter" fill-opacity="0" stroke-miterlimit="4" stroke="rgb(255,255,255)" stroke-opacity="1" stroke-width="11.7" d=" M41.36800003051758,-115.8499984741211 C51.88100051879883,-115.8290023803711 61.823001861572266,-112.51000213623047 70.02400207519531,-106.71800231933594 C78.05400085449219,-101.0469970703125 84.41500091552734,-93.00399780273438 88.00700378417969,-83.36399841308594 C88.00700378417969,-83.36399841308594 88.22799682617188,-82.76000213623047 88.22799682617188,-82.76000213623047 C88.22799682617188,-82.76000213623047 103.22200012207031,-40.82099914550781 103.22200012207031,-40.82099914550781 C109.11100006103516,-40.694000244140625 114.21800231933594,-38.38199996948242 117.96900177001953,-34.6879997253418 C121.6989974975586,-31.014999389648438 124.08799743652344,-25.976999282836914 124.33000183105469,-20.365999221801758 C124.5719985961914,-14.755999565124512 122.625,-9.531000137329102 119.2249984741211,-5.550000190734863 C116.447998046875,-2.2990000247955322 112.7020034790039,0.12200000137090683 108.38700103759766,1.2450000047683716 C108.38700103759766,1.2450000047683716 107.9219970703125,1.3609999418258667 107.9219970703125,1.3609999418258667 C107.9219970703125,1.3609999418258667 95.88600158691406,89.75900268554688 95.88600158691406,89.75900268554688 C94.60299682617188,97.45800018310547 90.58100128173828,104.08999633789062 84.93199920654297,108.74099731445312 C79.4520034790039,113.25299835205078 72.44100189208984,115.9010009765625 64.91400146484375,115.8489990234375 C64.91400146484375,115.8489990234375 64.38800048828125,115.84100341796875 64.38800048828125,115.84100341796875 C64.38800048828125,115.84100341796875 -64.37899780273438,115.84100341796875 -64.37899780273438,115.84100341796875 C-72.1050033569336,116.02300262451172 -79.31500244140625,113.35800170898438 -84.9229965209961,108.74099731445312 C-90.44599914550781,104.19300079345703 -94.41500091552734,97.7509994506836 -95.78800201416016,90.2699966430664 C-95.78800201416016,90.2699966430664 -95.87699890136719,89.75900268554688 -95.87699890136719,89.75900268554688 C-95.87699890136719,89.75900268554688 -107.91400146484375,1.3630000352859497 -107.91400146484375,1.3630000352859497 C-112.43000030517578,0.296999990940094 -116.3499984741211,-2.183000087738037 -119.22799682617188,-5.553999900817871 C-122.62699890136719,-9.53600025177002 -124.5739974975586,-14.76200008392334 -124.33000183105469,-20.37299919128418 C-124.08599853515625,-25.983999252319336 -121.69400024414062,-31.02199935913086 -117.96199798583984,-34.694000244140625 C-114.31400299072266,-38.284000396728516 -109.38500213623047,-40.56800079345703 -103.9280014038086,-40.805999755859375 C-103.9280014038086,-40.805999755859375 -103.45899963378906,-40.82099914550781 -103.45899963378906,-40.82099914550781 C-103.45899963378906,-40.82099914550781 -88.21800231933594,-82.76300048828125 -88.21800231933594,-82.76300048828125 C-84.66999816894531,-92.66799926757812 -78.21299743652344,-100.9280014038086 -70.01599884033203,-106.71800231933594 C-61.986000061035156,-112.38999938964844 -52.2859992980957,-115.69000244140625 -42.01599884033203,-115.84400177001953 C-42.01599884033203,-115.84400177001953 -41.35900115966797,-115.8499984741211 -41.35900115966797,-115.8499984741211 C-41.35900115966797,-115.8499984741211 41.36800003051758,-115.8499984741211 41.36800003051758,-115.8499984741211z M41.35499954223633,-78.30500030517578 C41.35499954223633,-78.30500030517578 -41.34600067138672,-78.30500030517578 -41.34600067138672,-78.30500030517578 C-41.34600067138672,-78.30500030517578 -41.75400161743164,-78.2969970703125 -41.75400161743164,-78.2969970703125 C-44.18899917602539,-78.20999908447266 -46.48400115966797,-77.40599822998047 -48.395999908447266,-76.05599975585938 C-50.417999267578125,-74.62799835205078 -52.0099983215332,-72.59100341796875 -52.88600158691406,-70.14900207519531 C-52.88600158691406,-70.14900207519531 -52.88600158691406,-70.14900207519531 -52.88600158691406,-70.14900207519531 C-52.88600158691406,-70.14900207519531 -62.42100143432617,-43.45100021362305 -62.42100143432617,-43.45100021362305 C-62.42100143432617,-43.45100021362305 62.42900085449219,-43.45100021362305 62.42900085449219,-43.45100021362305 C62.42900085449219,-43.45100021362305 52.891998291015625,-70.15599822998047 52.891998291015625,-70.15599822998047 C52.891998291015625,-70.15599822998047 52.75600051879883,-70.51799774169922 52.75600051879883,-70.51799774169922 C51.85900115966797,-72.79399871826172 50.32600021362305,-74.69999694824219 48.404998779296875,-76.05599975585938 C46.387001037597656,-77.48100280761719 43.941001892089844,-78.2979965209961 41.35499954223633,-78.30500030517578 C41.35499954223633,-78.30500030517578 41.35499954223633,-78.30500030517578 41.35499954223633,-78.30500030517578z"/></g><g opacity="1" transform="matrix(1,0,0,1,203.4770050048828,291.6809997558594)"><path fill="rgb(255,255,255)" fill-opacity="1" d=" M0,36.597999572753906 C-5.5229997634887695,36.597999572753906 -10,20.211999893188477 -10,0 C-10,-20.211999893188477 -5.5229997634887695,-36.597999572753906 0,-36.597999572753906 C5.5229997634887695,-36.597999572753906 10,-20.211999893188477 10,0 C10,20.211999893188477 5.5229997634887695,36.597999572753906 0,36.597999572753906z"/></g><g opacity="1" transform="matrix(1,0,0,1,296.531005859375,291.6809997558594)"><path fill="rgb(255,255,255)" fill-opacity="1" d=" M0,36.597999572753906 C-5.5229997634887695,36.597999572753906 -10,20.211999893188477 -10,0 C-10,-20.211999893188477 -5.5229997634887695,-36.597999572753906 0,-36.597999572753906 C5.5229997634887695,-36.597999572753906 10,-20.211999893188477 10,0 C10,20.211999893188477 5.5229997634887695,36.597999572753906 0,36.597999572753906z"/></g><g opacity="1" transform="matrix(1,0,0,1,249.531005859375,291.6809997558594)"><path fill="rgb(255,255,255)" fill-opacity="1" d=" M0,36.597999572753906 C-5.5229997634887695,36.597999572753906 -10,20.211999893188477 -10,0 C-10,-20.211999893188477 -5.5229997634887695,-36.597999572753906 0,-36.597999572753906 C5.5229997634887695,-36.597999572753906 10,-20.211999893188477 10,0 C10,20.211999893188477 5.5229997634887695,36.597999572753906 0,36.597999572753906z"/></g></g><g style="display: none;"><g><path/><path stroke-linecap="butt" stroke-linejoin="miter" fill-opacity="0" stroke-miterlimit="4"/></g></g><g style="display: none;"><g><path/><path stroke-linecap="butt" stroke-linejoin="miter" fill-opacity="0" stroke-miterlimit="4"/></g></g><g style="display: none;"><g><path/><path stroke-linecap="butt" stroke-linejoin="miter" fill-opacity="0" stroke-miterlimit="4"/></g></g></g></svg>