<svg xmlns="http://www.w3.org/2000/svg" viewBox="0 0 250 250" width="250" height="250" preserveAspectRatio="xMidYMid meet" style="width: 100%; height: 100%; transform: translate3d(0px, 0px, 0px); content-visibility: visible;"><defs><clipPath id="__lottie_element_215"><rect width="250" height="250" x="0" y="0"/></clipPath></defs><g clip-path="url(#__lottie_element_215)"><g transform="matrix(0.64000004529953,0,0,0.64000004529953,45,19)" opacity="1" style="display: block;"><g opacity="1" transform="matrix(1,0,0,1,125,150)"><path fill="rgb(223,36,178)" fill-opacity="1" d=" M78.8499984741211,96.25 C78.8499984741211,101.65899658203125 76.66500091552734,106.55599975585938 73.13700103759766,110.0999984741211 C69.5989990234375,113.65399932861328 64.70999908447266,115.8499984741211 59.3120002746582,115.8499984741211 C59.3120002746582,115.8499984741211 59.3120002746582,115.8499984741211 59.3120002746582,115.8499984741211 C59.3120002746582,115.8499984741211 22.356000900268555,115.8499984741211 22.356000900268555,115.8499984741211 C18.79400062561035,115.8499984741211 15.477999687194824,114.59200286865234 12.87399959564209,112.45700073242188 C10.277999877929688,110.3280029296875 8.390999794006348,107.3270034790039 7.679999828338623,103.82599639892578 C7.308000087738037,101.98400115966797 6.316999912261963,100.4000015258789 4.949999809265137,99.27799987792969 C3.5910000801086426,98.16200256347656 1.8600000143051147,97.50299835205078 0,97.50299835205078 C-1.8600000143051147,97.50299835205078 -3.5910000801086426,98.16200256347656 -4.949999809265137,99.27799987792969 C-6.316999912261963,100.4000015258789 -7.308000087738037,101.98400115966797 -7.681000232696533,103.83200073242188 C-8.390999794006348,107.3280029296875 -10.277999877929688,110.3280029296875 -12.87399959564209,112.45700073242188 C-15.477999687194824,114.59200286865234 -18.79400062561035,115.8499984741211 -22.356000900268555,115.8499984741211 C-22.356000900268555,115.8499984741211 -22.356000900268555,115.8499984741211 -22.356000900268555,115.8499984741211 C-22.356000900268555,115.8499984741211 -59.3120002746582,115.8499984741211 -59.3120002746582,115.8499984741211 C-64.70999908447266,115.8499984741211 -69.5989990234375,113.65399932861328 -73.13700103759766,110.0999984741211 C-76.66500091552734,106.55599975585938 -78.8499984741211,101.65899658203125 -78.8499984741211,96.25 C-78.8499984741211,96.25 -78.8499984741211,96.25 -78.8499984741211,96.25 C-78.8499984741211,96.25 -78.8499984741211,-96.25 -78.8499984741211,-96.25 C-78.8499984741211,-101.44499969482422 -76.79399871826172,-106.427001953125 -73.13700103759766,-110.0999984741211 C-69.47100067138672,-113.78299713134766 -64.49700164794922,-115.8499984741211 -59.3120002746582,-115.8499984741211 C-59.3120002746582,-115.8499984741211 -59.3120002746582,-115.8499984741211 -59.3120002746582,-115.8499984741211 C-59.3120002746582,-115.8499984741211 -22.356000900268555,-115.8499984741211 -22.356000900268555,-115.8499984741211 C-18.79400062561035,-115.8499984741211 -15.477999687194824,-114.59200286865234 -12.87399959564209,-112.45700073242188 C-10.277999877929688,-110.3280029296875 -8.390999794006348,-107.3270034790039 -7.679999828338623,-103.82599639892578 C-7.308000087738037,-101.98400115966797 -6.316999912261963,-100.4000015258789 -4.949999809265137,-99.27799987792969 C-3.5910000801086426,-98.16200256347656 -1.8600000143051147,-97.50299835205078 0,-97.50299835205078 C1.8600000143051147,-97.50299835205078 3.5910000801086426,-98.16200256347656 4.949999809265137,-99.27799987792969 C6.316999912261963,-100.4000015258789 7.308000087738037,-101.98400115966797 7.681000232696533,-103.83200073242188 C8.390999794006348,-107.3280029296875 10.277999877929688,-110.3280029296875 12.87399959564209,-112.45700073242188 C15.477999687194824,-114.59200286865234 18.79400062561035,-115.8499984741211 22.356000900268555,-115.8499984741211 C22.356000900268555,-115.8499984741211 22.356000900268555,-115.8499984741211 22.356000900268555,-115.8499984741211 C22.356000900268555,-115.8499984741211 59.3120002746582,-115.8499984741211 59.3120002746582,-115.8499984741211 C64.70999908447266,-115.8499984741211 69.5989990234375,-113.65399932861328 73.13700103759766,-110.0999984741211 C76.66500091552734,-106.55599975585938 78.8499984741211,-101.65899658203125 78.8499984741211,-96.25 C78.8499984741211,-96.25 78.8499984741211,-96.25 78.8499984741211,-96.25 C78.8499984741211,-96.25 78.8499984741211,96.25 78.8499984741211,96.25z"/><path stroke-linecap="butt" stroke-linejoin="round" fill-opacity="0" stroke="rgb(255,255,255)" stroke-opacity="1" stroke-width="11.7" d=" M78.8499984741211,96.25 C78.8499984741211,101.65899658203125 76.66500091552734,106.55599975585938 73.13700103759766,110.0999984741211 C69.5989990234375,113.65399932861328 64.70999908447266,115.8499984741211 59.3120002746582,115.8499984741211 C59.3120002746582,115.8499984741211 59.3120002746582,115.8499984741211 59.3120002746582,115.8499984741211 C59.3120002746582,115.8499984741211 22.356000900268555,115.8499984741211 22.356000900268555,115.8499984741211 C18.79400062561035,115.8499984741211 15.477999687194824,114.59200286865234 12.87399959564209,112.45700073242188 C10.277999877929688,110.3280029296875 8.390999794006348,107.3270034790039 7.679999828338623,103.82599639892578 C7.308000087738037,101.98400115966797 6.316999912261963,100.4000015258789 4.949999809265137,99.27799987792969 C3.5910000801086426,98.16200256347656 1.8600000143051147,97.50299835205078 0,97.50299835205078 C-1.8600000143051147,97.50299835205078 -3.5910000801086426,98.16200256347656 -4.949999809265137,99.27799987792969 C-6.316999912261963,100.4000015258789 -7.308000087738037,101.98400115966797 -7.681000232696533,103.83200073242188 C-8.390999794006348,107.3280029296875 -10.277999877929688,110.3280029296875 -12.87399959564209,112.45700073242188 C-15.477999687194824,114.59200286865234 -18.79400062561035,115.8499984741211 -22.356000900268555,115.8499984741211 C-22.356000900268555,115.8499984741211 -22.356000900268555,115.8499984741211 -22.356000900268555,115.8499984741211 C-22.356000900268555,115.8499984741211 -59.3120002746582,115.8499984741211 -59.3120002746582,115.8499984741211 C-64.70999908447266,115.8499984741211 -69.5989990234375,113.65399932861328 -73.13700103759766,110.0999984741211 C-76.66500091552734,106.55599975585938 -78.8499984741211,101.65899658203125 -78.8499984741211,96.25 C-78.8499984741211,96.25 -78.8499984741211,96.25 -78.8499984741211,96.25 C-78.8499984741211,96.25 -78.8499984741211,-96.25 -78.8499984741211,-96.25 C-78.8499984741211,-101.44499969482422 -76.79399871826172,-106.427001953125 -73.13700103759766,-110.0999984741211 C-69.47100067138672,-113.78299713134766 -64.49700164794922,-115.8499984741211 -59.3120002746582,-115.8499984741211 C-59.3120002746582,-115.8499984741211 -59.3120002746582,-115.8499984741211 -59.3120002746582,-115.8499984741211 C-59.3120002746582,-115.8499984741211 -22.356000900268555,-115.8499984741211 -22.356000900268555,-115.8499984741211 C-18.79400062561035,-115.8499984741211 -15.477999687194824,-114.59200286865234 -12.87399959564209,-112.45700073242188 C-10.277999877929688,-110.3280029296875 -8.390999794006348,-107.3270034790039 -7.679999828338623,-103.82599639892578 C-7.308000087738037,-101.98400115966797 -6.316999912261963,-100.4000015258789 -4.949999809265137,-99.27799987792969 C-3.5910000801086426,-98.16200256347656 -1.8600000143051147,-97.50299835205078 0,-97.50299835205078 C1.8600000143051147,-97.50299835205078 3.5910000801086426,-98.16200256347656 4.949999809265137,-99.27799987792969 C6.316999912261963,-100.4000015258789 7.308000087738037,-101.98400115966797 7.681000232696533,-103.83200073242188 C8.390999794006348,-107.3280029296875 10.277999877929688,-110.3280029296875 12.87399959564209,-112.45700073242188 C15.477999687194824,-114.59200286865234 18.79400062561035,-115.8499984741211 22.356000900268555,-115.8499984741211 C22.356000900268555,-115.8499984741211 22.356000900268555,-115.8499984741211 22.356000900268555,-115.8499984741211 C22.356000900268555,-115.8499984741211 59.3120002746582,-115.8499984741211 59.3120002746582,-115.8499984741211 C64.70999908447266,-115.8499984741211 69.5989990234375,-113.65399932861328 73.13700103759766,-110.0999984741211 C76.66500091552734,-106.55599975585938 78.8499984741211,-101.65899658203125 78.8499984741211,-96.25 C78.8499984741211,-96.25 78.8499984741211,-96.25 78.8499984741211,-96.25 C78.8499984741211,-96.25 78.8499984741211,96.25 78.8499984741211,96.25z"/></g><g opacity="1" transform="matrix(1,0,0,1,74.84100341796875,88.09700012207031)"><path fill="rgb(255,255,255)" fill-opacity="1" d=" M0,6.8470001220703125 C-3.7950000762939453,6.8470001220703125 -6.872000217437744,3.7809998989105225 -6.872000217437744,0 C-6.872000217437744,-3.7809998989105225 -3.7950000762939453,-6.8470001220703125 0,-6.8470001220703125 C3.7950000762939453,-6.8470001220703125 6.872000217437744,-3.7809998989105225 6.872000217437744,0 C6.872000217437744,3.7809998989105225 3.7950000762939453,6.8470001220703125 0,6.8470001220703125z"/></g><g opacity="1" transform="matrix(1,0,0,1,108.302001953125,88.09700012207031)"><path fill="rgb(255,255,255)" fill-opacity="1" d=" M0,6.8470001220703125 C-3.7950000762939453,6.8470001220703125 -6.872000217437744,3.7809998989105225 -6.872000217437744,0 C-6.872000217437744,-3.7809998989105225 -3.7950000762939453,-6.8470001220703125 0,-6.8470001220703125 C3.7950000762939453,-6.8470001220703125 6.872000217437744,-3.7809998989105225 6.872000217437744,0 C6.872000217437744,3.7809998989105225 3.7950000762939453,6.8470001220703125 0,6.8470001220703125 C0,6.8470001220703125 0,6.8470001220703125 0,6.8470001220703125z"/></g><g opacity="1" transform="matrix(1,0,0,1,141.75399780273438,88.09700012207031)"><path fill="rgb(255,255,255)" fill-opacity="1" d=" M0,6.8470001220703125 C-3.7950000762939453,6.8470001220703125 -6.872000217437744,3.7809998989105225 -6.872000217437744,0 C-6.872000217437744,-3.7809998989105225 -3.7950000762939453,-6.8470001220703125 0,-6.8470001220703125 C3.7950000762939453,-6.8470001220703125 6.872000217437744,-3.7809998989105225 6.872000217437744,0 C6.872000217437744,3.7809998989105225 3.7950000762939453,6.8470001220703125 0,6.8470001220703125z"/></g><g opacity="1" transform="matrix(1,0,0,1,175.21600341796875,88.09700012207031)"><path fill="rgb(255,255,255)" fill-opacity="1" d=" M0,6.8470001220703125 C-3.7950000762939453,6.8470001220703125 -6.872000217437744,3.7809998989105225 -6.872000217437744,0 C-6.872000217437744,-3.7809998989105225 -3.7950000762939453,-6.8470001220703125 0,-6.8470001220703125 C3.7950000762939453,-6.8470001220703125 6.872000217437744,-3.7809998989105225 6.872000217437744,0 C6.872000217437744,3.7809998989105225 3.7950000762939453,6.8470001220703125 0,6.8470001220703125z"/></g><g opacity="1" transform="matrix(1,0,0,1,102.25299835205078,195.76800537109375)"><path fill="rgb(255,255,255)" fill-opacity="1" d=" M0,15.97599983215332 C-8.855999946594238,15.97599983215332 -16.034000396728516,8.822999954223633 -16.034000396728516,0 C-16.034000396728516,-8.822999954223633 -8.855999946594238,-15.97599983215332 0,-15.97599983215332 C8.855999946594238,-15.97599983215332 16.034000396728516,-8.822999954223633 16.034000396728516,0 C16.02899932861328,8.821000099182129 8.852999687194824,15.970999717712402 0,15.97599983215332z"/></g><g opacity="1" transform="matrix(1,0,0,1,161.5,168.33299255371094)"><path fill="rgb(255,255,255)" fill-opacity="1" d=" M-6.843999862670898,41.25 C-6.843999862670898,41.25 -6.843999862670898,-41.25 -6.843999862670898,-41.25 C-6.843999862670898,-45.047000885009766 -3.7799999713897705,-48.125 0,-48.125 C3.7799999713897705,-48.125 6.843999862670898,-45.047000885009766 6.843999862670898,-41.25 C6.843999862670898,-41.25 6.843999862670898,41.25 6.843999862670898,41.25 C6.843999862670898,45.047000885009766 3.7799999713897705,48.125 0,48.125 C-3.7799999713897705,48.125 -6.843999862670898,45.047000885009766 -6.843999862670898,41.25z"/></g></g><g transform="matrix(0.64000004529953,0,0,0.64000004529953,45,19)" opacity="1" style="display: block;"><g opacity="1" transform="matrix(1,0,0,1,125,150)"><path fill="rgb(223,36,178)" fill-opacity="1" d=" M78.8499984741211,96.25 C78.8499984741211,101.65899658203125 76.66500091552734,106.55599975585938 73.13700103759766,110.0999984741211 C69.5989990234375,113.65399932861328 64.70999908447266,115.8499984741211 59.3120002746582,115.8499984741211 C59.3120002746582,115.8499984741211 59.3120002746582,115.8499984741211 59.3120002746582,115.8499984741211 C59.3120002746582,115.8499984741211 22.356000900268555,115.8499984741211 22.356000900268555,115.8499984741211 C18.79400062561035,115.8499984741211 15.477999687194824,114.59200286865234 12.87399959564209,112.45700073242188 C10.277999877929688,110.3280029296875 8.390999794006348,107.3270034790039 7.679999828338623,103.82599639892578 C7.308000087738037,101.98400115966797 6.316999912261963,100.4000015258789 4.949999809265137,99.27799987792969 C3.5910000801086426,98.16200256347656 1.8600000143051147,97.50299835205078 0,97.50299835205078 C-1.8600000143051147,97.50299835205078 -3.5910000801086426,98.16200256347656 -4.949999809265137,99.27799987792969 C-6.316999912261963,100.4000015258789 -7.308000087738037,101.98400115966797 -7.681000232696533,103.83200073242188 C-8.390999794006348,107.3280029296875 -10.277999877929688,110.3280029296875 -12.87399959564209,112.45700073242188 C-15.477999687194824,114.59200286865234 -18.79400062561035,115.8499984741211 -22.356000900268555,115.8499984741211 C-22.356000900268555,115.8499984741211 -22.356000900268555,115.8499984741211 -22.356000900268555,115.8499984741211 C-22.356000900268555,115.8499984741211 -59.3120002746582,115.8499984741211 -59.3120002746582,115.8499984741211 C-64.70999908447266,115.8499984741211 -69.5989990234375,113.65399932861328 -73.13700103759766,110.0999984741211 C-76.66500091552734,106.55599975585938 -78.8499984741211,101.65899658203125 -78.8499984741211,96.25 C-78.8499984741211,96.25 -78.8499984741211,96.25 -78.8499984741211,96.25 C-78.8499984741211,96.25 -78.8499984741211,-96.25 -78.8499984741211,-96.25 C-78.8499984741211,-101.44499969482422 -76.79399871826172,-106.427001953125 -73.13700103759766,-110.0999984741211 C-69.47100067138672,-113.78299713134766 -64.49700164794922,-115.8499984741211 -59.3120002746582,-115.8499984741211 C-59.3120002746582,-115.8499984741211 -59.3120002746582,-115.8499984741211 -59.3120002746582,-115.8499984741211 C-59.3120002746582,-115.8499984741211 -22.356000900268555,-115.8499984741211 -22.356000900268555,-115.8499984741211 C-18.79400062561035,-115.8499984741211 -15.477999687194824,-114.59200286865234 -12.87399959564209,-112.45700073242188 C-10.277999877929688,-110.3280029296875 -8.390999794006348,-107.3270034790039 -7.679999828338623,-103.82599639892578 C-7.308000087738037,-101.98400115966797 -6.316999912261963,-100.4000015258789 -4.949999809265137,-99.27799987792969 C-3.5910000801086426,-98.16200256347656 -1.8600000143051147,-97.50299835205078 0,-97.50299835205078 C1.8600000143051147,-97.50299835205078 3.5910000801086426,-98.16200256347656 4.949999809265137,-99.27799987792969 C6.316999912261963,-100.4000015258789 7.308000087738037,-101.98400115966797 7.681000232696533,-103.83200073242188 C8.390999794006348,-107.3280029296875 10.277999877929688,-110.3280029296875 12.87399959564209,-112.45700073242188 C15.477999687194824,-114.59200286865234 18.79400062561035,-115.8499984741211 22.356000900268555,-115.8499984741211 C22.356000900268555,-115.8499984741211 22.356000900268555,-115.8499984741211 22.356000900268555,-115.8499984741211 C22.356000900268555,-115.8499984741211 59.3120002746582,-115.8499984741211 59.3120002746582,-115.8499984741211 C64.70999908447266,-115.8499984741211 69.5989990234375,-113.65399932861328 73.13700103759766,-110.0999984741211 C76.66500091552734,-106.55599975585938 78.8499984741211,-101.65899658203125 78.8499984741211,-96.25 C78.8499984741211,-96.25 78.8499984741211,-96.25 78.8499984741211,-96.25 C78.8499984741211,-96.25 78.8499984741211,96.25 78.8499984741211,96.25z"/><path stroke-linecap="butt" stroke-linejoin="round" fill-opacity="0" stroke="rgb(255,255,255)" stroke-opacity="1" stroke-width="11.7" d=" M78.8499984741211,96.25 C78.8499984741211,101.65899658203125 76.66500091552734,106.55599975585938 73.13700103759766,110.0999984741211 C69.5989990234375,113.65399932861328 64.70999908447266,115.8499984741211 59.3120002746582,115.8499984741211 C59.3120002746582,115.8499984741211 59.3120002746582,115.8499984741211 59.3120002746582,115.8499984741211 C59.3120002746582,115.8499984741211 22.356000900268555,115.8499984741211 22.356000900268555,115.8499984741211 C18.79400062561035,115.8499984741211 15.477999687194824,114.59200286865234 12.87399959564209,112.45700073242188 C10.277999877929688,110.3280029296875 8.390999794006348,107.3270034790039 7.679999828338623,103.82599639892578 C7.308000087738037,101.98400115966797 6.316999912261963,100.4000015258789 4.949999809265137,99.27799987792969 C3.5910000801086426,98.16200256347656 1.8600000143051147,97.50299835205078 0,97.50299835205078 C-1.8600000143051147,97.50299835205078 -3.5910000801086426,98.16200256347656 -4.949999809265137,99.27799987792969 C-6.316999912261963,100.4000015258789 -7.308000087738037,101.98400115966797 -7.681000232696533,103.83200073242188 C-8.390999794006348,107.3280029296875 -10.277999877929688,110.3280029296875 -12.87399959564209,112.45700073242188 C-15.477999687194824,114.59200286865234 -18.79400062561035,115.8499984741211 -22.356000900268555,115.8499984741211 C-22.356000900268555,115.8499984741211 -22.356000900268555,115.8499984741211 -22.356000900268555,115.8499984741211 C-22.356000900268555,115.8499984741211 -59.3120002746582,115.8499984741211 -59.3120002746582,115.8499984741211 C-64.70999908447266,115.8499984741211 -69.5989990234375,113.65399932861328 -73.13700103759766,110.0999984741211 C-76.66500091552734,106.55599975585938 -78.8499984741211,101.65899658203125 -78.8499984741211,96.25 C-78.8499984741211,96.25 -78.8499984741211,96.25 -78.8499984741211,96.25 C-78.8499984741211,96.25 -78.8499984741211,-96.25 -78.8499984741211,-96.25 C-78.8499984741211,-101.44499969482422 -76.79399871826172,-106.427001953125 -73.13700103759766,-110.0999984741211 C-69.47100067138672,-113.78299713134766 -64.49700164794922,-115.8499984741211 -59.3120002746582,-115.8499984741211 C-59.3120002746582,-115.8499984741211 -59.3120002746582,-115.8499984741211 -59.3120002746582,-115.8499984741211 C-59.3120002746582,-115.8499984741211 -22.356000900268555,-115.8499984741211 -22.356000900268555,-115.8499984741211 C-18.79400062561035,-115.8499984741211 -15.477999687194824,-114.59200286865234 -12.87399959564209,-112.45700073242188 C-10.277999877929688,-110.3280029296875 -8.390999794006348,-107.3270034790039 -7.679999828338623,-103.82599639892578 C-7.308000087738037,-101.98400115966797 -6.316999912261963,-100.4000015258789 -4.949999809265137,-99.27799987792969 C-3.5910000801086426,-98.16200256347656 -1.8600000143051147,-97.50299835205078 0,-97.50299835205078 C1.8600000143051147,-97.50299835205078 3.5910000801086426,-98.16200256347656 4.949999809265137,-99.27799987792969 C6.316999912261963,-100.4000015258789 7.308000087738037,-101.98400115966797 7.681000232696533,-103.83200073242188 C8.390999794006348,-107.3280029296875 10.277999877929688,-110.3280029296875 12.87399959564209,-112.45700073242188 C15.477999687194824,-114.59200286865234 18.79400062561035,-115.8499984741211 22.356000900268555,-115.8499984741211 C22.356000900268555,-115.8499984741211 22.356000900268555,-115.8499984741211 22.356000900268555,-115.8499984741211 C22.356000900268555,-115.8499984741211 59.3120002746582,-115.8499984741211 59.3120002746582,-115.8499984741211 C64.70999908447266,-115.8499984741211 69.5989990234375,-113.65399932861328 73.13700103759766,-110.0999984741211 C76.66500091552734,-106.55599975585938 78.8499984741211,-101.65899658203125 78.8499984741211,-96.25 C78.8499984741211,-96.25 78.8499984741211,-96.25 78.8499984741211,-96.25 C78.8499984741211,-96.25 78.8499984741211,96.25 78.8499984741211,96.25z"/></g><g opacity="1" transform="matrix(1,0,0,1,74.84100341796875,88.09700012207031)"><path fill="rgb(255,255,255)" fill-opacity="1" d=" M0,6.8470001220703125 C-3.7950000762939453,6.8470001220703125 -6.872000217437744,3.7809998989105225 -6.872000217437744,0 C-6.872000217437744,-3.7809998989105225 -3.7950000762939453,-6.8470001220703125 0,-6.8470001220703125 C3.7950000762939453,-6.8470001220703125 6.872000217437744,-3.7809998989105225 6.872000217437744,0 C6.872000217437744,3.7809998989105225 3.7950000762939453,6.8470001220703125 0,6.8470001220703125z"/></g><g opacity="1" transform="matrix(1,0,0,1,108.302001953125,88.09700012207031)"><path fill="rgb(255,255,255)" fill-opacity="1" d=" M0,6.8470001220703125 C-3.7950000762939453,6.8470001220703125 -6.872000217437744,3.7809998989105225 -6.872000217437744,0 C-6.872000217437744,-3.7809998989105225 -3.7950000762939453,-6.8470001220703125 0,-6.8470001220703125 C3.7950000762939453,-6.8470001220703125 6.872000217437744,-3.7809998989105225 6.872000217437744,0 C6.872000217437744,3.7809998989105225 3.7950000762939453,6.8470001220703125 0,6.8470001220703125 C0,6.8470001220703125 0,6.8470001220703125 0,6.8470001220703125z"/></g><g opacity="1" transform="matrix(1,0,0,1,141.75399780273438,88.09700012207031)"><path fill="rgb(255,255,255)" fill-opacity="1" d=" M0,6.8470001220703125 C-3.7950000762939453,6.8470001220703125 -6.872000217437744,3.7809998989105225 -6.872000217437744,0 C-6.872000217437744,-3.7809998989105225 -3.7950000762939453,-6.8470001220703125 0,-6.8470001220703125 C3.7950000762939453,-6.8470001220703125 6.872000217437744,-3.7809998989105225 6.872000217437744,0 C6.872000217437744,3.7809998989105225 3.7950000762939453,6.8470001220703125 0,6.8470001220703125z"/></g><g opacity="1" transform="matrix(1,0,0,1,175.21600341796875,88.09700012207031)"><path fill="rgb(255,255,255)" fill-opacity="1" d=" M0,6.8470001220703125 C-3.7950000762939453,6.8470001220703125 -6.872000217437744,3.7809998989105225 -6.872000217437744,0 C-6.872000217437744,-3.7809998989105225 -3.7950000762939453,-6.8470001220703125 0,-6.8470001220703125 C3.7950000762939453,-6.8470001220703125 6.872000217437744,-3.7809998989105225 6.872000217437744,0 C6.872000217437744,3.7809998989105225 3.7950000762939453,6.8470001220703125 0,6.8470001220703125z"/></g><g opacity="1" transform="matrix(1,0,0,1,102.25299835205078,195.76800537109375)"><path fill="rgb(255,255,255)" fill-opacity="1" d=" M0,15.97599983215332 C-8.855999946594238,15.97599983215332 -16.034000396728516,8.822999954223633 -16.034000396728516,0 C-16.034000396728516,-8.822999954223633 -8.855999946594238,-15.97599983215332 0,-15.97599983215332 C8.855999946594238,-15.97599983215332 16.034000396728516,-8.822999954223633 16.034000396728516,0 C16.02899932861328,8.821000099182129 8.852999687194824,15.970999717712402 0,15.97599983215332z"/></g><g opacity="1" transform="matrix(1,0,0,1,161.5,168.33299255371094)"><path fill="rgb(255,255,255)" fill-opacity="1" d=" M-6.843999862670898,41.25 C-6.843999862670898,41.25 -6.843999862670898,-41.25 -6.843999862670898,-41.25 C-6.843999862670898,-45.047000885009766 -3.7799999713897705,-48.125 0,-48.125 C3.7799999713897705,-48.125 6.843999862670898,-45.047000885009766 6.843999862670898,-41.25 C6.843999862670898,-41.25 6.843999862670898,41.25 6.843999862670898,41.25 C6.843999862670898,45.047000885009766 3.7799999713897705,48.125 0,48.125 C-3.7799999713897705,48.125 -6.843999862670898,45.047000885009766 -6.843999862670898,41.25z"/></g></g><g transform="matrix(0.800000011920929,0,0,0.800000011920929,25,-5)" opacity="1" style="display: block;"><g opacity="1" transform="matrix(1,0,0,1,125,150)"><path fill="rgb(223,36,178)" fill-opacity="1" d=" M78.8499984741211,96.25 C78.8499984741211,101.65899658203125 76.66500091552734,106.55599975585938 73.13700103759766,110.0999984741211 C69.5989990234375,113.65399932861328 64.70999908447266,115.8499984741211 59.3120002746582,115.8499984741211 C59.3120002746582,115.8499984741211 59.3120002746582,115.8499984741211 59.3120002746582,115.8499984741211 C59.3120002746582,115.8499984741211 22.356000900268555,115.8499984741211 22.356000900268555,115.8499984741211 C18.79400062561035,115.8499984741211 15.477999687194824,114.59200286865234 12.87399959564209,112.45700073242188 C10.277999877929688,110.3280029296875 8.390999794006348,107.3270034790039 7.679999828338623,103.82599639892578 C7.308000087738037,101.98400115966797 6.316999912261963,100.4000015258789 4.949999809265137,99.27799987792969 C3.5910000801086426,98.16200256347656 1.8600000143051147,97.50299835205078 0,97.50299835205078 C-1.8600000143051147,97.50299835205078 -3.5910000801086426,98.16200256347656 -4.949999809265137,99.27799987792969 C-6.316999912261963,100.4000015258789 -7.308000087738037,101.98400115966797 -7.681000232696533,103.83200073242188 C-8.390999794006348,107.3280029296875 -10.277999877929688,110.3280029296875 -12.87399959564209,112.45700073242188 C-15.477999687194824,114.59200286865234 -18.79400062561035,115.8499984741211 -22.356000900268555,115.8499984741211 C-22.356000900268555,115.8499984741211 -22.356000900268555,115.8499984741211 -22.356000900268555,115.8499984741211 C-22.356000900268555,115.8499984741211 -59.3120002746582,115.8499984741211 -59.3120002746582,115.8499984741211 C-64.70999908447266,115.8499984741211 -69.5989990234375,113.65399932861328 -73.13700103759766,110.0999984741211 C-76.66500091552734,106.55599975585938 -78.8499984741211,101.65899658203125 -78.8499984741211,96.25 C-78.8499984741211,96.25 -78.8499984741211,96.25 -78.8499984741211,96.25 C-78.8499984741211,96.25 -78.8499984741211,-96.25 -78.8499984741211,-96.25 C-78.8499984741211,-101.44499969482422 -76.79399871826172,-106.427001953125 -73.13700103759766,-110.0999984741211 C-69.47100067138672,-113.78299713134766 -64.49700164794922,-115.8499984741211 -59.3120002746582,-115.8499984741211 C-59.3120002746582,-115.8499984741211 -59.3120002746582,-115.8499984741211 -59.3120002746582,-115.8499984741211 C-59.3120002746582,-115.8499984741211 -22.356000900268555,-115.8499984741211 -22.356000900268555,-115.8499984741211 C-18.79400062561035,-115.8499984741211 -15.477999687194824,-114.59200286865234 -12.87399959564209,-112.45700073242188 C-10.277999877929688,-110.3280029296875 -8.390999794006348,-107.3270034790039 -7.679999828338623,-103.82599639892578 C-7.308000087738037,-101.98400115966797 -6.316999912261963,-100.4000015258789 -4.949999809265137,-99.27799987792969 C-3.5910000801086426,-98.16200256347656 -1.8600000143051147,-97.50299835205078 0,-97.50299835205078 C1.8600000143051147,-97.50299835205078 3.5910000801086426,-98.16200256347656 4.949999809265137,-99.27799987792969 C6.316999912261963,-100.4000015258789 7.308000087738037,-101.98400115966797 7.681000232696533,-103.83200073242188 C8.390999794006348,-107.3280029296875 10.277999877929688,-110.3280029296875 12.87399959564209,-112.45700073242188 C15.477999687194824,-114.59200286865234 18.79400062561035,-115.8499984741211 22.356000900268555,-115.8499984741211 C22.356000900268555,-115.8499984741211 22.356000900268555,-115.8499984741211 22.356000900268555,-115.8499984741211 C22.356000900268555,-115.8499984741211 59.3120002746582,-115.8499984741211 59.3120002746582,-115.8499984741211 C64.70999908447266,-115.8499984741211 69.5989990234375,-113.65399932861328 73.13700103759766,-110.0999984741211 C76.66500091552734,-106.55599975585938 78.8499984741211,-101.65899658203125 78.8499984741211,-96.25 C78.8499984741211,-96.25 78.8499984741211,-96.25 78.8499984741211,-96.25 C78.8499984741211,-96.25 78.8499984741211,96.25 78.8499984741211,96.25z"/><path stroke-linecap="butt" stroke-linejoin="round" fill-opacity="0" stroke="rgb(255,255,255)" stroke-opacity="1" stroke-width="11.7" d=" M78.8499984741211,96.25 C78.8499984741211,101.65899658203125 76.66500091552734,106.55599975585938 73.13700103759766,110.0999984741211 C69.5989990234375,113.65399932861328 64.70999908447266,115.8499984741211 59.3120002746582,115.8499984741211 C59.3120002746582,115.8499984741211 59.3120002746582,115.8499984741211 59.3120002746582,115.8499984741211 C59.3120002746582,115.8499984741211 22.356000900268555,115.8499984741211 22.356000900268555,115.8499984741211 C18.79400062561035,115.8499984741211 15.477999687194824,114.59200286865234 12.87399959564209,112.45700073242188 C10.277999877929688,110.3280029296875 8.390999794006348,107.3270034790039 7.679999828338623,103.82599639892578 C7.308000087738037,101.98400115966797 6.316999912261963,100.4000015258789 4.949999809265137,99.27799987792969 C3.5910000801086426,98.16200256347656 1.8600000143051147,97.50299835205078 0,97.50299835205078 C-1.8600000143051147,97.50299835205078 -3.5910000801086426,98.16200256347656 -4.949999809265137,99.27799987792969 C-6.316999912261963,100.4000015258789 -7.308000087738037,101.98400115966797 -7.681000232696533,103.83200073242188 C-8.390999794006348,107.3280029296875 -10.277999877929688,110.3280029296875 -12.87399959564209,112.45700073242188 C-15.477999687194824,114.59200286865234 -18.79400062561035,115.8499984741211 -22.356000900268555,115.8499984741211 C-22.356000900268555,115.8499984741211 -22.356000900268555,115.8499984741211 -22.356000900268555,115.8499984741211 C-22.356000900268555,115.8499984741211 -59.3120002746582,115.8499984741211 -59.3120002746582,115.8499984741211 C-64.70999908447266,115.8499984741211 -69.5989990234375,113.65399932861328 -73.13700103759766,110.0999984741211 C-76.66500091552734,106.55599975585938 -78.8499984741211,101.65899658203125 -78.8499984741211,96.25 C-78.8499984741211,96.25 -78.8499984741211,96.25 -78.8499984741211,96.25 C-78.8499984741211,96.25 -78.8499984741211,-96.25 -78.8499984741211,-96.25 C-78.8499984741211,-101.44499969482422 -76.79399871826172,-106.427001953125 -73.13700103759766,-110.0999984741211 C-69.47100067138672,-113.78299713134766 -64.49700164794922,-115.8499984741211 -59.3120002746582,-115.8499984741211 C-59.3120002746582,-115.8499984741211 -59.3120002746582,-115.8499984741211 -59.3120002746582,-115.8499984741211 C-59.3120002746582,-115.8499984741211 -22.356000900268555,-115.8499984741211 -22.356000900268555,-115.8499984741211 C-18.79400062561035,-115.8499984741211 -15.477999687194824,-114.59200286865234 -12.87399959564209,-112.45700073242188 C-10.277999877929688,-110.3280029296875 -8.390999794006348,-107.3270034790039 -7.679999828338623,-103.82599639892578 C-7.308000087738037,-101.98400115966797 -6.316999912261963,-100.4000015258789 -4.949999809265137,-99.27799987792969 C-3.5910000801086426,-98.16200256347656 -1.8600000143051147,-97.50299835205078 0,-97.50299835205078 C1.8600000143051147,-97.50299835205078 3.5910000801086426,-98.16200256347656 4.949999809265137,-99.27799987792969 C6.316999912261963,-100.4000015258789 7.308000087738037,-101.98400115966797 7.681000232696533,-103.83200073242188 C8.390999794006348,-107.3280029296875 10.277999877929688,-110.3280029296875 12.87399959564209,-112.45700073242188 C15.477999687194824,-114.59200286865234 18.79400062561035,-115.8499984741211 22.356000900268555,-115.8499984741211 C22.356000900268555,-115.8499984741211 22.356000900268555,-115.8499984741211 22.356000900268555,-115.8499984741211 C22.356000900268555,-115.8499984741211 59.3120002746582,-115.8499984741211 59.3120002746582,-115.8499984741211 C64.70999908447266,-115.8499984741211 69.5989990234375,-113.65399932861328 73.13700103759766,-110.0999984741211 C76.66500091552734,-106.55599975585938 78.8499984741211,-101.65899658203125 78.8499984741211,-96.25 C78.8499984741211,-96.25 78.8499984741211,-96.25 78.8499984741211,-96.25 C78.8499984741211,-96.25 78.8499984741211,96.25 78.8499984741211,96.25z"/></g><g opacity="1" transform="matrix(1,0,0,1,74.84100341796875,88.09700012207031)"><path fill="rgb(255,255,255)" fill-opacity="1" d=" M0,6.8470001220703125 C-3.7950000762939453,6.8470001220703125 -6.872000217437744,3.7809998989105225 -6.872000217437744,0 C-6.872000217437744,-3.7809998989105225 -3.7950000762939453,-6.8470001220703125 0,-6.8470001220703125 C3.7950000762939453,-6.8470001220703125 6.872000217437744,-3.7809998989105225 6.872000217437744,0 C6.872000217437744,3.7809998989105225 3.7950000762939453,6.8470001220703125 0,6.8470001220703125z"/></g><g opacity="1" transform="matrix(1,0,0,1,108.302001953125,88.09700012207031)"><path fill="rgb(255,255,255)" fill-opacity="1" d=" M0,6.8470001220703125 C-3.7950000762939453,6.8470001220703125 -6.872000217437744,3.7809998989105225 -6.872000217437744,0 C-6.872000217437744,-3.7809998989105225 -3.7950000762939453,-6.8470001220703125 0,-6.8470001220703125 C3.7950000762939453,-6.8470001220703125 6.872000217437744,-3.7809998989105225 6.872000217437744,0 C6.872000217437744,3.7809998989105225 3.7950000762939453,6.8470001220703125 0,6.8470001220703125 C0,6.8470001220703125 0,6.8470001220703125 0,6.8470001220703125z"/></g><g opacity="1" transform="matrix(1,0,0,1,141.75399780273438,88.09700012207031)"><path fill="rgb(255,255,255)" fill-opacity="1" d=" M0,6.8470001220703125 C-3.7950000762939453,6.8470001220703125 -6.872000217437744,3.7809998989105225 -6.872000217437744,0 C-6.872000217437744,-3.7809998989105225 -3.7950000762939453,-6.8470001220703125 0,-6.8470001220703125 C3.7950000762939453,-6.8470001220703125 6.872000217437744,-3.7809998989105225 6.872000217437744,0 C6.872000217437744,3.7809998989105225 3.7950000762939453,6.8470001220703125 0,6.8470001220703125z"/></g><g opacity="1" transform="matrix(1,0,0,1,175.21600341796875,88.09700012207031)"><path fill="rgb(255,255,255)" fill-opacity="1" d=" M0,6.8470001220703125 C-3.7950000762939453,6.8470001220703125 -6.872000217437744,3.7809998989105225 -6.872000217437744,0 C-6.872000217437744,-3.7809998989105225 -3.7950000762939453,-6.8470001220703125 0,-6.8470001220703125 C3.7950000762939453,-6.8470001220703125 6.872000217437744,-3.7809998989105225 6.872000217437744,0 C6.872000217437744,3.7809998989105225 3.7950000762939453,6.8470001220703125 0,6.8470001220703125z"/></g><g opacity="1" transform="matrix(1,0,0,1,102.25299835205078,195.76800537109375)"><path fill="rgb(255,255,255)" fill-opacity="1" d=" M0,15.97599983215332 C-8.855999946594238,15.97599983215332 -16.034000396728516,8.822999954223633 -16.034000396728516,0 C-16.034000396728516,-8.822999954223633 -8.855999946594238,-15.97599983215332 0,-15.97599983215332 C8.855999946594238,-15.97599983215332 16.034000396728516,-8.822999954223633 16.034000396728516,0 C16.02899932861328,8.821000099182129 8.852999687194824,15.970999717712402 0,15.97599983215332z"/></g><g opacity="1" transform="matrix(1,0,0,1,161.5,168.33299255371094)"><path fill="rgb(255,255,255)" fill-opacity="1" d=" M-6.843999862670898,41.25 C-6.843999862670898,41.25 -6.843999862670898,-41.25 -6.843999862670898,-41.25 C-6.843999862670898,-45.047000885009766 -3.7799999713897705,-48.125 0,-48.125 C3.7799999713897705,-48.125 6.843999862670898,-45.047000885009766 6.843999862670898,-41.25 C6.843999862670898,-41.25 6.843999862670898,41.25 6.843999862670898,41.25 C6.843999862670898,45.047000885009766 3.7799999713897705,48.125 0,48.125 C-3.7799999713897705,48.125 -6.843999862670898,45.047000885009766 -6.843999862670898,41.25z"/></g></g></g></svg>