<svg xmlns="http://www.w3.org/2000/svg" viewBox="0 0 28 30"><path fill="#A6A7B0" d="M27.367 8.83v3.56c-1.7 0-3.36-.328-4.925-.975a12.94 12.94 0 0 1-2.796-1.6l.021 10.944c-.01 2.462-1.002 4.78-2.796 6.523a9.63 9.63 0 0 1-5.321 2.615c-.47.072-.95.103-1.44.103a9.66 9.66 0 0 1-6.75-2.718C1.418 25.395.406 22.831.583 20.133a9.035 9.035 0 0 1 2.358-5.538c1.847-2.03 4.424-3.16 7.178-3.16.48 0 .96.032 1.44.103v4.975a4.666 4.666 0 0 0-1.419-.226c-2.514 0-4.56 2.02-4.518 4.492.021 1.59.908 2.975 2.202 3.734a4.583 4.583 0 0 0 3.735.41c1.795-.585 3.099-2.246 3.099-4.205l.01-7.323V0h4.977c0 .482.052.954.146 1.415a7.552 7.552 0 0 0 2.922 4.564 7.805 7.805 0 0 0 4.643 1.529h.01V8.83Zm0 0v3.56c-1.7 0-3.36-.328-4.925-.975a12.94 12.94 0 0 1-2.796-1.6l.021 10.944c-.01 2.462-1.002 4.78-2.796 6.523a9.63 9.63 0 0 1-5.321 2.615c-.47.072-.95.103-1.44.103a9.66 9.66 0 0 1-6.75-2.718C1.418 25.395.406 22.831.583 20.133a9.035 9.035 0 0 1 2.358-5.538c1.847-2.03 4.424-3.16 7.178-3.16.48 0 .96.032 1.44.103v4.975a4.666 4.666 0 0 0-1.419-.226c-2.514 0-4.56 2.02-4.518 4.492.021 1.59.908 2.975 2.202 3.734a4.583 4.583 0 0 0 3.735.41c1.795-.585 3.099-2.246 3.099-4.205l.01-7.323V0h4.977c0 .482.052.954.146 1.415a7.552 7.552 0 0 0 2.922 4.564 7.805 7.805 0 0 0 4.643 1.529h.01V8.83Z"/></svg>