<svg xmlns="http://www.w3.org/2000/svg" viewBox="0 0 37 30"><path fill="#A6A7B0" d="M24.544.007V0h1.72l.629.127c.419.082.799.19 1.14.323.343.133.674.288.993.466.32.177.61.358.87.542.258.182.49.376.695.58.203.206.52.26.95.16.43-.1.893-.24 1.389-.417s.987-.377 1.472-.599c.485-.222.78-.363.887-.423.103-.062.159-.095.165-.1l.007-.01.033-.016.033-.017.033-.017.033-.016.007-.01.01-.007.01-.007.006-.01.033-.01.033-.006-.006.05-.01.05-.017.05-.016.05-.017.033-.016.033-.017.05a1.164 1.164 0 0 0-.033.133c-.011.056-.116.278-.314.666A8.336 8.336 0 0 1 34.5 2.83c-.297.4-.564.702-.8.906-.238.206-.396.35-.473.433-.077.084-.171.162-.281.233l-.166.11-.033.016-.033.017-.007.01-.01.007-.01.006-.006.01-.033.017-.033.017-.007.01-.01.006-.01.007-.006.01-.007.01-.01.006-.01.007-.006.01h.165l.926-.2a16.492 16.492 0 0 0 1.77-.482l.893-.3.1-.033.05-.017.032-.017.033-.016.033-.017.034-.017.066-.01.066-.006v.066l-.017.007-.016.01-.007.01-.01.007-.01.006-.006.01-.007.01-.01.007-.01.007-.006.01-.007.01-.01.006-.016.033-.017.034-.01.006c-.004.007-.144.196-.42.566-.276.373-.425.562-.447.567-.022.006-.053.04-.092.1-.038.062-.272.31-.702.742-.43.433-.85.818-1.263 1.155-.415.34-.624.757-.629 1.252-.006.493-.032 1.05-.076 1.672a21.292 21.292 0 0 1-.248 2.014 24.148 24.148 0 0 1-.563 2.447c-.253.91-.562 1.798-.926 2.664a20.809 20.809 0 0 1-1.141 2.33c-.397.689-.761 1.272-1.092 1.749-.33.477-.667.927-1.009 1.348-.342.422-.774.897-1.297 1.426-.525.526-.811.814-.86.865-.05.05-.267.231-.648.546-.38.318-.788.635-1.224.953a14.15 14.15 0 0 1-1.198.789c-.364.21-.803.451-1.316.722-.512.273-1.066.526-1.661.76-.596.232-1.224.449-1.886.649-.661.2-1.301.355-1.919.466a27.11 27.11 0 0 1-2.1.283l-1.175.116V30h-2.15v-.017l-.281-.016a14.985 14.985 0 0 1-.463-.034A54.892 54.892 0 0 1 8.4 29.75a19.7 19.7 0 0 1-1.87-.333c-.451-.11-1.124-.322-2.017-.632a19.563 19.563 0 0 1-2.293-.943 91.367 91.367 0 0 1-1.19-.599 8.44 8.44 0 0 1-.537-.306l-.298-.183-.006-.01-.01-.007-.01-.007-.007-.01-.033-.016-.033-.017-.006-.01-.01-.007-.01-.006-.007-.01-.007-.01-.01-.007H.03v-.067l.033.007.033.01.149.017c.1.01.37.028.81.05a14.83 14.83 0 0 0 2.928-.15c.519-.078 1.13-.211 1.836-.4a13.507 13.507 0 0 0 1.946-.672 27.03 27.03 0 0 0 1.257-.586c.247-.127.624-.362 1.131-.706l.761-.516.007-.01.01-.007.01-.007.006-.01.007-.01.01-.006.01-.007.006-.01.033-.01.033-.006.007-.034.01-.033.01-.007.006-.01-.264-.016a123.25 123.25 0 0 1-.513-.034 4.944 4.944 0 0 1-.777-.15 7.43 7.43 0 0 1-1.142-.4 8.78 8.78 0 0 1-1.19-.632c-.387-.244-.666-.447-.838-.609-.17-.16-.39-.386-.661-.68a6.731 6.731 0 0 1-.702-.908 8.185 8.185 0 0 1-.569-1.076l-.274-.606-.017-.05-.016-.05-.01-.033-.007-.033.05.006.05.01.363.05c.243.034.623.045 1.142.034.518-.011.876-.034 1.075-.067.198-.033.32-.055.364-.066l.066-.017.082-.017.083-.016.007-.01.01-.007.01-.007.006-.01-.066-.016-.066-.017-.066-.017-.066-.016-.067-.017a6.049 6.049 0 0 1-.231-.067 12.64 12.64 0 0 1-.893-.366c-.486-.21-.871-.416-1.158-.616-.288-.2-.562-.42-.82-.656a9.4 9.4 0 0 1-.85-.925 6.666 6.666 0 0 1-.828-1.316 8.03 8.03 0 0 1-.546-1.431c-.12-.453-.2-.915-.238-1.382l-.06-.7.034.007.033.01.033.017.033.017.033.016.033.017.513.233a6.44 6.44 0 0 0 1.273.4c.508.11.81.172.91.183l.15.016h.297l-.007-.01-.01-.006-.01-.007-.006-.01-.007-.01-.01-.007-.01-.006-.006-.01-.033-.017-.034-.017-.006-.01-.01-.006-.01-.007-.007-.01-.033-.017-.033-.016-.006-.01a41.264 41.264 0 0 1-.285-.213 4.35 4.35 0 0 1-.569-.543 19.555 19.555 0 0 1-.595-.7 5.401 5.401 0 0 1-.53-.782 9.514 9.514 0 0 1-.49-1.059 7.552 7.552 0 0 1-.535-2.57c-.011-.422 0-.782.033-1.082.033-.3.1-.638.198-1.016.1-.377.243-.777.43-1.198l.282-.633.016-.05.017-.05.01-.007.006-.01.007-.01.01-.006.01.007.006.01.007.01.01.006.01.007.006.01.007.01.01.006.016.034.017.033.01.007.007.01.446.5c.298.332.65.704 1.059 1.115.408.41.634.623.678.639.044.018.1.069.165.153.067.082.287.279.662.59.375.31.866.67 1.472 1.081.607.411 1.28.816 2.018 1.216.739.4 1.533.76 2.382 1.082.85.322 1.445.533 1.786.633.342.1.927.227 1.754.382.827.156 1.45.256 1.869.3.419.045.706.07.86.077l.232.006-.007-.05-.01-.05-.066-.416a7.875 7.875 0 0 1-.066-1.165c0-.5.038-.96.116-1.382.077-.422.193-.849.347-1.282a6.87 6.87 0 0 1 .453-1.042c.15-.26.346-.556.589-.889.243-.333.557-.677.943-1.032a6.958 6.958 0 0 1 1.323-.95 8.576 8.576 0 0 1 1.373-.632 6.364 6.364 0 0 1 1.059-.283c.286-.044.43-.07.43-.076Z"/></svg>