<svg xmlns="http://www.w3.org/2000/svg" viewBox="0 0 500 350" width="500" height="350" preserveAspectRatio="xMidYMid meet" style="width: 100%; height: 100%; transform: translate3d(0px, 0px, 0px); content-visibility: visible;"><defs><clipPath id="__lottie_element_251"><rect width="500" height="350" x="0" y="0"/></clipPath><clipPath id="__lottie_element_253"><path d="M0,0 L500,0 L500,350 L0,350z"/></clipPath><clipPath id="__lottie_element_267"><path d="M0,0 L500,0 L500,350 L0,350z"/></clipPath></defs><g clip-path="url(#__lottie_element_251)"><g clip-path="url(#__lottie_element_267)" style="display: none;"><g style="display: none;"><g><g><g><path/><path stroke-linecap="butt" stroke-linejoin="miter" fill-opacity="0" stroke-miterlimit="4"/></g><g><g><path/></g><g><path/></g><g><path/></g></g></g></g></g><g style="display: none;"><g><g><g><path/><path stroke-linecap="butt" stroke-linejoin="miter" fill-opacity="0" stroke-miterlimit="4"/></g><g><g><path/></g><g><path/></g><g><path/></g></g></g></g></g><g style="display: none;"><g><g><g><path/><path stroke-linecap="butt" stroke-linejoin="miter" fill-opacity="0" stroke-miterlimit="4"/></g><g><g><path/></g><g><path/></g><g><path/></g></g></g></g></g></g><g clip-path="url(#__lottie_element_253)" transform="matrix(1,0,0,1,0,0)" opacity="1" style="display: block;"><g transform="matrix(0.9659258127212524,0.258819043636322,-0.258819043636322,0.9659258127212524,70.62440490722656,-114.6106185913086)" opacity="1" style="display: block;"><g opacity="1" transform="matrix(1,0,0,1,0,0)"><g opacity="1" transform="matrix(1,0,0,1,0,0)"><g opacity="1" transform="matrix(1,0,0,1,154.78700256347656,254.43800354003906)"><path fill="rgb(33,35,55)" fill-opacity="1" d=" M76.51699829101562,-34.2599983215332 C76.50800323486328,-47.345001220703125 76.4260025024414,-58.40599822998047 75.4229965209961,-67.447998046875 C74.35199737548828,-77.09200286865234 72.13300323486328,-85.99299621582031 66.28500366210938,-93.58100128173828 C64.4229965209961,-95.99700164794922 62.34299850463867,-98.21199798583984 60.07400131225586,-100.19499969482422 C53.04999923706055,-106.33300018310547 44.80500030517578,-108.66999816894531 35.882999420166016,-109.79299926757812 C27.229000091552734,-110.88200378417969 16.60099983215332,-110.94499969482422 3.994999885559082,-110.95099639892578 C3.994999885559082,-110.95099639892578 3.994999885559082,-110.95099639892578 3.994999885559082,-110.95099639892578 C3.994999885559082,-110.95099639892578 -3.993000030517578,-110.95099639892578 -3.993000030517578,-110.95099639892578 C-16.60099983215332,-110.94499969482422 -27.229000091552734,-110.88099670410156 -35.88199996948242,-109.79299926757812 C-44.80500030517578,-108.66999816894531 -53.05099868774414,-106.33300018310547 -60.07500076293945,-100.19499969482422 C-62.34400177001953,-98.21299743652344 -64.4229965209961,-95.99700164794922 -66.28500366210938,-93.58100128173828 C-72.13300323486328,-85.99299621582031 -74.35299682617188,-77.09100341796875 -75.4229965209961,-67.447998046875 C-76.4260025024414,-58.404998779296875 -76.50900268554688,-47.345001220703125 -76.51799774169922,-34.263999938964844 C-76.51799774169922,-34.263999938964844 -76.51799774169922,-34.263999938964844 -76.51799774169922,-34.263999938964844 C-76.51799774169922,-34.263999938964844 -76.51699829101562,34.2599983215332 -76.51699829101562,34.2599983215332 C-76.50800323486328,47.345001220703125 -76.4260025024414,58.40599822998047 -75.4229965209961,67.447998046875 C-74.35199737548828,77.09200286865234 -72.13300323486328,85.99299621582031 -66.28500366210938,93.58100128173828 C-64.4229965209961,95.99700164794922 -62.34299850463867,98.21199798583984 -60.07400131225586,100.19499969482422 C-53.04999923706055,106.33300018310547 -44.80400085449219,108.66999816894531 -35.88199996948242,109.79299926757812 C-27.22800064086914,110.88200378417969 -16.600000381469727,110.94499969482422 -3.99399995803833,110.95099639892578 C-3.99399995803833,110.95099639892578 -3.99399995803833,110.95099639892578 -3.99399995803833,110.95099639892578 C-3.99399995803833,110.95099639892578 3.993000030517578,110.95099639892578 3.993000030517578,110.95099639892578 C16.60099983215332,110.94499969482422 27.229999542236328,110.88200378417969 35.882999420166016,109.79299926757812 C44.805999755859375,108.66999816894531 53.05099868774414,106.33300018310547 60.07500076293945,100.19499969482422 C62.34400177001953,98.21199798583984 64.4229965209961,95.99700164794922 66.28500366210938,93.58100128173828 C72.13300323486328,85.99199676513672 74.35299682617188,77.09100341796875 75.4229965209961,67.447998046875 C76.4260025024414,58.404998779296875 76.50900268554688,47.345001220703125 76.51799774169922,34.263999938964844 C76.51799774169922,34.263999938964844 76.51799774169922,34.263999938964844 76.51799774169922,34.263999938964844 C76.51799774169922,34.263999938964844 76.51699829101562,-34.2599983215332 76.51699829101562,-34.2599983215332z"/><path stroke-linecap="butt" stroke-linejoin="miter" fill-opacity="0" stroke-miterlimit="4" stroke="rgb(255,255,255)" stroke-opacity="1" stroke-width="11" d=" M76.51699829101562,-34.2599983215332 C76.50800323486328,-47.345001220703125 76.4260025024414,-58.40599822998047 75.4229965209961,-67.447998046875 C74.35199737548828,-77.09200286865234 72.13300323486328,-85.99299621582031 66.28500366210938,-93.58100128173828 C64.4229965209961,-95.99700164794922 62.34299850463867,-98.21199798583984 60.07400131225586,-100.19499969482422 C53.04999923706055,-106.33300018310547 44.80500030517578,-108.66999816894531 35.882999420166016,-109.79299926757812 C27.229000091552734,-110.88200378417969 16.60099983215332,-110.94499969482422 3.994999885559082,-110.95099639892578 C3.994999885559082,-110.95099639892578 3.994999885559082,-110.95099639892578 3.994999885559082,-110.95099639892578 C3.994999885559082,-110.95099639892578 -3.993000030517578,-110.95099639892578 -3.993000030517578,-110.95099639892578 C-16.60099983215332,-110.94499969482422 -27.229000091552734,-110.88099670410156 -35.88199996948242,-109.79299926757812 C-44.80500030517578,-108.66999816894531 -53.05099868774414,-106.33300018310547 -60.07500076293945,-100.19499969482422 C-62.34400177001953,-98.21299743652344 -64.4229965209961,-95.99700164794922 -66.28500366210938,-93.58100128173828 C-72.13300323486328,-85.99299621582031 -74.35299682617188,-77.09100341796875 -75.4229965209961,-67.447998046875 C-76.4260025024414,-58.404998779296875 -76.50900268554688,-47.345001220703125 -76.51799774169922,-34.263999938964844 C-76.51799774169922,-34.263999938964844 -76.51799774169922,-34.263999938964844 -76.51799774169922,-34.263999938964844 C-76.51799774169922,-34.263999938964844 -76.51699829101562,34.2599983215332 -76.51699829101562,34.2599983215332 C-76.50800323486328,47.345001220703125 -76.4260025024414,58.40599822998047 -75.4229965209961,67.447998046875 C-74.35199737548828,77.09200286865234 -72.13300323486328,85.99299621582031 -66.28500366210938,93.58100128173828 C-64.4229965209961,95.99700164794922 -62.34299850463867,98.21199798583984 -60.07400131225586,100.19499969482422 C-53.04999923706055,106.33300018310547 -44.80400085449219,108.66999816894531 -35.88199996948242,109.79299926757812 C-27.22800064086914,110.88200378417969 -16.600000381469727,110.94499969482422 -3.99399995803833,110.95099639892578 C-3.99399995803833,110.95099639892578 -3.99399995803833,110.95099639892578 -3.99399995803833,110.95099639892578 C-3.99399995803833,110.95099639892578 3.993000030517578,110.95099639892578 3.993000030517578,110.95099639892578 C16.60099983215332,110.94499969482422 27.229999542236328,110.88200378417969 35.882999420166016,109.79299926757812 C44.805999755859375,108.66999816894531 53.05099868774414,106.33300018310547 60.07500076293945,100.19499969482422 C62.34400177001953,98.21199798583984 64.4229965209961,95.99700164794922 66.28500366210938,93.58100128173828 C72.13300323486328,85.99199676513672 74.35299682617188,77.09100341796875 75.4229965209961,67.447998046875 C76.4260025024414,58.404998779296875 76.50900268554688,47.345001220703125 76.51799774169922,34.263999938964844 C76.51799774169922,34.263999938964844 76.51799774169922,34.263999938964844 76.51799774169922,34.263999938964844 C76.51799774169922,34.263999938964844 76.51699829101562,-34.2599983215332 76.51699829101562,-34.2599983215332z"/></g><g opacity="1" transform="matrix(1,0,0,1,0,0)"><g opacity="1" transform="matrix(1,0,0,1,181.44000244140625,306.47601318359375)"><path fill="rgb(255,90,0)" fill-opacity="1" d=" M11.673999786376953,6.835000038146973 C11.673999786376953,6.835000038146973 11.904999732971191,-6.422999858856201 11.904999732971191,-6.422999858856201 C11.904999732971191,-6.422999858856201 -11.673999786376953,-6.835000038146973 -11.673999786376953,-6.835000038146973 C-11.673999786376953,-6.835000038146973 -11.904999732971191,6.422999858856201 -11.904999732971191,6.422999858856201 C-11.904999732971191,6.422999858856201 11.673999786376953,6.835000038146973 11.673999786376953,6.835000038146973z"/></g><g opacity="1" transform="matrix(1,0,0,1,181.2779998779297,318.6029968261719)"><path fill="rgb(235,0,27)" fill-opacity="1" d=" M0.06199999898672104,-6.380000114440918 C4.853000164031982,-6.296000003814697 9.145000457763672,-8.498000144958496 11.95300006866455,-11.940999984741211 C13.907999992370605,-9.336999893188477 15.0600004196167,-6.073999881744385 14.998000144958496,-2.5390000343322754 C14.85200023651123,5.835999965667725 8.026000022888184,12.494999885559082 -0.2639999985694885,12.350000381469727 C-8.553999900817871,12.204999923706055 -15.144000053405762,5.311999797821045 -14.998000144958496,-3.062999963760376 C-14.935999870300293,-6.5980000495910645 -13.670999526977539,-9.817999839782715 -11.62600040435791,-12.35200023651123 C-8.979000091552734,-8.809000015258789 -4.729000091552734,-6.464000225067139 0.06199999898672104,-6.380000114440918z"/></g><g opacity="1" transform="matrix(1,0,0,1,181.60400390625,294.30999755859375)"><path fill="rgb(247,158,27)" fill-opacity="1" d=" M0.2639999985694885,-12.350000381469727 C-8.026000022888184,-12.494999885559082 -14.85200023651123,-5.835999965667725 -14.998000144958496,2.5390000343322754 C-15.0600004196167,6.073999881744385 -13.907999992370605,9.336999893188477 -11.95300006866455,11.940999984741211 C-9.138999938964844,8.454000473022461 -4.853000164031982,6.296000003814697 -0.06199999898672104,6.380000114440918 C4.729000091552734,6.464000225067139 8.9399995803833,8.812999725341797 11.62600040435791,12.35200023651123 C13.670000076293945,9.822999954223633 14.935999870300293,6.603000164031982 14.998000144958496,3.068000078201294 C15.144000053405762,-5.311999797821045 8.510000228881836,-12.206000328063965 0.2639999985694885,-12.350000381469727z"/></g></g></g></g></g><g transform="matrix(1,0,0,1,0.2790069580078125,-56.13799285888672)" opacity="1" style="display: block;"><g opacity="1" transform="matrix(1,0,0,1,0,0)"><g opacity="1" transform="matrix(1,0,0,1,0,0)"><g opacity="1" transform="matrix(1,0,0,1,249.5,254.43800354003906)"><path fill="rgb(34,173,128)" fill-opacity="1" d=" M-76.51799774169922,-34.2599983215332 C-76.50900268554688,-47.345001220703125 -76.4260025024414,-58.40599822998047 -75.4229965209961,-67.447998046875 C-74.35199737548828,-77.09200286865234 -72.13300323486328,-85.99199676513672 -66.28500366210938,-93.58000183105469 C-64.4229965209961,-95.99600219726562 -62.34299850463867,-98.21199798583984 -60.07400131225586,-100.19499969482422 C-53.04999923706055,-106.33300018310547 -44.80500030517578,-108.66999816894531 -35.882999420166016,-109.79299926757812 C-27.229000091552734,-110.88200378417969 -16.60099983215332,-110.94499969482422 -3.994999885559082,-110.95099639892578 C-3.994999885559082,-110.95099639892578 -3.994999885559082,-110.95099639892578 -3.994999885559082,-110.95099639892578 C-3.994999885559082,-110.95099639892578 3.993000030517578,-110.95099639892578 3.993000030517578,-110.95099639892578 C16.60099983215332,-110.94499969482422 27.229000091552734,-110.88099670410156 35.88199996948242,-109.79299926757812 C44.80500030517578,-108.66999816894531 53.04999923706055,-106.33300018310547 60.07400131225586,-100.19499969482422 C62.34299850463867,-98.21299743652344 64.4229965209961,-95.99700164794922 66.28500366210938,-93.58100128173828 C72.13300323486328,-85.99299621582031 74.35299682617188,-77.09100341796875 75.4229965209961,-67.447998046875 C76.4260025024414,-58.404998779296875 76.50900268554688,-47.345001220703125 76.51799774169922,-34.263999938964844 C76.51799774169922,-34.263999938964844 76.51799774169922,-34.263999938964844 76.51799774169922,-34.263999938964844 C76.51799774169922,-34.263999938964844 76.51799774169922,34.2599983215332 76.51799774169922,34.2599983215332 C76.50900268554688,47.345001220703125 76.4260025024414,58.40599822998047 75.4229965209961,67.447998046875 C74.35199737548828,77.09200286865234 72.13300323486328,85.99199676513672 66.28500366210938,93.58000183105469 C64.4229965209961,95.99600219726562 62.34299850463867,98.21199798583984 60.07400131225586,100.19499969482422 C53.04999923706055,106.33300018310547 44.80500030517578,108.66999816894531 35.882999420166016,109.79299926757812 C27.229000091552734,110.88200378417969 16.600000381469727,110.94499969482422 3.99399995803833,110.95099639892578 C3.99399995803833,110.95099639892578 3.99399995803833,110.95099639892578 3.99399995803833,110.95099639892578 C3.99399995803833,110.95099639892578 -3.993000030517578,110.95099639892578 -3.993000030517578,110.95099639892578 C-16.60099983215332,110.94499969482422 -27.229000091552734,110.88200378417969 -35.88199996948242,109.79299926757812 C-44.80500030517578,108.66999816894531 -53.04999923706055,106.33300018310547 -60.07400131225586,100.19499969482422 C-62.34299850463867,98.21199798583984 -64.4229965209961,95.99700164794922 -66.28500366210938,93.58100128173828 C-72.13300323486328,85.99199676513672 -74.35299682617188,77.09100341796875 -75.4229965209961,67.447998046875 C-76.4260025024414,58.404998779296875 -76.50900268554688,47.345001220703125 -76.51799774169922,34.263999938964844 C-76.51799774169922,34.263999938964844 -76.51799774169922,34.263999938964844 -76.51799774169922,34.263999938964844 C-76.51799774169922,34.263999938964844 -76.51799774169922,-34.2599983215332 -76.51799774169922,-34.2599983215332z"/><path stroke-linecap="butt" stroke-linejoin="miter" fill-opacity="0" stroke-miterlimit="4" stroke="rgb(255,255,255)" stroke-opacity="1" stroke-width="11" d=" M-76.51799774169922,-34.2599983215332 C-76.50900268554688,-47.345001220703125 -76.4260025024414,-58.40599822998047 -75.4229965209961,-67.447998046875 C-74.35199737548828,-77.09200286865234 -72.13300323486328,-85.99199676513672 -66.28500366210938,-93.58000183105469 C-64.4229965209961,-95.99600219726562 -62.34299850463867,-98.21199798583984 -60.07400131225586,-100.19499969482422 C-53.04999923706055,-106.33300018310547 -44.80500030517578,-108.66999816894531 -35.882999420166016,-109.79299926757812 C-27.229000091552734,-110.88200378417969 -16.60099983215332,-110.94499969482422 -3.994999885559082,-110.95099639892578 C-3.994999885559082,-110.95099639892578 -3.994999885559082,-110.95099639892578 -3.994999885559082,-110.95099639892578 C-3.994999885559082,-110.95099639892578 3.993000030517578,-110.95099639892578 3.993000030517578,-110.95099639892578 C16.60099983215332,-110.94499969482422 27.229000091552734,-110.88099670410156 35.88199996948242,-109.79299926757812 C44.80500030517578,-108.66999816894531 53.04999923706055,-106.33300018310547 60.07400131225586,-100.19499969482422 C62.34299850463867,-98.21299743652344 64.4229965209961,-95.99700164794922 66.28500366210938,-93.58100128173828 C72.13300323486328,-85.99299621582031 74.35299682617188,-77.09100341796875 75.4229965209961,-67.447998046875 C76.4260025024414,-58.404998779296875 76.50900268554688,-47.345001220703125 76.51799774169922,-34.263999938964844 C76.51799774169922,-34.263999938964844 76.51799774169922,-34.263999938964844 76.51799774169922,-34.263999938964844 C76.51799774169922,-34.263999938964844 76.51799774169922,34.2599983215332 76.51799774169922,34.2599983215332 C76.50900268554688,47.345001220703125 76.4260025024414,58.40599822998047 75.4229965209961,67.447998046875 C74.35199737548828,77.09200286865234 72.13300323486328,85.99199676513672 66.28500366210938,93.58000183105469 C64.4229965209961,95.99600219726562 62.34299850463867,98.21199798583984 60.07400131225586,100.19499969482422 C53.04999923706055,106.33300018310547 44.80500030517578,108.66999816894531 35.882999420166016,109.79299926757812 C27.229000091552734,110.88200378417969 16.600000381469727,110.94499969482422 3.99399995803833,110.95099639892578 C3.99399995803833,110.95099639892578 3.99399995803833,110.95099639892578 3.99399995803833,110.95099639892578 C3.99399995803833,110.95099639892578 -3.993000030517578,110.95099639892578 -3.993000030517578,110.95099639892578 C-16.60099983215332,110.94499969482422 -27.229000091552734,110.88200378417969 -35.88199996948242,109.79299926757812 C-44.80500030517578,108.66999816894531 -53.04999923706055,106.33300018310547 -60.07400131225586,100.19499969482422 C-62.34299850463867,98.21199798583984 -64.4229965209961,95.99700164794922 -66.28500366210938,93.58100128173828 C-72.13300323486328,85.99199676513672 -74.35299682617188,77.09100341796875 -75.4229965209961,67.447998046875 C-76.4260025024414,58.404998779296875 -76.50900268554688,47.345001220703125 -76.51799774169922,34.263999938964844 C-76.51799774169922,34.263999938964844 -76.51799774169922,34.263999938964844 -76.51799774169922,34.263999938964844 C-76.51799774169922,34.263999938964844 -76.51799774169922,-34.2599983215332 -76.51799774169922,-34.2599983215332z"/></g><g opacity="1" transform="matrix(1,0,0,1,0,0)"><g opacity="1" transform="matrix(1,0,0,1,222.51499938964844,305.5060119628906)"><path fill="rgb(255,90,0)" fill-opacity="1" d=" M-11.673999786376953,6.835000038146973 C-11.673999786376953,6.835000038146973 -11.904999732971191,-6.422999858856201 -11.904999732971191,-6.422999858856201 C-11.904999732971191,-6.422999858856201 11.673999786376953,-6.835000038146973 11.673999786376953,-6.835000038146973 C11.673999786376953,-6.835000038146973 11.904999732971191,6.422999858856201 11.904999732971191,6.422999858856201 C11.904999732971191,6.422999858856201 -11.673999786376953,6.835000038146973 -11.673999786376953,6.835000038146973z"/></g><g opacity="1" transform="matrix(1,0,0,1,222.67799377441406,317.63299560546875)"><path fill="rgb(235,0,27)" fill-opacity="1" d=" M-0.06199999898672104,-6.380000114440918 C-4.853000164031982,-6.296000003814697 -9.145000457763672,-8.498000144958496 -11.95300006866455,-11.940999984741211 C-13.907999992370605,-9.336999893188477 -15.0600004196167,-6.073999881744385 -14.998000144958496,-2.5390000343322754 C-14.85200023651123,5.835999965667725 -8.026000022888184,12.494999885559082 0.2639999985694885,12.350000381469727 C8.553999900817871,12.204999923706055 15.144000053405762,5.311999797821045 14.998000144958496,-3.062999963760376 C14.935999870300293,-6.5980000495910645 13.670999526977539,-9.817999839782715 11.62600040435791,-12.35200023651123 C8.979000091552734,-8.809000015258789 4.729000091552734,-6.464000225067139 -0.06199999898672104,-6.380000114440918z"/></g><g opacity="1" transform="matrix(1,0,0,1,222.3520050048828,293.3399963378906)"><path fill="rgb(247,158,27)" fill-opacity="1" d=" M-0.2639999985694885,-12.350000381469727 C8.026000022888184,-12.494999885559082 14.85200023651123,-5.835999965667725 14.998000144958496,2.5390000343322754 C15.0600004196167,6.073999881744385 13.907999992370605,9.336999893188477 11.95300006866455,11.940999984741211 C9.138999938964844,8.454000473022461 4.853000164031982,6.296000003814697 0.06199999898672104,6.380000114440918 C-4.729000091552734,6.464000225067139 -8.9399995803833,8.812999725341797 -11.62600040435791,12.35200023651123 C-13.670000076293945,9.822999954223633 -14.935999870300293,6.603000164031982 -14.998000144958496,3.068000078201294 C-15.144000053405762,-5.311999797821045 -8.510000228881836,-12.206000328063965 -0.2639999985694885,-12.350000381469727z"/></g></g></g></g></g><g transform="matrix(0.9659258127212524,-0.258819043636322,0.258819043636322,0.9659258127212524,-54.21638488769531,14.699520111083984)" opacity="1" style="display: block;"><g opacity="1" transform="matrix(1,0,0,1,0,0)"><g opacity="1" transform="matrix(1,0,0,1,0,0)"><g opacity="1" transform="matrix(1,0,0,1,344.8290100097656,254.43800354003906)"><path fill="rgb(117,63,246)" fill-opacity="1" d=" M-76.51699829101562,-34.2599983215332 C-76.50800323486328,-47.345001220703125 -76.4260025024414,-58.40599822998047 -75.4229965209961,-67.447998046875 C-74.35199737548828,-77.09200286865234 -72.13300323486328,-85.99299621582031 -66.28500366210938,-93.58100128173828 C-64.4229965209961,-95.99700164794922 -62.34299850463867,-98.21199798583984 -60.07400131225586,-100.19499969482422 C-53.04999923706055,-106.33300018310547 -44.80500030517578,-108.66999816894531 -35.882999420166016,-109.79299926757812 C-27.229000091552734,-110.88200378417969 -16.60099983215332,-110.94499969482422 -3.994999885559082,-110.95099639892578 C-3.994999885559082,-110.95099639892578 -3.994999885559082,-110.95099639892578 -3.994999885559082,-110.95099639892578 C-3.994999885559082,-110.95099639892578 3.993000030517578,-110.95099639892578 3.993000030517578,-110.95099639892578 C16.60099983215332,-110.94499969482422 27.229000091552734,-110.88099670410156 35.88199996948242,-109.79299926757812 C44.80500030517578,-108.66999816894531 53.05099868774414,-106.33300018310547 60.07500076293945,-100.19499969482422 C62.34400177001953,-98.21299743652344 64.4229965209961,-95.99700164794922 66.28500366210938,-93.58100128173828 C72.13300323486328,-85.99299621582031 74.35299682617188,-77.09100341796875 75.4229965209961,-67.447998046875 C76.4260025024414,-58.404998779296875 76.50900268554688,-47.345001220703125 76.51799774169922,-34.263999938964844 C76.51799774169922,-34.263999938964844 76.51799774169922,-34.263999938964844 76.51799774169922,-34.263999938964844 C76.51799774169922,-34.263999938964844 76.51699829101562,34.2599983215332 76.51699829101562,34.2599983215332 C76.50800323486328,47.345001220703125 76.4260025024414,58.40599822998047 75.4229965209961,67.447998046875 C74.35199737548828,77.09200286865234 72.13300323486328,85.99299621582031 66.28500366210938,93.58100128173828 C64.4229965209961,95.99700164794922 62.34299850463867,98.21199798583984 60.07400131225586,100.19499969482422 C53.04999923706055,106.33300018310547 44.80400085449219,108.66999816894531 35.88199996948242,109.79299926757812 C27.22800064086914,110.88200378417969 16.600000381469727,110.94499969482422 3.99399995803833,110.95099639892578 C3.99399995803833,110.95099639892578 3.99399995803833,110.95099639892578 3.99399995803833,110.95099639892578 C3.99399995803833,110.95099639892578 -3.993000030517578,110.95099639892578 -3.993000030517578,110.95099639892578 C-16.60099983215332,110.94499969482422 -27.229999542236328,110.88200378417969 -35.882999420166016,109.79299926757812 C-44.805999755859375,108.66999816894531 -53.05099868774414,106.33300018310547 -60.07500076293945,100.19499969482422 C-62.34400177001953,98.21199798583984 -64.4229965209961,95.99700164794922 -66.28500366210938,93.58100128173828 C-72.13300323486328,85.99199676513672 -74.35299682617188,77.09100341796875 -75.4229965209961,67.447998046875 C-76.4260025024414,58.404998779296875 -76.50900268554688,47.345001220703125 -76.51799774169922,34.263999938964844 C-76.51799774169922,34.263999938964844 -76.51799774169922,34.263999938964844 -76.51799774169922,34.263999938964844 C-76.51799774169922,34.263999938964844 -76.51699829101562,-34.2599983215332 -76.51699829101562,-34.2599983215332z"/><path stroke-linecap="butt" stroke-linejoin="miter" fill-opacity="0" stroke-miterlimit="4" stroke="rgb(255,255,255)" stroke-opacity="1" stroke-width="11" d=" M-76.51699829101562,-34.2599983215332 C-76.50800323486328,-47.345001220703125 -76.4260025024414,-58.40599822998047 -75.4229965209961,-67.447998046875 C-74.35199737548828,-77.09200286865234 -72.13300323486328,-85.99299621582031 -66.28500366210938,-93.58100128173828 C-64.4229965209961,-95.99700164794922 -62.34299850463867,-98.21199798583984 -60.07400131225586,-100.19499969482422 C-53.04999923706055,-106.33300018310547 -44.80500030517578,-108.66999816894531 -35.882999420166016,-109.79299926757812 C-27.229000091552734,-110.88200378417969 -16.60099983215332,-110.94499969482422 -3.994999885559082,-110.95099639892578 C-3.994999885559082,-110.95099639892578 -3.994999885559082,-110.95099639892578 -3.994999885559082,-110.95099639892578 C-3.994999885559082,-110.95099639892578 3.993000030517578,-110.95099639892578 3.993000030517578,-110.95099639892578 C16.60099983215332,-110.94499969482422 27.229000091552734,-110.88099670410156 35.88199996948242,-109.79299926757812 C44.80500030517578,-108.66999816894531 53.05099868774414,-106.33300018310547 60.07500076293945,-100.19499969482422 C62.34400177001953,-98.21299743652344 64.4229965209961,-95.99700164794922 66.28500366210938,-93.58100128173828 C72.13300323486328,-85.99299621582031 74.35299682617188,-77.09100341796875 75.4229965209961,-67.447998046875 C76.4260025024414,-58.404998779296875 76.50900268554688,-47.345001220703125 76.51799774169922,-34.263999938964844 C76.51799774169922,-34.263999938964844 76.51799774169922,-34.263999938964844 76.51799774169922,-34.263999938964844 C76.51799774169922,-34.263999938964844 76.51699829101562,34.2599983215332 76.51699829101562,34.2599983215332 C76.50800323486328,47.345001220703125 76.4260025024414,58.40599822998047 75.4229965209961,67.447998046875 C74.35199737548828,77.09200286865234 72.13300323486328,85.99299621582031 66.28500366210938,93.58100128173828 C64.4229965209961,95.99700164794922 62.34299850463867,98.21199798583984 60.07400131225586,100.19499969482422 C53.04999923706055,106.33300018310547 44.80400085449219,108.66999816894531 35.88199996948242,109.79299926757812 C27.22800064086914,110.88200378417969 16.600000381469727,110.94499969482422 3.99399995803833,110.95099639892578 C3.99399995803833,110.95099639892578 3.99399995803833,110.95099639892578 3.99399995803833,110.95099639892578 C3.99399995803833,110.95099639892578 -3.993000030517578,110.95099639892578 -3.993000030517578,110.95099639892578 C-16.60099983215332,110.94499969482422 -27.229999542236328,110.88200378417969 -35.882999420166016,109.79299926757812 C-44.805999755859375,108.66999816894531 -53.05099868774414,106.33300018310547 -60.07500076293945,100.19499969482422 C-62.34400177001953,98.21199798583984 -64.4229965209961,95.99700164794922 -66.28500366210938,93.58100128173828 C-72.13300323486328,85.99199676513672 -74.35299682617188,77.09100341796875 -75.4229965209961,67.447998046875 C-76.4260025024414,58.404998779296875 -76.50900268554688,47.345001220703125 -76.51799774169922,34.263999938964844 C-76.51799774169922,34.263999938964844 -76.51799774169922,34.263999938964844 -76.51799774169922,34.263999938964844 C-76.51799774169922,34.263999938964844 -76.51699829101562,-34.2599983215332 -76.51699829101562,-34.2599983215332z"/></g><g opacity="1" transform="matrix(1,0,0,1,0,0)"><g opacity="1" transform="matrix(1,0,0,1,316.8169860839844,301.97100830078125)"><path fill="rgb(255,90,0)" fill-opacity="1" d=" M-11.673999786376953,6.835000038146973 C-11.673999786376953,6.835000038146973 -11.904999732971191,-6.422999858856201 -11.904999732971191,-6.422999858856201 C-11.904999732971191,-6.422999858856201 11.673999786376953,-6.835000038146973 11.673999786376953,-6.835000038146973 C11.673999786376953,-6.835000038146973 11.904999732971191,6.422999858856201 11.904999732971191,6.422999858856201 C11.904999732971191,6.422999858856201 -11.673999786376953,6.835000038146973 -11.673999786376953,6.835000038146973z"/></g><g opacity="1" transform="matrix(1,0,0,1,316.9800109863281,314.0979919433594)"><path fill="rgb(235,0,27)" fill-opacity="1" d=" M-0.06199999898672104,-6.380000114440918 C-4.853000164031982,-6.296000003814697 -9.145000457763672,-8.498000144958496 -11.95300006866455,-11.940999984741211 C-13.907999992370605,-9.336999893188477 -15.0600004196167,-6.073999881744385 -14.998000144958496,-2.5390000343322754 C-14.85200023651123,5.835999965667725 -8.026000022888184,12.494999885559082 0.2639999985694885,12.350000381469727 C8.553999900817871,12.204999923706055 15.144000053405762,5.311999797821045 14.998000144958496,-3.062999963760376 C14.935999870300293,-6.5980000495910645 13.670999526977539,-9.817999839782715 11.62600040435791,-12.35200023651123 C8.979000091552734,-8.809000015258789 4.729000091552734,-6.464000225067139 -0.06199999898672104,-6.380000114440918z"/></g><g opacity="1" transform="matrix(1,0,0,1,316.65399169921875,289.80499267578125)"><path fill="rgb(247,158,27)" fill-opacity="1" d=" M-0.2639999985694885,-12.350000381469727 C8.026000022888184,-12.494999885559082 14.85200023651123,-5.835999965667725 14.998000144958496,2.5390000343322754 C15.0600004196167,6.073999881744385 13.907999992370605,9.336999893188477 11.95300006866455,11.940999984741211 C9.138999938964844,8.454000473022461 4.853000164031982,6.296000003814697 0.06199999898672104,6.380000114440918 C-4.729000091552734,6.464000225067139 -8.9399995803833,8.812999725341797 -11.62600040435791,12.35200023651123 C-13.670000076293945,9.822999954223633 -14.935999870300293,6.603000164031982 -14.998000144958496,3.068000078201294 C-15.144000053405762,-5.311999797821045 -8.510000228881836,-12.206000328063965 -0.2639999985694885,-12.350000381469727z"/></g></g></g></g></g></g></g></svg>