<svg xmlns="http://www.w3.org/2000/svg" viewBox="0 0 250 250" width="250" height="250" preserveAspectRatio="xMidYMid meet" style="width: 100%; height: 100%; transform: translate3d(0px, 0px, 0px); content-visibility: visible;"><defs><clipPath id="__lottie_element_154"><rect width="250" height="250" x="0" y="0"/></clipPath></defs><g clip-path="url(#__lottie_element_154)"><g transform="matrix(1.0782923698425293,-0.004232314415276051,0.003617656184360385,0.9216921925544739,-145.7706756591797,-95.84185791015625)" opacity="1" style="display: block;"><g opacity="1" transform="matrix(1,0,0,1,250.05499267578125,250)"><path fill="rgb(63,102,246)" fill-opacity="1" d=" M0,-79.8499984741211 C10.779000282287598,-79.8499984741211 20.53499984741211,-75.52300262451172 27.597999572753906,-68.53399658203125 C34.426998138427734,-61.7760009765625 38.7400016784668,-52.52899932861328 39.034000396728516,-42.28799819946289 C39.034000396728516,-42.28799819946289 39.04199981689453,-41.849998474121094 39.04199981689453,-41.849998474121094 C39.04199981689453,-41.849998474121094 54.400001525878906,-41.849998474121094 54.400001525878906,-41.849998474121094 C57.981998443603516,-41.849998474121094 61.23400115966797,-40.46099853515625 63.641998291015625,-38.20000076293945 C63.641998291015625,-38.20000076293945 63.895999908447266,-37.95399856567383 63.895999908447266,-37.95399856567383 C66.25700378417969,-35.61800003051758 67.74500274658203,-32.42100143432617 67.84500122070312,-28.881000518798828 C67.84500122070312,-28.881000518798828 67.8499984741211,-28.5 67.8499984741211,-28.5 C67.8499984741211,-28.5 67.8499984741211,60.16699981689453 67.8499984741211,60.16699981689453 C67.8499984741211,65.39199829101562 65.75599670410156,70.40399932861328 62.02199935913086,74.0989990234375 C58.409000396728516,77.67400360107422 53.547000885009766,79.7300033569336 48.45000076293945,79.84500122070312 C48.45000076293945,79.84500122070312 48,79.8499984741211 48,79.8499984741211 C48,79.8499984741211 -48,79.8499984741211 -48,79.8499984741211 C-53.2599983215332,79.8499984741211 -58.303001403808594,77.77899932861328 -62.02199935913086,74.0989990234375 C-65.64900207519531,70.50900268554688 -67.72899627685547,65.677001953125 -67.84500122070312,60.61399841308594 C-67.84500122070312,60.61399841308594 -67.8499984741211,60.16699981689453 -67.8499984741211,60.16699981689453 C-67.8499984741211,60.16699981689453 -67.8499984741211,-28.5 -67.8499984741211,-28.5 C-67.8499984741211,-32.191001892089844 -66.34100341796875,-35.534000396728516 -63.895999908447266,-37.95399856567383 C-61.54899978637695,-40.2760009765625 -58.3390007019043,-41.74599838256836 -54.78200149536133,-41.845001220703125 C-54.78200149536133,-41.845001220703125 -54.400001525878906,-41.849998474121094 -54.400001525878906,-41.849998474121094 C-54.400001525878906,-41.849998474121094 -39.042999267578125,-41.849998474121094 -39.042999267578125,-41.849998474121094 C-39.042999267578125,-41.849998474121094 -39.034000396728516,-42.28799819946289 -39.034000396728516,-42.28799819946289 C-38.744998931884766,-52.34299850463867 -34.58300018310547,-61.43899917602539 -27.968000411987305,-68.16300201416016 C-27.968000411987305,-68.16300201416016 -27.597999572753906,-68.53399658203125 -27.597999572753906,-68.53399658203125 C-20.53499984741211,-75.52300262451172 -10.779000282287598,-79.8499984741211 0,-79.8499984741211z M0,-59.483001708984375 C-5.126999855041504,-59.483001708984375 -9.770000457763672,-57.43000030517578 -13.130999565124512,-54.104000091552734 C-13.130999565124512,-54.104000091552734 -13.130999565124512,-54.104000091552734 -13.130999565124512,-54.104000091552734 C-13.130999565124512,-54.104000091552734 -13.42300033569336,-53.808998107910156 -13.42300033569336,-53.808998107910156 C-16.405000686645508,-50.722999572753906 -18.30900001525879,-46.606998443603516 -18.52899932861328,-42.053001403808594 C-18.52899932861328,-42.053001403808594 -18.52899932861328,-42.053001403808594 -18.52899932861328,-42.053001403808594 C-18.52899932861328,-42.053001403808594 -18.535999298095703,-41.849998474121094 -18.535999298095703,-41.849998474121094 C-18.535999298095703,-41.849998474121094 18.53499984741211,-41.849998474121094 18.53499984741211,-41.849998474121094 C18.53499984741211,-41.849998474121094 18.52899932861328,-42.053001403808594 18.52899932861328,-42.053001403808594 C18.302000045776367,-46.75299835205078 16.280000686645508,-50.987998962402344 13.130999565124512,-54.104000091552734 C9.770000457763672,-57.43000030517578 5.126999855041504,-59.483001708984375 0,-59.483001708984375z"/><path stroke-linecap="butt" stroke-linejoin="round" fill-opacity="0" stroke="rgb(255,255,255)" stroke-opacity="1" stroke-width="7.7" d=" M0,-79.8499984741211 C10.779000282287598,-79.8499984741211 20.53499984741211,-75.52300262451172 27.597999572753906,-68.53399658203125 C34.426998138427734,-61.7760009765625 38.7400016784668,-52.52899932861328 39.034000396728516,-42.28799819946289 C39.034000396728516,-42.28799819946289 39.04199981689453,-41.849998474121094 39.04199981689453,-41.849998474121094 C39.04199981689453,-41.849998474121094 54.400001525878906,-41.849998474121094 54.400001525878906,-41.849998474121094 C57.981998443603516,-41.849998474121094 61.23400115966797,-40.46099853515625 63.641998291015625,-38.20000076293945 C63.641998291015625,-38.20000076293945 63.895999908447266,-37.95399856567383 63.895999908447266,-37.95399856567383 C66.25700378417969,-35.61800003051758 67.74500274658203,-32.42100143432617 67.84500122070312,-28.881000518798828 C67.84500122070312,-28.881000518798828 67.8499984741211,-28.5 67.8499984741211,-28.5 C67.8499984741211,-28.5 67.8499984741211,60.16699981689453 67.8499984741211,60.16699981689453 C67.8499984741211,65.39199829101562 65.75599670410156,70.40399932861328 62.02199935913086,74.0989990234375 C58.409000396728516,77.67400360107422 53.547000885009766,79.7300033569336 48.45000076293945,79.84500122070312 C48.45000076293945,79.84500122070312 48,79.8499984741211 48,79.8499984741211 C48,79.8499984741211 -48,79.8499984741211 -48,79.8499984741211 C-53.2599983215332,79.8499984741211 -58.303001403808594,77.77899932861328 -62.02199935913086,74.0989990234375 C-65.64900207519531,70.50900268554688 -67.72899627685547,65.677001953125 -67.84500122070312,60.61399841308594 C-67.84500122070312,60.61399841308594 -67.8499984741211,60.16699981689453 -67.8499984741211,60.16699981689453 C-67.8499984741211,60.16699981689453 -67.8499984741211,-28.5 -67.8499984741211,-28.5 C-67.8499984741211,-32.191001892089844 -66.34100341796875,-35.534000396728516 -63.895999908447266,-37.95399856567383 C-61.54899978637695,-40.2760009765625 -58.3390007019043,-41.74599838256836 -54.78200149536133,-41.845001220703125 C-54.78200149536133,-41.845001220703125 -54.400001525878906,-41.849998474121094 -54.400001525878906,-41.849998474121094 C-54.400001525878906,-41.849998474121094 -39.042999267578125,-41.849998474121094 -39.042999267578125,-41.849998474121094 C-39.042999267578125,-41.849998474121094 -39.034000396728516,-42.28799819946289 -39.034000396728516,-42.28799819946289 C-38.744998931884766,-52.34299850463867 -34.58300018310547,-61.43899917602539 -27.968000411987305,-68.16300201416016 C-27.968000411987305,-68.16300201416016 -27.597999572753906,-68.53399658203125 -27.597999572753906,-68.53399658203125 C-20.53499984741211,-75.52300262451172 -10.779000282287598,-79.8499984741211 0,-79.8499984741211z M0,-59.483001708984375 C-5.126999855041504,-59.483001708984375 -9.770000457763672,-57.43000030517578 -13.130999565124512,-54.104000091552734 C-13.130999565124512,-54.104000091552734 -13.130999565124512,-54.104000091552734 -13.130999565124512,-54.104000091552734 C-13.130999565124512,-54.104000091552734 -13.42300033569336,-53.808998107910156 -13.42300033569336,-53.808998107910156 C-16.405000686645508,-50.722999572753906 -18.30900001525879,-46.606998443603516 -18.52899932861328,-42.053001403808594 C-18.52899932861328,-42.053001403808594 -18.52899932861328,-42.053001403808594 -18.52899932861328,-42.053001403808594 C-18.52899932861328,-42.053001403808594 -18.535999298095703,-41.849998474121094 -18.535999298095703,-41.849998474121094 C-18.535999298095703,-41.849998474121094 18.53499984741211,-41.849998474121094 18.53499984741211,-41.849998474121094 C18.53499984741211,-41.849998474121094 18.52899932861328,-42.053001403808594 18.52899932861328,-42.053001403808594 C18.302000045776367,-46.75299835205078 16.280000686645508,-50.987998962402344 13.130999565124512,-54.104000091552734 C9.770000457763672,-57.43000030517578 5.126999855041504,-59.483001708984375 0,-59.483001708984375z"/></g></g><g transform="matrix(1.1923136711120605,-0.004679849836975336,0.004000196233391762,1.0191541910171509,-174.4312744140625,-119.07949829101562)" opacity="1" style="display: block;"><g opacity="1" transform="matrix(1,0,0,1,250.55799865722656,267.9490051269531)"><path fill="rgb(255,255,255)" fill-opacity="1" d=" M-2.1470000743865967,29.500999450683594 C-10.614999771118164,23.18000030517578 -34.96500015258789,3.693000078201294 -34.96500015258789,-11.470000267028809 C-34.96500015258789,-29.81399917602539 -13.020999908447266,-37.20399856567383 -2.944000005722046,-22.08099937438965 C-2.3010001182556152,-21.115999221801758 -1.1920000314712524,-20.533000946044922 0,-20.533000946044922 C1.1920000314712524,-20.533000946044922 2.3010001182556152,-21.115999221801758 2.944000005722046,-22.08099937438965 C13.020999908447266,-37.20399856567383 34.96500015258789,-29.81399917602539 34.96500015258789,-11.470000267028809 C34.96500015258789,3.693000078201294 10.607999801635742,23.18000030517578 2.140000104904175,29.500999450683594 C0.8790000081062317,30.441999435424805 -0.8859999775886536,30.441999435424805 -2.1470000743865967,29.500999450683594z"/></g></g></g></svg>